{"glyphs":{"0":{"ha":835,"x_min":0,"x_max":0,"o":"m 42 525 b 42 510 44 519 44 515 b 42 504 40 508 40 507 b 42 490 43 500 42 496 b 44 447 40 476 39 461 b 47 426 47 440 46 433 l 47 414 b 49 389 47 406 50 397 b 50 358 46 379 49 368 b 57 325 53 347 57 336 b 68 282 58 311 63 297 b 83 265 72 275 76 269 b 93 250 90 263 93 257 b 104 228 94 242 99 235 l 117 210 b 143 178 125 199 133 188 b 150 175 144 176 147 175 b 157 169 154 174 156 172 b 174 153 160 161 167 154 b 201 132 188 150 193 142 b 217 122 206 128 210 124 b 229 115 221 121 225 119 b 246 103 233 110 239 106 b 272 92 254 99 263 94 b 311 81 283 86 299 81 b 321 81 314 81 318 82 b 346 75 328 75 338 74 b 353 75 349 76 351 76 b 381 71 361 71 372 75 l 383 71 b 401 71 389 75 396 72 b 421 69 408 71 415 68 b 476 79 439 75 458 75 l 482 79 b 500 85 488 83 493 85 b 518 86 506 86 511 89 b 526 90 521 86 524 89 b 538 97 531 92 533 96 b 567 110 547 101 557 107 b 576 114 571 111 575 111 b 600 128 582 122 590 124 b 624 143 608 132 617 136 b 622 150 622 147 622 149 b 635 151 626 151 631 151 b 647 161 639 154 644 157 b 671 176 653 169 663 175 b 692 197 678 178 692 190 b 696 206 692 200 693 203 b 715 231 704 213 710 221 b 733 254 719 240 728 247 b 743 272 738 260 746 264 b 744 276 743 274 744 275 b 754 294 749 282 751 288 b 758 306 757 297 758 301 b 767 338 758 317 763 328 b 774 361 768 346 771 353 b 781 383 776 368 775 376 b 782 393 782 386 782 390 b 782 407 781 399 781 403 b 783 419 783 411 783 415 b 786 443 785 428 786 435 b 789 468 788 451 789 460 b 790 504 790 481 790 493 b 792 513 790 507 790 510 b 792 544 794 522 794 535 b 785 576 788 556 786 565 b 783 588 785 581 785 583 b 781 615 782 597 779 606 b 781 621 782 617 781 619 b 768 668 776 636 775 653 b 756 704 764 679 764 692 b 746 729 756 707 747 729 b 739 743 742 733 740 738 b 724 774 739 747 725 772 l 724 776 b 719 788 722 779 721 783 b 694 826 711 800 703 814 b 681 846 690 832 685 839 b 668 861 676 851 672 856 b 664 867 667 863 665 865 b 644 888 656 872 650 879 b 640 890 643 889 642 890 b 632 894 636 890 635 892 b 624 901 631 897 626 900 b 610 911 619 906 613 906 b 594 921 606 915 600 918 b 585 929 592 924 588 925 b 578 938 582 931 581 935 l 561 946 b 557 947 560 946 557 946 b 544 956 554 953 549 954 b 533 961 540 957 536 960 b 508 976 525 967 517 972 l 479 989 b 463 1044 479 1004 474 1033 b 450 1054 458 1047 454 1051 b 422 1064 443 1061 433 1065 b 393 1065 413 1064 403 1065 b 360 1058 382 1065 369 1067 b 353 1056 358 1057 356 1056 b 319 1044 342 1053 331 1049 l 308 1040 b 265 1019 293 1035 278 1028 b 261 1015 264 1019 263 1017 b 243 997 254 1010 249 1003 b 213 967 232 988 219 979 b 201 953 208 961 206 957 b 181 921 193 942 186 932 b 171 907 178 915 176 910 b 169 904 169 906 169 906 b 154 882 164 897 160 890 b 149 872 153 879 150 876 b 133 843 143 863 139 853 b 117 817 126 835 124 825 b 114 804 115 813 115 808 b 104 778 113 796 107 786 l 101 769 b 89 733 97 758 93 746 b 82 711 88 725 85 718 l 82 707 b 78 692 85 700 82 694 b 69 674 72 686 71 681 b 56 618 64 656 60 636 b 58 610 54 614 57 613 b 49 586 54 603 50 594 l 44 561 b 43 547 43 557 43 553 l 42 533 b 42 525 40 531 39 528 z m 307 536 b 336 642 314 571 322 608 b 350 678 340 654 346 665 b 364 713 356 689 360 701 b 371 718 365 715 367 718 l 390 743 b 401 738 394 742 399 739 b 417 726 407 735 411 731 b 457 700 431 718 444 710 b 463 696 458 699 461 697 b 479 678 469 690 475 683 b 486 667 482 674 483 669 b 500 642 492 660 497 650 b 510 621 504 635 504 626 l 510 618 b 515 601 513 613 514 607 b 521 586 517 597 519 592 l 524 569 l 524 565 b 531 533 526 554 529 544 l 531 521 b 532 492 532 511 532 501 b 531 467 532 483 531 475 b 528 446 529 460 529 453 b 521 417 528 442 524 421 l 521 415 b 513 396 519 407 517 401 b 510 393 511 394 511 393 b 496 374 507 386 501 379 b 490 367 494 371 492 369 b 483 361 488 365 486 364 b 474 351 481 358 478 354 b 432 335 461 344 446 339 b 378 333 413 331 393 331 b 361 340 371 335 367 339 b 347 349 357 343 351 346 b 333 361 343 353 338 357 b 322 376 331 365 326 371 b 310 396 318 382 314 389 b 307 413 308 401 307 407 b 304 432 306 419 306 425 b 303 472 304 444 303 458 b 307 536 303 489 304 519 z "},"1":{"ha":535,"x_min":0,"x_max":0,"o":"m 54 675 b 56 678 56 676 56 678 b 58 679 57 679 58 676 b 60 681 58 681 60 681 l 63 683 b 64 683 63 685 63 686 l 67 683 b 69 685 68 683 69 685 b 72 682 71 683 72 683 l 74 683 b 75 679 74 682 74 681 b 76 674 75 678 75 675 l 76 676 b 75 688 76 679 76 683 l 76 688 b 79 690 78 688 79 689 l 82 690 l 82 692 b 83 693 82 696 83 696 b 85 689 83 689 85 689 b 90 688 86 688 89 689 l 90 693 b 93 688 92 689 92 688 l 94 686 l 97 686 b 99 688 99 690 99 690 l 100 688 b 104 690 101 688 103 686 b 106 692 104 693 106 692 l 107 692 b 108 689 107 690 108 692 b 111 685 110 685 110 685 b 113 682 111 685 113 685 b 117 676 114 678 115 676 l 117 683 b 118 683 118 686 118 688 b 119 681 119 679 119 679 l 122 681 b 125 682 124 681 125 681 l 125 683 b 126 682 125 679 126 679 b 129 682 126 689 128 686 b 131 682 131 683 131 685 b 132 679 131 679 132 679 b 135 678 133 679 135 678 b 136 679 136 678 136 679 l 136 681 b 138 681 138 678 138 678 b 139 681 138 682 139 682 b 140 679 139 678 139 683 b 142 679 140 683 142 681 b 143 678 142 679 143 676 b 146 679 144 682 144 679 b 149 675 149 679 149 679 b 150 676 150 674 150 676 l 150 679 b 153 679 151 681 151 681 b 156 681 154 683 154 682 b 157 681 156 679 157 678 l 157 688 b 158 682 157 685 157 682 l 158 681 b 161 676 160 683 160 681 l 161 674 b 163 676 163 674 163 672 l 163 679 b 165 681 164 678 164 679 b 167 679 165 682 167 681 b 168 681 168 679 168 674 l 171 681 l 171 682 b 174 689 172 688 172 689 l 175 690 b 176 690 175 689 176 693 b 178 692 176 689 178 690 l 178 694 b 179 696 179 694 179 694 l 181 697 b 183 699 182 699 182 697 b 186 700 183 699 185 700 b 189 700 188 696 188 696 b 190 704 189 701 190 703 b 194 696 190 701 192 699 b 194 689 196 694 194 692 l 194 685 b 192 678 193 683 194 679 b 188 668 188 674 188 671 b 185 657 188 664 188 661 b 181 644 182 653 179 649 b 186 639 181 642 182 640 b 188 633 190 636 190 635 b 183 626 183 631 183 629 l 183 608 b 186 607 183 608 183 607 b 186 604 188 606 188 604 b 185 597 183 601 182 599 b 185 589 192 594 189 592 b 185 583 183 586 182 585 b 185 579 186 582 188 581 b 181 560 181 578 181 564 b 182 556 181 558 182 557 b 183 554 183 556 185 554 b 183 547 181 551 181 549 b 185 544 185 546 185 546 b 182 538 182 542 186 539 l 182 536 b 183 531 186 535 183 533 b 181 526 182 529 179 528 b 182 510 185 521 182 515 b 182 508 182 510 181 508 b 182 503 183 506 183 504 b 178 497 182 500 182 499 b 179 494 176 497 178 496 l 182 492 b 182 482 183 488 183 485 b 182 478 182 481 181 479 b 183 471 186 476 183 474 b 183 463 182 468 181 465 b 189 461 186 461 188 461 b 183 458 188 460 185 460 b 183 454 182 457 182 456 b 179 446 186 451 183 449 b 176 442 176 444 176 443 b 179 438 175 440 174 439 b 181 435 181 436 182 436 b 182 425 179 432 181 428 b 181 417 185 422 182 419 b 182 410 181 414 176 413 b 182 408 183 410 182 410 l 182 403 b 185 399 182 401 183 400 b 192 381 190 396 192 386 b 192 372 190 378 194 375 b 193 369 190 372 192 371 b 196 365 196 368 196 367 b 197 361 196 364 196 363 b 199 353 197 358 199 356 l 199 344 l 201 332 b 200 329 201 331 200 329 b 200 318 197 325 197 321 b 204 306 203 314 204 310 l 204 301 b 203 293 206 299 207 296 l 203 290 b 204 274 204 285 203 279 b 207 261 207 269 203 265 l 207 260 b 204 253 203 257 208 256 b 206 250 204 251 206 251 b 206 246 208 249 208 247 b 206 242 206 244 204 243 b 207 233 208 239 203 236 l 206 233 b 203 214 206 229 204 218 l 203 199 b 201 196 203 197 201 197 b 203 185 203 193 203 190 b 204 182 206 183 204 183 l 204 178 b 207 172 204 176 208 175 b 208 167 206 171 208 168 b 208 161 208 164 210 163 b 206 158 208 161 206 160 b 206 154 204 157 206 156 b 208 150 207 154 207 153 b 207 144 206 149 207 147 b 208 140 208 143 208 142 b 206 131 207 138 207 135 l 206 117 b 244 107 206 108 238 107 l 253 107 b 285 104 263 106 274 106 b 346 106 306 104 325 104 l 371 106 b 392 107 378 106 385 106 l 449 110 l 450 110 b 467 111 456 110 461 110 b 468 131 467 115 467 126 b 469 144 468 135 469 139 b 468 165 469 151 469 158 b 467 182 468 171 467 176 b 465 188 467 183 465 185 b 464 206 465 193 464 200 b 465 215 465 208 467 213 b 465 238 464 222 465 231 b 465 254 465 243 468 249 l 465 296 b 461 318 464 303 463 310 b 460 326 461 321 461 324 l 457 346 b 454 363 457 351 456 357 b 451 378 454 368 453 372 b 449 388 450 381 450 385 b 446 400 446 392 446 396 l 446 401 b 443 417 443 407 443 413 l 443 419 l 442 439 l 442 453 b 440 465 442 457 440 461 b 442 503 440 478 440 490 l 444 551 b 447 589 444 563 444 578 l 447 610 b 447 649 447 622 447 636 b 449 664 447 654 447 658 b 451 679 450 668 451 674 b 453 707 453 688 453 697 b 454 728 454 714 454 721 b 454 769 454 742 454 756 l 454 808 b 456 831 454 815 456 824 l 451 851 b 454 857 451 853 451 856 b 456 860 456 857 456 858 b 458 878 457 865 458 872 l 458 896 b 460 907 458 900 460 903 b 457 925 460 913 457 919 b 458 942 457 931 458 936 b 458 961 458 949 460 954 b 465 975 458 965 461 969 b 471 978 465 976 468 976 b 467 982 474 979 472 981 l 443 982 b 404 982 431 983 418 983 l 371 982 b 321 981 354 982 338 982 l 304 981 b 225 972 278 978 251 975 l 224 972 b 221 971 222 971 222 971 b 218 972 219 971 219 974 b 214 971 217 972 215 972 b 211 969 213 971 213 971 b 201 968 208 969 204 968 b 199 967 200 967 200 967 l 197 967 b 193 967 196 967 194 969 l 190 967 l 188 965 l 185 965 b 181 960 183 964 182 961 l 178 960 l 174 956 b 169 953 172 956 171 954 l 167 950 b 165 947 167 949 165 949 b 163 944 164 944 163 944 b 158 942 161 942 160 940 b 154 939 157 940 156 940 l 150 939 b 147 938 150 939 149 938 b 140 939 146 938 143 938 b 129 940 136 939 132 940 b 125 943 128 942 126 942 l 121 943 l 115 944 l 113 944 b 107 943 110 944 108 943 b 104 946 106 943 106 944 b 100 949 103 946 101 947 b 94 950 99 949 96 950 b 89 951 93 950 92 951 b 86 950 89 951 88 950 b 81 951 83 950 82 951 b 72 953 78 953 75 951 l 67 953 b 63 950 65 953 64 951 b 60 954 61 950 61 950 b 56 957 58 956 57 957 l 53 957 b 50 958 51 957 50 958 b 46 956 49 958 47 956 l 44 956 l 46 944 b 44 950 46 947 44 947 b 42 960 43 956 43 958 b 40 963 42 960 42 961 b 39 961 40 964 39 967 b 36 963 38 961 38 963 l 36 964 b 33 967 35 964 35 965 z m 186 575 l 185 574 l 185 575 z "},"2":{"ha":804,"x_min":0,"x_max":0,"o":"m 39 801 b 50 796 42 800 46 797 b 60 790 54 793 57 793 b 94 772 71 783 83 778 b 125 760 106 769 115 764 b 172 742 140 753 157 747 b 188 736 178 739 182 738 b 231 722 201 731 217 726 b 264 713 242 718 253 715 b 288 706 272 710 281 707 b 296 703 290 704 293 704 b 306 701 301 701 306 700 l 310 701 b 314 699 311 701 313 700 l 314 703 b 319 708 317 704 319 704 l 322 711 b 329 718 325 713 328 714 b 335 719 331 719 332 721 l 343 722 b 347 725 344 724 346 724 b 358 729 351 726 354 729 b 371 731 363 729 367 731 b 375 733 372 731 374 733 b 385 739 378 736 382 738 l 389 739 b 404 744 393 740 399 743 b 414 747 407 744 410 744 b 421 749 417 751 418 751 b 428 744 424 744 426 744 l 438 744 b 446 743 440 744 443 744 b 447 749 446 743 447 746 b 453 742 450 744 451 743 b 460 739 456 742 458 740 l 463 739 b 468 738 464 738 465 738 b 472 738 471 740 472 740 b 476 736 475 738 476 736 b 486 735 479 735 482 732 b 490 733 488 736 489 733 b 492 732 490 732 490 732 b 493 728 492 731 494 731 b 492 722 492 724 492 722 b 492 719 493 721 493 721 l 492 718 l 490 718 l 490 717 l 493 717 b 493 715 490 715 489 715 b 493 713 500 715 496 714 b 492 711 492 713 490 713 b 493 710 494 711 494 711 b 488 703 489 710 488 708 b 489 700 486 701 488 701 l 490 699 b 489 696 486 699 486 697 l 489 694 b 485 690 486 693 490 690 b 485 686 489 688 485 688 b 481 685 483 686 479 686 b 475 672 482 679 478 676 l 475 671 b 474 665 475 668 475 667 b 467 664 471 664 471 663 b 467 661 465 664 467 663 l 467 656 b 461 647 465 653 464 650 b 458 644 460 647 458 646 b 454 636 461 640 457 639 b 449 629 451 635 447 633 b 453 624 450 626 451 625 b 446 625 450 624 447 625 b 442 619 443 624 442 622 b 426 613 442 615 431 613 b 424 606 424 611 422 610 b 424 601 425 604 425 603 b 415 590 419 599 417 594 b 406 581 414 586 410 583 b 401 574 403 579 397 579 b 392 560 400 572 392 563 b 372 526 392 554 378 528 b 369 521 369 525 369 524 b 367 514 371 518 368 517 b 364 510 365 513 365 511 b 357 499 361 506 360 503 b 349 489 354 496 351 493 l 335 471 b 322 460 328 469 324 465 b 314 443 321 453 318 449 l 310 439 b 300 429 308 435 306 431 b 297 426 299 429 297 428 b 269 393 293 422 271 397 l 268 392 b 258 382 267 392 258 385 b 253 376 258 378 256 376 l 249 372 b 240 363 247 367 242 368 l 239 363 b 233 360 238 361 235 361 l 200 326 b 197 325 200 326 199 326 b 186 313 196 321 192 317 b 185 307 188 308 186 308 b 181 303 182 307 182 304 b 176 294 179 301 179 296 b 169 286 174 294 172 290 b 154 286 165 286 160 286 l 142 286 b 131 292 138 286 135 289 b 128 297 131 293 129 296 b 126 294 126 300 126 300 b 126 282 125 290 126 286 l 126 271 b 128 247 126 263 126 254 l 115 235 b 118 217 111 232 113 226 b 131 201 122 211 125 206 l 131 199 b 133 149 131 182 132 165 b 135 132 135 143 135 138 b 140 88 136 117 138 103 b 144 53 142 76 143 64 b 149 29 146 44 147 36 b 151 19 150 26 151 24 b 157 11 153 14 156 11 b 161 8 158 11 160 10 b 167 10 163 7 165 3 l 168 10 l 174 8 b 185 6 178 7 181 6 l 188 8 b 196 10 190 8 194 7 b 200 11 197 11 199 11 b 208 15 203 13 206 13 b 213 15 210 15 211 17 b 222 15 215 15 219 15 b 231 17 225 15 228 17 b 239 15 233 15 236 17 b 242 18 240 14 242 17 b 250 19 244 19 247 19 l 261 24 l 267 24 b 268 25 268 24 268 25 b 272 26 269 29 271 29 b 278 22 274 22 276 22 l 293 22 b 294 28 293 22 293 25 b 307 21 296 22 301 21 l 314 21 b 317 21 315 21 317 19 b 321 22 318 25 319 25 l 322 24 b 325 24 322 25 324 24 b 336 26 329 24 332 22 b 340 28 338 29 339 28 b 343 26 342 28 343 28 b 349 25 346 26 347 28 b 356 21 351 21 354 21 b 363 18 358 21 361 21 b 372 14 367 15 369 13 b 376 19 374 14 375 15 b 379 21 376 24 378 24 b 385 17 381 17 383 17 l 397 17 b 399 19 397 17 397 18 b 400 19 399 22 399 21 b 404 19 401 17 403 15 b 410 19 406 26 408 22 b 414 19 411 18 413 17 b 417 19 414 21 415 21 b 419 17 418 17 419 17 b 431 15 424 15 426 15 l 432 17 b 435 18 433 18 433 19 b 439 18 436 15 438 15 b 440 19 439 19 440 19 b 446 17 442 17 444 21 b 450 18 447 21 449 18 b 453 15 451 17 453 14 b 464 17 457 19 461 17 l 465 17 b 469 18 467 18 468 18 b 472 14 471 17 472 18 b 475 14 474 13 474 14 b 478 18 475 15 476 17 b 483 18 479 18 482 19 b 486 17 485 17 485 17 b 492 18 488 22 489 19 b 497 19 493 18 494 15 l 497 25 b 500 19 499 22 499 21 b 503 19 500 18 501 17 b 508 15 504 22 507 19 b 511 13 510 13 510 13 b 514 15 513 11 513 10 b 515 17 514 17 515 18 b 522 18 518 15 519 17 b 528 17 524 21 526 18 b 532 18 529 17 531 13 b 533 18 533 19 533 18 l 538 18 l 540 21 b 553 28 542 25 549 28 b 558 28 554 28 556 31 b 560 29 558 26 560 28 b 563 32 561 32 563 32 b 565 33 564 32 565 33 b 571 35 568 33 569 35 b 578 36 574 36 575 35 l 586 38 b 588 36 586 38 588 38 b 596 36 590 33 593 33 b 603 42 599 40 600 40 l 606 42 b 613 40 608 42 610 44 b 614 40 613 39 614 40 b 625 42 618 40 621 39 b 633 43 628 43 631 39 l 635 43 b 639 42 636 39 638 44 b 640 43 640 42 640 42 b 644 43 642 46 643 44 b 647 43 644 42 646 42 b 653 43 649 46 650 40 b 656 40 654 42 654 40 l 665 40 b 671 39 668 40 669 40 l 676 39 b 678 39 676 39 676 38 b 683 38 679 40 682 39 b 685 39 685 38 685 38 b 688 40 686 42 686 42 l 689 42 b 693 43 690 42 692 46 b 697 44 694 42 696 44 b 700 44 699 46 700 46 b 703 42 701 44 701 42 b 706 42 703 40 704 42 b 708 44 706 43 707 43 b 711 43 710 42 710 43 b 714 44 713 44 714 44 b 721 42 717 43 718 42 b 731 40 724 42 728 42 b 736 56 733 40 735 44 b 739 81 738 64 738 71 l 739 88 b 742 121 740 99 742 110 b 744 181 743 140 744 161 b 746 206 746 189 746 197 l 746 286 b 746 301 747 292 747 296 b 742 303 744 301 743 303 l 732 303 b 722 306 729 303 725 306 b 707 304 717 306 711 306 b 694 303 703 304 699 303 b 690 301 693 303 692 301 l 676 301 b 669 303 675 301 672 303 b 654 301 664 301 660 301 b 642 303 650 303 646 306 b 640 303 642 301 640 303 l 632 303 l 622 301 l 613 301 l 596 297 l 590 297 b 576 294 586 296 581 294 b 564 292 572 293 568 292 b 553 288 560 290 557 289 b 546 285 551 288 549 288 b 538 282 543 282 540 282 l 536 282 b 525 279 533 279 529 279 l 524 279 l 511 278 l 515 283 b 524 294 518 288 522 290 l 543 318 b 560 340 549 326 554 333 b 572 360 564 347 568 354 b 581 375 575 365 579 369 b 593 392 583 381 588 386 b 610 415 594 396 607 415 l 628 440 b 643 460 633 446 639 453 b 751 672 692 524 736 592 b 754 719 753 688 754 704 b 749 771 754 736 753 754 b 736 818 746 788 742 803 b 681 904 724 849 701 879 b 571 982 647 938 613 961 b 549 990 564 985 556 988 b 453 1007 519 1000 483 1004 b 429 1008 444 1008 438 1008 l 410 1007 b 288 985 367 1007 326 1000 b 278 985 285 985 282 983 b 272 985 276 986 274 986 b 235 974 260 982 247 979 b 199 958 222 969 211 964 b 176 947 192 954 183 951 b 158 935 171 943 164 939 b 142 921 153 931 147 925 b 103 888 128 911 115 900 b 71 846 90 874 79 860 b 49 817 64 835 57 825 b 39 811 46 814 43 813 b 39 801 35 808 35 806 z m 493 718 l 493 719 b 494 719 496 721 497 721 b 493 718 493 719 493 719 z m 311 703 b 313 701 311 703 311 701 b 310 703 311 701 311 701 z "},"3":{"ha":808,"x_min":0,"x_max":0,"o":"m 39 785 b 50 781 42 783 46 782 b 99 767 65 775 82 771 b 131 760 110 765 119 763 l 181 751 b 197 750 186 751 192 751 b 242 743 213 747 226 746 b 275 736 253 742 264 739 b 299 728 283 733 292 731 b 314 718 301 726 314 719 b 315 714 314 717 315 715 l 315 713 b 317 715 317 714 317 714 b 318 717 317 717 317 718 l 319 717 b 325 719 321 717 322 718 b 339 725 328 722 333 725 b 340 728 340 725 339 728 b 346 732 342 731 344 732 l 347 733 b 357 739 351 735 354 738 l 363 740 l 363 743 b 367 744 363 747 365 747 b 372 742 369 740 371 740 b 386 743 376 742 382 743 l 386 747 b 396 742 389 744 393 742 l 400 742 b 401 742 400 742 400 740 b 403 743 401 746 403 746 l 404 743 b 406 743 404 744 406 743 b 413 744 407 743 410 742 b 415 744 414 747 414 746 l 417 744 b 419 742 418 743 419 744 b 422 736 419 736 421 736 b 425 732 424 735 425 735 b 426 725 425 728 425 726 b 431 731 428 725 429 726 b 433 731 433 733 435 733 b 433 725 432 726 432 725 l 435 725 l 438 722 b 439 725 438 722 438 724 b 440 725 439 725 435 728 l 442 724 b 443 724 444 726 444 725 b 446 719 446 721 446 719 l 446 718 b 444 717 444 717 447 714 b 444 714 443 717 444 715 b 446 711 446 713 446 711 b 444 710 446 711 446 710 l 444 706 b 442 703 443 704 442 704 b 435 699 440 701 439 700 b 429 696 432 700 431 699 b 424 686 429 692 428 690 b 417 685 422 685 421 682 b 406 679 413 683 408 683 b 397 676 403 678 400 679 b 346 676 381 676 363 676 b 310 672 333 675 321 674 b 281 671 300 669 292 671 l 272 675 b 267 669 268 676 265 675 b 269 657 267 665 268 661 l 269 656 l 267 656 b 261 640 264 656 261 650 b 261 615 261 632 260 624 l 261 607 b 263 575 261 597 261 586 b 268 515 264 554 265 535 b 271 489 269 506 269 497 b 274 468 272 482 274 475 l 283 413 l 283 410 b 286 394 283 404 285 400 l 293 394 b 324 394 303 394 314 394 l 349 399 b 360 401 353 400 356 401 l 361 401 b 364 399 363 401 363 400 b 367 399 365 396 367 393 b 372 397 368 399 369 399 l 378 394 b 381 397 379 396 379 397 b 388 399 383 397 385 396 b 390 400 388 400 389 399 b 396 401 392 400 394 400 b 400 400 397 403 399 403 l 406 399 l 408 399 b 419 393 411 399 418 396 b 424 394 421 392 422 394 b 431 393 426 396 428 394 l 432 393 b 442 390 435 392 438 392 b 446 389 443 390 444 389 b 449 389 447 388 447 388 b 451 388 451 392 453 390 b 453 381 451 383 453 382 b 465 371 457 378 461 375 b 469 374 465 371 468 372 b 471 365 469 369 469 367 b 475 358 472 364 474 361 b 478 356 476 358 476 357 l 481 353 b 482 351 481 353 481 351 b 486 350 486 354 488 353 b 490 346 489 349 489 347 b 499 340 492 343 493 340 b 503 335 501 340 500 338 b 503 329 503 333 504 332 l 501 329 l 501 328 l 500 328 b 499 329 500 328 499 329 b 500 329 499 329 499 329 l 499 331 b 497 331 499 329 500 329 b 499 329 499 329 499 329 b 494 331 497 329 496 329 b 494 329 493 331 494 331 b 493 326 497 326 493 326 b 492 324 493 324 493 324 b 488 325 490 324 490 324 b 488 321 488 324 489 322 b 485 319 488 321 488 318 b 482 317 486 315 483 317 b 479 314 481 317 479 318 b 481 310 481 313 481 311 b 478 314 479 313 479 313 b 476 313 476 315 476 315 b 471 315 476 310 474 311 b 468 317 469 317 468 317 b 467 314 467 318 465 318 l 467 311 b 461 308 464 311 463 310 b 456 307 461 306 458 307 b 453 306 454 308 453 313 b 449 304 451 304 450 304 b 446 301 447 304 447 304 b 440 294 444 297 443 296 b 435 293 439 294 438 293 b 429 292 433 293 432 289 b 428 290 429 293 428 292 b 421 286 426 289 422 286 b 415 283 419 285 417 283 b 408 282 413 283 411 283 b 397 281 404 282 401 281 b 396 282 397 281 396 281 b 386 282 393 285 389 285 b 376 278 383 279 379 278 l 372 278 b 365 281 369 278 367 276 l 363 281 b 349 281 358 281 353 282 b 336 282 344 281 340 285 b 329 285 335 286 331 281 b 328 283 329 285 328 285 b 322 285 325 282 324 282 b 319 286 322 286 321 286 b 311 286 317 283 315 289 l 311 288 b 308 290 310 289 310 290 l 286 297 b 278 301 286 297 279 301 b 269 304 275 301 272 303 b 267 304 268 306 268 306 b 264 304 265 301 264 303 l 260 304 b 253 304 258 306 256 301 b 247 306 253 307 249 304 b 243 307 246 306 244 306 b 240 311 242 308 242 311 b 236 311 240 313 238 311 l 232 311 b 222 315 231 314 225 315 b 214 321 219 317 217 319 l 199 328 b 186 318 196 331 192 326 b 174 296 182 311 178 304 b 169 290 172 294 171 292 b 156 260 164 281 160 271 b 132 206 146 242 139 224 b 122 182 128 197 125 189 l 96 108 l 96 106 b 90 92 93 101 92 96 b 97 86 93 89 94 88 b 113 81 103 85 108 82 b 129 71 118 78 124 74 b 156 63 138 68 147 65 b 178 56 163 60 171 58 b 186 54 181 56 183 56 l 211 47 b 224 42 215 46 219 43 b 256 33 235 40 244 36 b 279 29 263 32 271 28 b 283 28 281 29 282 28 b 300 25 289 26 294 25 b 318 22 307 24 313 22 l 338 19 l 342 19 b 375 21 353 19 364 21 l 389 21 b 419 25 399 22 408 24 b 447 29 428 26 438 26 b 486 40 460 32 475 35 b 506 47 492 44 497 46 b 531 56 514 51 522 54 b 535 58 532 57 533 57 b 564 69 544 61 554 65 b 588 79 572 72 579 76 b 606 92 593 83 599 88 b 661 128 625 101 643 114 b 724 199 683 147 706 169 b 735 217 726 204 731 210 b 743 236 738 222 740 229 b 757 276 749 244 756 267 b 763 324 760 292 763 307 b 760 365 763 338 763 351 b 746 413 757 382 750 397 b 735 439 742 421 739 431 b 724 465 732 449 728 457 b 676 533 710 490 694 513 b 656 551 669 540 663 546 l 647 560 b 654 569 649 564 651 567 b 656 572 654 571 656 571 b 669 600 658 582 664 592 b 672 604 671 601 671 603 b 685 639 676 615 681 628 b 692 667 688 647 690 657 b 694 690 693 674 694 682 b 696 761 699 713 699 738 b 665 851 692 793 681 824 b 656 869 663 858 660 864 b 644 885 653 875 649 881 b 622 911 638 894 629 903 b 608 924 618 915 613 919 l 596 935 b 569 953 586 942 579 949 b 536 969 558 960 547 964 b 514 981 528 972 521 976 b 444 1003 497 990 463 1000 b 408 1007 433 1004 421 1007 b 379 1006 399 1007 389 1006 b 339 1003 365 1004 351 1004 b 283 990 319 1000 301 996 b 253 982 274 988 263 985 b 224 967 242 978 233 972 b 217 965 221 965 219 964 b 211 965 214 967 213 967 b 183 954 201 963 192 958 b 158 938 175 950 167 943 b 140 928 153 935 146 932 b 90 875 124 914 104 892 b 76 857 86 869 81 864 b 65 838 72 851 69 844 l 57 821 b 46 804 53 817 49 808 b 38 796 44 801 40 799 b 39 785 33 792 33 788 z m 501 324 b 500 325 499 325 497 325 l 501 324 b 499 319 501 322 501 322 l 499 322 l 500 324 z "},"4":{"ha":871,"x_min":0,"x_max":0,"o":"m 39 338 b 40 314 39 329 39 321 b 44 294 40 311 43 294 b 50 292 47 294 49 293 b 56 292 51 289 53 286 b 57 292 56 293 56 292 l 63 290 b 65 289 64 289 64 289 b 72 285 67 288 69 286 l 74 285 b 79 288 75 286 78 288 b 88 289 82 289 85 286 b 92 290 89 290 90 290 b 100 292 94 290 97 290 b 104 292 101 293 103 294 l 113 292 b 115 292 114 290 115 292 b 125 292 118 292 122 293 b 133 290 128 290 131 292 b 136 293 135 290 135 292 b 144 294 139 294 142 294 l 146 294 b 157 297 150 296 154 296 l 163 297 b 164 300 164 299 164 299 b 168 300 165 303 167 303 b 174 296 171 296 172 296 b 189 296 179 294 185 296 b 192 300 190 294 190 297 b 197 294 193 297 196 294 b 203 311 200 294 201 306 l 207 311 l 210 308 b 213 307 211 308 211 307 b 214 294 214 300 214 293 b 218 296 215 299 217 297 b 219 296 218 294 219 294 b 224 296 221 297 222 296 b 235 299 226 296 231 294 b 239 300 236 301 238 300 b 242 299 240 300 240 300 b 247 297 244 299 246 300 b 254 293 250 293 253 293 b 263 290 257 293 260 293 b 271 286 265 288 268 286 b 275 292 274 286 275 288 b 279 293 276 296 278 297 b 285 290 281 289 282 289 l 297 290 b 300 293 297 290 297 292 b 304 293 301 290 303 289 b 311 293 306 300 308 297 b 314 293 313 292 314 290 b 317 293 315 296 315 296 b 321 290 318 290 319 290 l 332 290 l 333 292 b 335 294 335 293 335 294 b 340 294 338 290 339 290 l 342 294 b 347 293 343 292 344 297 b 351 294 349 297 350 294 b 356 292 353 293 354 290 b 367 294 358 296 363 293 b 371 296 369 296 369 296 b 375 292 372 294 374 296 b 378 293 376 290 376 292 l 379 296 b 386 296 382 297 383 297 b 389 296 388 296 388 294 b 393 299 390 301 392 299 b 400 299 396 297 397 296 l 400 306 b 403 300 400 303 401 300 b 406 300 403 297 404 297 b 411 296 407 303 410 300 b 414 293 413 293 414 294 b 418 296 415 293 417 292 b 419 299 418 299 418 299 b 425 301 421 297 424 299 b 432 300 428 303 429 301 b 436 301 433 300 435 296 l 436 303 l 442 303 b 443 306 442 303 443 303 b 450 313 446 310 447 311 b 456 314 451 313 454 314 b 461 314 457 314 458 317 b 463 317 461 314 463 314 b 465 319 464 319 464 319 b 468 321 467 319 467 319 b 472 322 469 321 471 322 l 472 304 b 471 301 472 303 471 303 b 469 289 467 297 467 293 b 472 276 472 285 472 281 l 472 272 b 469 263 472 268 474 265 b 469 260 468 261 469 260 b 468 242 469 254 467 247 b 468 228 469 236 465 232 l 468 226 b 465 218 464 225 469 221 b 467 217 465 218 465 217 b 467 211 469 214 468 213 b 465 207 465 210 465 208 b 465 199 468 204 463 201 b 463 193 464 196 463 194 b 460 176 461 188 460 182 l 457 161 b 456 158 457 160 456 160 b 454 149 457 156 456 151 l 454 146 b 457 143 458 144 457 144 b 457 139 456 142 457 140 b 458 132 457 138 460 135 b 458 125 456 131 458 128 l 458 121 b 454 118 457 119 454 119 b 456 114 454 117 454 115 l 456 110 b 457 108 457 110 457 108 b 456 103 453 107 454 106 l 456 99 b 451 89 454 94 453 92 b 449 72 451 83 450 78 b 488 58 449 65 482 60 b 494 57 490 58 493 57 b 526 51 506 54 517 53 b 586 44 547 47 567 46 b 613 42 594 43 604 43 b 633 40 619 42 626 40 l 689 38 l 692 38 b 707 38 697 36 703 36 b 710 43 708 39 710 40 b 711 57 711 47 711 53 b 717 94 714 71 717 81 l 717 119 b 718 139 717 125 717 132 b 721 149 718 142 721 146 b 722 174 719 157 722 165 b 725 192 724 179 728 185 l 725 193 l 729 226 l 729 236 l 728 260 b 729 268 728 263 729 265 l 728 289 l 728 308 b 725 336 728 317 728 329 b 724 350 724 340 724 344 b 724 368 722 357 722 363 l 724 371 l 725 392 b 726 419 725 394 726 418 b 732 458 728 433 731 446 l 746 532 b 750 551 747 538 749 544 l 753 572 b 756 592 754 578 756 585 b 758 615 757 599 757 607 b 761 629 758 619 760 625 b 767 646 764 635 765 640 b 772 675 768 656 771 665 b 776 697 774 682 775 690 b 778 715 778 703 776 710 b 783 742 779 724 782 733 l 789 782 b 793 806 790 790 792 797 l 793 829 b 796 833 793 831 793 832 b 799 836 797 835 799 835 b 804 856 800 843 803 849 b 806 874 804 863 806 868 l 810 886 b 810 904 810 892 808 899 b 814 922 810 911 813 917 b 818 942 815 929 817 935 b 826 956 818 947 822 951 b 832 958 826 957 829 957 b 829 963 835 960 835 961 b 817 965 825 963 821 964 b 806 967 813 965 810 965 b 685 986 767 975 725 983 b 669 988 679 988 675 988 b 625 992 654 990 639 992 b 589 993 613 993 601 993 b 565 992 581 993 572 993 b 556 990 561 992 558 990 b 546 985 549 989 546 988 b 540 978 544 982 543 981 b 540 969 539 976 535 974 b 540 968 542 969 540 968 l 538 960 b 536 957 538 958 538 957 b 531 944 535 953 532 949 l 532 943 b 533 936 532 940 533 938 b 532 922 533 931 531 926 b 533 917 533 921 533 918 b 535 903 533 913 533 907 b 533 896 535 900 536 899 b 531 885 532 892 532 889 l 531 879 b 526 853 531 871 529 861 b 528 849 525 851 528 850 b 529 836 529 844 529 840 b 528 833 529 835 528 835 l 529 817 l 528 807 b 529 806 528 807 528 806 b 529 799 533 803 532 800 b 524 792 525 797 524 794 b 521 768 522 783 522 776 b 525 765 519 767 522 765 b 518 756 521 761 518 758 b 515 744 518 751 517 749 b 514 739 515 743 515 742 l 514 733 b 514 731 514 732 513 731 b 514 724 518 728 517 726 l 514 722 b 514 717 515 719 514 718 b 514 699 513 711 510 706 b 514 692 515 697 514 694 b 513 688 514 690 513 689 b 508 679 511 685 513 681 b 503 669 504 676 504 672 b 500 658 503 665 503 661 b 493 644 496 654 493 650 b 497 638 493 642 493 640 b 499 632 501 635 501 633 b 493 625 493 629 493 628 b 492 618 493 622 493 619 b 490 606 492 614 492 610 b 493 603 490 604 492 604 b 493 600 494 601 494 601 b 490 596 490 599 489 597 l 483 594 l 479 594 b 476 593 478 593 476 593 l 474 593 b 461 586 469 590 465 589 b 456 585 460 586 458 586 b 444 581 453 583 449 582 b 433 576 440 579 438 578 l 425 572 b 418 568 422 571 421 571 b 411 565 417 565 414 565 b 401 561 408 561 404 561 l 400 561 b 388 558 396 560 392 558 b 379 557 385 557 382 557 b 371 554 376 556 374 554 b 349 553 364 553 356 553 l 346 553 l 374 610 b 381 624 375 614 379 618 b 388 636 383 628 385 632 b 393 650 390 642 392 646 b 400 663 396 654 397 658 b 410 689 403 674 406 679 b 417 700 413 693 415 696 b 425 719 419 706 422 713 b 432 733 428 724 431 729 b 435 746 433 738 433 742 b 443 764 438 753 442 758 b 454 792 447 772 450 782 b 460 807 456 796 458 801 b 463 822 461 811 461 817 b 465 825 463 824 463 825 b 468 826 467 825 468 826 b 475 839 471 831 474 835 l 479 851 b 483 858 481 854 483 856 b 486 872 485 863 485 868 b 492 883 488 875 490 879 b 497 896 493 888 496 892 b 506 903 497 899 501 901 b 513 904 507 903 510 903 b 510 907 515 904 515 904 b 499 911 507 908 503 910 b 488 915 494 913 490 914 b 451 929 476 921 464 925 b 421 940 440 933 431 936 b 372 957 404 946 389 951 b 357 963 368 958 363 960 b 314 975 343 967 328 971 l 281 983 b 257 989 272 986 264 988 b 247 990 254 989 251 989 b 238 989 242 990 238 990 b 232 985 236 986 235 986 b 231 979 231 983 226 983 b 231 978 232 978 231 978 l 228 972 b 226 971 226 972 226 971 l 219 964 l 219 963 b 221 957 221 960 221 958 b 219 947 221 954 217 951 l 219 943 b 219 933 219 940 218 938 b 217 929 219 932 219 931 b 214 922 215 926 215 925 l 214 918 b 211 910 213 915 213 913 b 207 901 208 907 208 904 b 208 897 206 901 207 899 b 207 889 208 894 207 892 l 207 888 l 206 876 b 204 869 204 874 204 872 l 204 868 b 204 864 208 865 207 864 b 199 860 200 864 199 861 b 192 844 196 856 194 850 b 196 842 192 844 194 843 b 189 838 192 840 190 839 b 185 831 188 835 186 833 b 183 826 185 829 185 828 l 182 824 b 182 821 182 822 181 822 b 182 817 186 818 185 818 b 182 815 181 817 181 817 b 181 813 183 814 181 813 b 179 800 179 808 176 806 b 178 796 181 799 179 797 b 176 793 178 794 178 793 b 172 788 175 792 176 789 b 165 783 168 788 167 785 b 161 776 165 781 164 778 b 153 769 157 775 154 772 b 157 764 153 768 153 767 b 157 760 160 761 160 760 b 150 753 153 760 150 757 b 147 744 149 750 147 747 b 149 743 146 744 147 743 b 149 740 150 742 150 740 b 146 736 144 740 143 739 b 143 731 151 732 147 732 b 142 728 142 731 140 729 b 140 725 143 726 143 725 b 136 722 138 725 138 724 l 132 714 b 132 711 131 713 132 711 b 133 708 132 710 135 708 b 131 704 129 708 129 707 b 131 703 132 703 132 703 b 126 699 128 701 132 699 l 126 697 b 126 694 131 696 128 694 b 122 692 125 693 122 693 b 119 681 125 686 121 685 b 118 676 119 678 119 676 b 113 674 117 675 117 674 b 113 672 111 675 113 674 b 115 668 114 671 115 669 b 113 663 114 667 114 664 b 111 661 111 663 110 663 b 110 656 114 657 111 657 b 108 650 108 654 106 653 b 113 647 110 649 113 647 l 107 647 b 106 644 106 647 104 647 b 100 642 107 642 104 642 b 96 640 97 642 97 640 b 97 636 94 640 93 639 b 99 633 99 635 99 635 b 97 628 96 632 96 631 b 93 622 97 625 94 624 b 92 618 92 621 88 622 b 90 614 92 617 90 615 l 90 611 b 93 601 94 607 94 604 b 89 592 93 599 92 592 b 90 589 89 592 89 590 b 90 585 92 588 92 586 l 90 576 b 88 571 89 575 89 572 b 76 568 81 569 76 568 b 86 565 81 568 83 567 l 85 563 b 83 561 85 561 85 561 b 81 554 79 560 79 558 b 81 546 82 550 81 549 b 75 538 81 543 78 538 l 75 536 b 71 526 74 533 71 531 b 67 518 71 522 65 522 b 64 514 63 518 67 514 b 64 513 63 514 63 513 b 63 510 65 510 64 510 b 61 507 61 508 60 508 b 58 503 63 504 57 506 b 54 501 57 501 56 501 b 49 492 53 499 51 494 b 46 488 47 490 47 489 l 42 483 b 46 481 42 483 43 482 b 42 433 44 465 43 450 b 40 418 42 428 42 422 b 39 372 39 401 39 388 z "},"5":{"ha":803,"x_min":0,"x_max":0,"o":"m 47 572 b 71 561 56 568 63 565 b 78 558 72 561 75 560 l 140 533 b 144 528 142 532 143 529 b 171 492 153 515 163 503 b 193 465 179 483 186 474 b 208 446 199 458 204 451 l 215 439 b 224 433 219 435 222 432 b 229 432 225 433 226 432 b 233 435 232 431 235 429 b 235 436 233 436 235 436 l 254 436 l 254 438 b 258 440 256 439 257 440 b 268 444 263 442 265 440 b 272 446 269 446 271 446 b 283 451 276 447 279 449 b 289 451 285 451 286 453 l 301 451 b 313 453 306 451 310 454 b 322 450 317 451 319 451 b 326 453 324 450 325 451 b 336 453 329 454 333 453 l 344 453 b 354 451 347 453 350 453 b 364 450 357 451 360 451 b 367 451 364 450 365 450 b 374 450 369 454 372 453 b 381 443 375 446 378 444 b 404 436 389 440 397 439 b 408 439 406 435 407 438 b 417 431 411 435 414 432 b 426 425 421 429 424 426 b 432 422 428 424 429 424 l 436 421 b 439 419 438 419 438 418 b 444 418 443 422 444 421 l 447 418 b 451 415 449 418 450 417 b 464 411 456 413 458 410 b 469 408 467 413 468 410 l 471 407 b 474 401 472 406 475 406 b 476 394 472 397 475 396 b 478 389 478 393 479 392 b 479 379 478 385 478 381 b 486 381 481 379 482 379 b 489 379 490 382 490 382 b 488 374 486 375 486 374 b 489 371 489 372 489 371 b 494 365 490 368 492 367 b 496 364 497 365 497 365 b 497 360 494 361 493 360 b 499 356 504 361 501 358 b 499 353 497 354 496 353 b 500 350 501 353 501 351 b 497 347 497 349 497 347 l 497 346 l 496 346 b 494 346 494 346 493 347 l 496 346 b 497 343 496 344 497 344 l 497 342 b 496 340 497 342 497 340 l 494 340 b 493 336 497 336 494 336 b 490 333 492 336 489 336 b 494 328 492 331 493 329 b 489 332 492 329 490 331 b 486 331 488 332 486 332 b 481 331 488 326 485 328 b 476 332 478 332 478 331 b 476 328 475 332 475 332 l 476 325 b 472 321 474 325 472 324 b 465 318 471 318 468 318 b 463 315 464 318 461 322 l 461 315 b 457 313 460 314 458 314 b 454 310 456 313 454 311 b 449 301 454 304 451 303 b 442 297 446 300 444 299 b 435 296 439 297 438 293 b 432 293 433 296 432 294 b 425 288 432 290 426 288 l 417 283 b 408 281 414 282 411 282 b 394 276 404 279 399 278 b 392 278 393 276 393 276 b 379 276 388 279 383 279 b 367 269 375 272 371 271 l 363 269 b 351 269 358 268 354 267 b 349 271 350 271 349 271 b 329 268 342 269 335 271 b 313 268 324 267 318 271 b 303 269 310 271 306 267 b 301 268 303 269 301 269 b 294 268 299 267 296 267 b 290 269 293 269 292 271 b 279 269 286 267 283 272 l 279 271 b 274 272 278 271 276 272 l 244 278 l 236 281 l 233 281 b 221 283 228 281 224 281 b 218 283 219 283 218 285 b 214 282 217 281 215 281 b 208 282 213 283 211 282 b 201 282 207 283 203 279 b 192 282 199 283 194 282 b 186 283 190 282 189 282 b 183 288 185 285 185 288 b 178 288 181 289 179 288 l 174 288 b 171 288 172 286 171 286 b 164 289 169 290 167 290 b 158 290 163 289 160 289 l 126 301 b 113 289 121 303 117 299 b 103 265 108 282 106 275 b 101 258 103 264 101 261 b 90 228 96 249 93 239 b 76 169 85 208 81 189 b 71 144 75 161 74 153 b 68 124 69 138 69 131 l 60 68 b 58 65 60 67 60 65 b 57 50 57 60 57 54 b 65 46 60 49 63 46 b 86 40 72 44 79 43 b 107 33 93 39 100 35 b 140 28 118 31 129 29 b 168 24 150 26 158 25 l 178 24 l 208 18 b 225 15 214 18 219 15 b 264 11 238 15 251 13 b 293 8 274 10 283 7 b 297 8 294 10 296 8 l 364 8 b 369 10 365 10 367 10 b 410 17 382 11 396 14 b 425 19 414 18 419 18 b 461 28 436 21 449 25 b 493 39 471 31 482 35 b 519 50 503 42 511 46 b 539 58 526 53 533 54 b 560 69 546 64 553 68 b 563 71 561 71 561 71 b 590 88 571 78 581 83 b 596 90 592 89 593 90 l 629 113 l 654 133 b 761 347 724 203 756 250 b 757 396 760 368 758 381 b 747 438 754 411 751 425 b 681 554 735 483 711 519 b 661 579 674 563 667 571 b 588 640 638 603 615 621 b 551 660 575 647 564 654 b 521 671 542 665 531 668 b 479 689 507 678 493 683 b 414 708 457 696 435 703 b 329 718 385 715 358 718 b 331 721 329 719 331 721 l 335 731 b 338 739 335 733 338 736 b 340 749 339 742 339 746 l 340 751 b 343 750 342 751 342 751 l 350 750 b 351 753 350 750 351 751 b 353 753 351 754 353 754 b 357 751 354 750 356 749 b 363 751 360 758 361 756 b 365 751 364 750 365 749 b 368 751 367 753 368 754 b 372 747 369 749 371 749 b 383 747 376 747 381 747 b 385 749 383 749 385 750 b 389 749 386 746 388 746 b 390 749 390 750 390 750 b 396 747 392 746 394 751 b 399 747 397 751 399 749 b 403 744 400 747 401 743 b 413 746 406 749 410 746 b 414 746 413 746 414 744 b 417 746 415 747 417 747 b 421 742 418 746 419 746 b 422 743 421 740 421 742 b 425 746 424 743 424 746 b 431 746 426 746 429 747 b 432 746 432 746 432 744 b 438 746 435 750 436 747 b 443 746 439 744 442 743 l 443 753 b 446 746 444 750 444 747 b 449 746 446 744 447 744 b 453 742 450 749 451 746 b 456 739 454 739 454 739 b 458 742 457 738 457 736 b 467 744 463 742 464 743 b 472 743 468 746 469 744 b 476 744 474 742 475 738 l 481 744 b 483 746 482 744 482 744 b 494 753 486 749 490 753 b 500 753 497 751 499 756 b 501 754 500 751 501 751 b 506 757 503 757 504 757 l 508 757 b 513 760 510 758 511 758 l 518 760 b 526 761 521 760 524 761 b 528 760 526 761 528 761 b 535 760 531 757 533 757 b 543 764 538 763 540 764 l 546 764 b 551 763 547 765 550 767 l 553 763 b 564 764 557 764 560 763 b 572 765 567 765 568 761 b 576 764 574 761 575 767 b 578 765 576 763 578 764 b 581 765 579 768 581 767 b 583 765 582 764 583 764 b 589 765 585 767 588 763 l 589 764 b 592 763 590 764 590 763 l 601 763 b 607 761 603 761 606 761 l 611 761 l 613 760 b 619 761 614 761 617 761 b 622 763 621 764 621 763 l 624 763 b 628 765 625 763 626 767 b 632 767 629 764 631 767 l 635 767 b 636 763 635 765 636 764 b 639 764 638 763 638 764 l 642 767 b 644 765 643 763 644 764 b 647 765 646 767 647 767 b 664 763 651 765 660 764 b 668 778 665 763 667 767 b 671 803 669 786 669 794 l 671 810 b 674 843 672 821 672 832 b 675 903 674 863 674 883 l 675 950 b 674 1006 675 968 675 988 b 675 1008 674 1007 675 1007 b 674 1024 675 1014 675 1018 b 671 1025 672 1024 672 1025 l 663 1025 b 654 1028 660 1025 657 1028 b 631 1024 647 1028 636 1026 l 626 1024 b 615 1022 622 1022 619 1022 b 608 1024 613 1022 611 1025 b 594 1024 604 1022 600 1024 b 585 1024 592 1024 588 1028 b 583 1025 583 1024 583 1025 l 564 1025 b 561 1024 563 1025 561 1024 b 558 1024 560 1024 560 1025 b 544 1021 554 1024 550 1022 b 540 1019 543 1021 542 1021 b 528 1018 536 1019 532 1018 b 517 1015 524 1017 519 1017 b 507 1013 513 1014 510 1013 b 500 1010 504 1011 503 1011 b 493 1007 497 1007 494 1007 l 492 1007 b 482 1006 489 1004 485 1004 l 481 1006 b 468 1004 476 1004 472 1004 l 458 1004 b 451 1003 457 1004 454 1003 b 428 1006 444 1003 436 1004 b 399 1008 418 1007 408 1007 b 386 1011 394 1010 390 1011 b 374 1013 382 1013 378 1013 b 363 1014 369 1014 367 1014 b 351 1015 358 1015 354 1015 l 336 1015 b 328 1018 333 1015 331 1017 b 318 1021 325 1018 322 1019 b 301 1024 313 1022 307 1022 b 289 1025 297 1024 293 1025 b 278 1025 285 1026 281 1024 b 263 1028 272 1025 267 1026 b 238 1029 254 1028 246 1029 b 224 1031 233 1029 229 1031 b 211 1028 219 1031 215 1029 b 207 1031 210 1028 208 1028 b 206 1033 207 1032 207 1033 b 194 1036 201 1035 199 1036 l 183 1036 b 176 1039 181 1038 179 1039 b 165 1038 172 1039 169 1036 b 154 1039 161 1038 158 1039 b 143 1040 151 1040 147 1040 b 135 1047 140 1040 138 1043 b 133 1053 133 1049 133 1051 b 131 1050 132 1056 131 1056 b 129 1038 131 1046 129 1042 l 129 1026 b 126 988 128 1014 126 1000 b 125 957 125 978 125 967 l 124 957 b 124 954 124 957 124 956 l 124 926 b 122 922 122 925 122 924 l 122 919 b 118 914 119 918 121 915 b 119 911 118 914 119 913 b 121 906 121 910 121 907 l 119 904 l 119 892 l 121 890 l 122 890 l 122 888 l 121 888 b 115 886 117 888 115 886 b 111 875 114 882 113 879 b 115 872 111 875 114 874 b 110 869 113 872 110 871 b 106 864 108 868 107 867 l 104 861 b 104 860 104 861 103 860 b 106 857 108 857 107 857 b 106 856 104 857 104 856 b 104 853 107 854 104 854 b 104 844 103 850 101 849 b 104 842 107 843 104 843 b 100 836 103 839 103 836 b 94 833 96 836 94 835 b 90 829 93 832 93 831 b 83 825 86 828 83 826 b 89 819 83 824 85 822 b 89 817 92 818 92 817 b 85 815 85 818 83 817 b 83 813 85 814 83 813 b 82 807 82 810 82 808 b 83 806 81 807 82 806 b 83 804 85 804 85 804 b 82 801 81 804 79 803 b 81 797 88 797 85 797 b 79 794 78 797 76 796 b 79 793 81 793 82 793 b 75 792 75 793 75 792 b 72 785 74 789 72 788 b 74 783 71 785 72 783 b 74 781 74 782 75 781 b 74 778 71 781 71 781 l 74 776 b 69 774 69 776 75 774 b 69 771 74 772 71 772 b 67 769 68 771 65 771 b 65 761 69 765 67 764 b 65 758 67 760 67 758 b 61 756 64 757 65 757 b 64 753 61 754 64 753 b 63 749 64 751 64 749 l 61 747 b 61 743 65 744 63 744 b 61 739 60 742 58 742 b 67 738 64 738 65 738 l 60 738 b 60 735 58 738 58 736 b 54 733 61 733 58 732 b 51 732 51 733 51 732 b 53 729 50 732 49 731 b 54 728 54 728 56 728 b 54 722 53 726 53 725 b 53 718 56 721 54 719 b 53 715 51 718 47 718 b 51 713 53 714 51 713 b 53 710 51 711 51 711 b 57 703 57 707 57 706 l 57 700 b 56 696 57 699 60 696 b 60 692 60 693 60 692 b 60 689 58 690 60 690 l 60 674 l 58 674 b 57 668 54 672 54 671 b 60 661 60 665 60 664 l 60 660 b 57 656 60 658 61 656 b 56 647 56 653 54 650 b 56 640 57 644 53 644 b 53 638 51 640 56 638 l 53 636 b 53 635 56 635 54 635 b 53 633 51 635 51 633 b 51 629 54 631 49 631 b 49 628 50 629 49 628 b 46 621 47 625 47 624 b 44 618 46 619 44 619 l 42 614 b 40 610 43 613 43 611 l 42 610 b 43 607 44 608 43 607 b 43 606 42 607 43 606 b 44 603 43 604 46 603 b 44 599 42 601 44 600 l 44 597 l 40 597 l 40 596 b 42 593 42 594 42 594 b 40 590 39 593 40 592 b 40 589 42 590 42 589 b 38 586 40 588 39 586 b 35 581 36 583 36 582 b 47 572 35 579 38 576 z m 499 347 l 499 346 b 497 347 497 346 497 346 z m 501 349 l 501 347 l 500 347 z "},"6":{"ha":878,"x_min":0,"x_max":0,"o":"m 43 340 b 50 260 43 314 43 285 b 63 239 51 251 56 244 b 69 222 67 235 69 229 b 75 197 68 214 71 206 b 86 175 79 190 82 182 b 108 138 92 163 100 150 b 114 132 110 135 111 133 b 121 125 118 131 119 128 b 135 104 122 117 128 107 b 160 78 149 99 154 88 b 175 63 164 71 168 65 b 186 53 181 61 185 58 b 254 6 199 36 236 15 b 268 1 258 3 264 3 b 278 -1 271 0 275 1 b 306 -11 286 -8 296 -11 b 314 -12 308 -11 311 -11 b 344 -22 324 -18 336 -15 l 349 -22 b 371 -25 356 -19 364 -24 b 394 -29 379 -26 388 -31 b 463 -22 418 -25 440 -26 b 469 -21 465 -22 468 -22 b 492 -15 476 -18 483 -17 b 513 -14 499 -14 504 -11 b 522 -10 515 -14 519 -11 b 535 -1 526 -7 531 -3 b 568 14 546 4 557 10 b 578 18 572 15 576 15 b 604 35 585 26 594 29 b 629 51 613 39 622 43 b 628 58 628 54 628 57 b 640 61 633 60 636 60 b 654 71 646 63 650 65 b 676 86 660 79 668 83 b 689 94 682 88 686 92 b 699 107 694 97 699 100 b 703 114 699 110 700 113 b 722 139 711 121 717 131 b 740 161 726 147 735 154 b 751 176 744 165 753 168 b 753 179 751 178 751 178 b 764 194 757 185 760 189 b 768 204 765 197 767 201 b 779 232 769 215 774 224 l 783 242 b 790 251 785 244 788 249 b 801 274 794 258 796 267 b 806 283 804 275 806 281 b 811 300 806 290 808 294 b 815 314 813 304 814 310 b 833 383 822 331 832 367 b 832 454 836 404 836 429 b 831 469 832 460 831 465 b 753 583 825 519 792 554 b 735 596 747 588 740 592 b 714 607 728 600 721 603 b 694 618 707 610 700 614 b 685 622 692 619 688 621 b 621 636 663 629 642 635 b 576 638 606 636 590 642 l 574 638 b 550 640 567 642 558 636 b 544 639 549 640 547 640 b 529 638 540 636 535 636 b 518 638 526 639 522 639 b 493 635 510 635 501 639 l 492 636 l 479 636 b 456 633 471 635 463 633 l 432 629 b 407 624 424 628 415 625 b 393 621 403 622 397 622 l 432 674 b 440 681 433 676 436 679 b 446 683 443 681 444 682 l 475 711 b 503 739 485 719 493 729 b 522 754 510 744 517 749 b 550 783 532 764 540 774 b 582 808 560 792 571 800 b 615 836 593 817 604 826 b 644 853 624 843 633 849 b 654 854 647 854 651 854 b 658 861 660 854 661 856 b 651 872 657 865 654 868 b 646 881 650 875 647 878 b 624 914 640 893 632 903 b 603 940 617 922 610 931 b 571 979 593 953 582 965 b 560 990 568 982 563 986 b 526 1021 550 1003 538 1011 l 497 1042 b 475 1054 490 1046 482 1051 b 463 1056 471 1054 467 1054 b 446 1054 456 1058 450 1057 b 431 1046 442 1050 436 1047 b 417 1032 425 1043 418 1040 b 413 1029 417 1031 414 1031 l 396 1017 b 390 1013 394 1015 392 1014 l 365 996 b 363 992 365 996 364 993 b 353 979 360 988 357 983 b 329 957 344 972 336 967 b 321 946 328 953 324 950 b 288 910 317 942 292 911 l 267 889 b 258 879 263 886 261 882 b 235 853 250 871 243 861 b 207 818 225 843 214 831 b 189 792 201 808 194 800 l 183 785 b 161 747 176 772 168 760 l 149 725 b 147 721 147 724 147 722 b 138 706 147 714 143 708 b 124 689 131 701 128 694 b 108 660 118 679 114 669 b 94 629 104 649 99 639 b 96 619 93 625 94 624 b 81 596 89 613 85 604 b 69 568 76 586 74 576 l 60 536 b 58 526 60 533 57 529 b 56 508 61 519 60 514 b 54 503 54 507 54 504 b 51 486 56 497 53 492 l 47 461 b 49 436 47 453 47 444 b 47 413 50 429 47 421 b 46 400 47 408 47 404 b 44 372 46 390 47 381 b 43 340 40 361 42 351 z m 313 315 b 318 311 314 314 317 313 l 319 310 b 332 299 324 306 326 301 b 340 304 335 300 338 301 b 358 317 346 308 351 313 b 379 328 364 321 372 324 b 394 336 383 331 389 333 b 410 344 399 340 404 342 b 422 351 414 347 418 350 b 436 357 426 354 432 356 b 444 363 439 358 442 361 b 476 371 456 365 465 369 b 493 374 482 372 488 372 b 532 379 506 378 519 378 b 561 379 542 379 551 376 l 564 379 b 547 346 561 369 554 354 b 546 343 546 344 546 344 b 529 315 542 332 536 324 b 526 311 528 314 526 313 b 504 285 519 301 511 293 l 488 268 b 474 256 482 264 479 260 b 426 236 458 246 442 239 b 400 233 417 233 408 233 b 378 239 392 235 385 236 b 358 250 371 242 365 246 b 329 283 346 260 338 271 b 313 315 322 292 315 306 z m 204 42 l 204 40 l 203 42 z "},"7":{"ha":775,"x_min":0,"x_max":0,"o":"m 46 940 b 47 890 46 924 46 907 l 47 874 b 51 829 49 858 50 844 b 58 771 51 818 54 781 b 60 761 58 768 60 765 b 64 753 61 756 63 753 b 69 749 65 753 68 750 b 74 750 71 747 72 744 b 81 749 78 750 79 750 l 83 749 b 92 746 86 747 88 746 b 96 749 93 746 94 747 b 104 750 99 749 101 746 b 108 751 106 751 107 751 b 117 754 111 753 114 751 b 121 754 118 756 119 757 l 131 754 b 139 756 133 754 136 756 b 147 754 142 754 144 756 b 150 757 149 753 149 756 b 158 758 153 758 156 758 l 160 758 b 169 761 163 760 167 761 b 176 764 172 763 174 763 b 181 764 178 768 179 767 b 186 760 182 761 185 761 b 201 760 190 760 196 761 b 203 765 201 760 201 763 b 215 758 204 760 210 758 l 222 758 b 225 760 224 758 225 757 b 229 761 226 764 228 763 b 231 761 229 760 229 760 b 233 761 231 763 232 761 b 244 764 238 761 240 760 b 249 764 246 767 247 764 b 251 764 250 765 250 764 b 257 763 254 764 256 765 b 264 758 260 758 261 758 b 271 756 267 758 269 758 b 281 750 274 751 276 750 b 285 757 282 751 283 753 b 288 758 285 760 286 761 b 293 754 289 754 290 754 l 304 754 b 306 757 306 754 306 756 b 308 757 307 758 307 758 b 313 757 310 754 311 753 b 318 757 314 763 317 760 b 322 756 319 754 321 754 b 325 757 322 758 324 758 b 328 754 326 754 326 754 b 339 753 332 753 335 753 l 340 754 b 342 756 342 756 342 757 b 347 756 344 753 346 753 b 349 757 347 757 349 757 b 354 754 350 754 351 760 b 358 756 356 758 357 756 b 357 753 357 754 357 754 b 356 749 358 751 356 750 b 350 731 353 743 349 738 b 347 724 351 728 349 725 b 344 719 347 722 346 721 b 339 711 343 717 343 713 b 331 703 333 710 332 707 b 324 693 329 700 328 696 b 313 682 318 690 314 688 b 315 674 311 679 311 676 b 314 668 317 669 317 668 b 307 661 308 667 307 664 b 303 656 306 660 304 657 b 297 643 301 651 300 647 b 299 640 297 642 297 642 b 299 638 300 639 300 638 b 294 631 294 636 292 635 b 290 621 299 625 294 622 b 288 617 288 621 286 619 b 286 613 289 614 289 613 b 281 608 282 611 281 610 b 272 593 278 603 275 597 b 272 589 271 592 272 590 b 272 586 272 588 274 586 b 268 578 268 585 267 582 b 268 576 269 578 269 576 b 263 568 264 575 268 569 b 260 563 265 565 261 564 b 256 558 258 561 256 560 b 249 540 257 550 251 546 b 246 532 249 536 249 533 b 240 529 244 531 244 529 b 239 525 239 529 239 526 b 240 521 240 524 242 522 b 236 510 240 517 239 513 b 235 507 235 510 233 508 b 232 499 238 503 233 501 b 228 490 229 496 226 493 b 233 486 231 488 232 488 l 226 486 b 224 481 224 485 224 483 b 217 474 225 476 221 475 b 211 471 214 474 213 472 b 213 465 210 469 208 468 b 213 461 214 464 214 463 b 210 451 210 458 210 456 b 204 442 210 447 207 444 b 203 435 203 440 197 440 b 199 428 201 432 200 429 b 199 422 199 426 197 425 b 200 410 201 417 201 413 b 196 400 199 407 199 403 b 193 393 194 399 197 394 b 193 389 192 392 192 390 b 193 382 194 386 194 385 b 192 378 193 381 193 379 b 190 368 192 375 192 371 l 186 360 b 181 343 185 354 183 350 b 175 331 175 340 174 336 b 174 317 176 325 175 321 b 172 313 174 315 172 314 b 167 303 171 308 171 304 b 165 300 165 303 165 301 b 158 282 164 294 160 289 b 154 268 158 278 153 275 b 150 258 150 267 153 261 b 147 253 151 256 150 254 b 146 249 146 251 144 250 b 142 240 146 244 140 244 l 142 239 b 138 236 140 238 139 238 b 131 219 135 231 132 225 b 125 211 129 217 126 214 b 122 204 125 208 124 207 b 121 201 121 203 121 203 b 115 192 121 199 118 194 l 115 190 b 117 186 118 188 117 186 b 115 182 115 185 115 183 b 114 175 114 179 117 176 b 113 168 113 174 114 169 b 111 163 113 165 113 164 b 106 161 110 163 107 163 l 106 150 b 103 146 101 150 101 149 b 100 140 103 144 101 142 b 94 132 99 138 96 135 b 88 117 92 126 89 121 b 97 103 85 113 89 108 b 119 90 104 99 111 94 b 126 88 122 90 124 89 b 156 72 135 82 146 78 b 235 40 181 61 208 49 b 254 33 242 38 249 35 b 310 14 272 26 290 21 b 325 10 315 11 319 10 l 329 14 b 335 28 331 19 332 24 b 343 42 338 33 340 38 b 351 64 346 49 349 57 b 357 82 353 69 356 76 b 358 89 357 85 357 86 b 367 108 361 94 364 101 b 371 118 368 111 371 114 b 382 140 374 126 378 133 b 389 158 385 146 389 151 b 390 161 389 160 390 160 b 401 186 393 168 397 179 b 404 193 401 188 403 190 b 406 199 404 194 406 196 b 407 201 407 199 407 200 b 414 225 410 210 411 218 b 417 235 415 229 417 232 b 424 256 419 242 421 249 b 429 275 425 263 428 269 l 433 292 b 435 304 433 296 436 300 b 439 317 435 308 436 314 l 439 318 b 444 336 439 325 442 331 l 444 339 l 453 360 b 460 375 454 364 457 369 b 463 388 461 379 461 383 b 482 425 469 400 475 413 b 507 474 490 442 499 458 b 518 494 511 481 514 488 b 528 513 522 500 525 507 b 538 533 532 519 535 526 b 547 551 542 539 544 544 b 557 575 550 558 553 567 b 565 589 558 579 563 583 b 575 603 568 593 572 597 b 590 631 581 613 585 622 b 601 651 593 638 597 644 b 607 669 604 658 604 664 b 621 696 611 679 617 686 b 651 757 632 715 643 736 b 658 781 654 765 657 772 b 663 785 660 782 660 785 b 667 786 665 785 665 786 b 678 806 671 793 675 799 b 686 824 681 811 683 817 b 693 833 688 826 692 831 b 699 853 696 840 696 847 b 708 871 701 860 706 864 b 718 889 713 876 715 882 b 731 900 721 894 725 897 b 738 901 732 901 735 901 b 736 907 740 903 740 904 b 725 913 733 908 729 911 b 715 918 722 914 718 915 b 681 936 704 925 693 931 b 650 950 671 940 661 944 l 642 954 l 642 957 b 640 978 640 964 640 971 b 635 1033 638 997 636 1015 l 635 1036 b 633 1051 635 1042 633 1047 b 629 1053 632 1053 631 1053 l 619 1053 b 611 1054 617 1053 614 1054 b 597 1051 606 1054 601 1053 b 586 1049 593 1051 589 1050 b 569 1046 582 1049 574 1047 b 563 1047 567 1046 565 1047 b 547 1046 558 1046 553 1046 b 536 1046 544 1046 540 1049 b 526 1044 532 1046 529 1046 l 514 1044 b 511 1043 513 1044 511 1044 l 508 1043 b 494 1039 504 1042 499 1040 b 489 1038 492 1039 490 1039 b 475 1035 483 1036 479 1036 b 464 1031 471 1033 468 1032 b 447 1025 461 1031 449 1026 b 439 1022 444 1022 442 1021 l 438 1022 b 426 1018 435 1018 431 1018 l 425 1018 b 413 1017 421 1018 417 1017 b 403 1015 410 1015 406 1017 b 394 1014 400 1015 397 1014 l 369 1014 b 336 1015 358 1015 347 1015 b 324 1018 332 1017 328 1017 l 297 1018 b 269 1018 288 1018 279 1018 b 260 1019 267 1017 264 1018 b 250 1022 257 1019 253 1021 b 231 1024 243 1022 238 1022 l 217 1024 b 189 1024 207 1024 199 1024 l 163 1024 b 147 1024 157 1024 153 1025 b 133 1021 143 1024 138 1022 b 128 1025 132 1021 131 1021 b 115 1028 124 1026 119 1028 b 103 1028 111 1028 107 1026 b 96 1029 100 1028 97 1029 b 83 1026 92 1028 88 1026 b 72 1028 79 1026 75 1028 l 60 1028 b 47 1040 54 1028 47 1035 b 44 1036 46 1043 44 1042 l 44 974 b 46 940 46 963 46 951 z "},"8":{"ha":856,"x_min":0,"x_max":0,"o":"m 49 224 b 54 196 51 215 51 206 b 58 181 56 192 57 186 b 68 149 61 169 67 158 b 86 113 71 135 78 124 b 142 47 100 90 121 64 b 163 42 149 43 154 40 b 178 35 168 42 174 40 b 196 21 182 26 189 24 b 215 13 203 18 208 15 b 232 7 221 11 226 10 l 249 3 b 256 4 251 3 253 3 b 263 3 258 6 260 6 b 279 0 268 -1 275 -3 b 304 -3 290 4 297 0 b 318 -4 310 -6 314 -7 b 328 -6 321 -3 324 -3 b 340 -8 332 -8 336 -8 l 376 -8 b 383 -6 379 -8 381 -7 b 389 -4 385 -6 388 -3 b 404 -1 394 -7 400 -6 l 408 -1 b 424 -1 414 -3 418 3 l 425 -1 b 436 1 428 3 432 1 b 447 0 440 1 444 -1 b 481 8 458 7 469 6 b 485 10 482 10 483 8 b 496 13 489 13 492 13 b 508 13 500 14 503 15 b 514 14 510 11 513 13 b 521 19 517 15 518 18 b 542 26 526 22 533 25 b 547 28 543 26 546 26 b 564 35 551 33 558 33 b 582 42 571 36 578 38 l 582 49 b 590 46 585 47 588 46 b 600 50 594 46 597 47 b 619 54 606 56 613 56 b 629 57 624 54 626 56 b 638 64 633 58 638 58 b 642 69 639 67 640 68 b 661 83 650 72 656 78 b 682 96 667 89 675 92 b 694 106 686 99 693 97 b 696 108 694 107 696 107 b 708 118 700 111 704 115 b 715 126 711 121 714 124 b 731 151 718 136 725 143 b 744 168 736 157 740 163 b 757 185 749 174 751 181 b 761 193 760 186 761 189 b 765 204 761 197 764 201 b 771 215 768 208 769 211 b 779 235 774 221 776 228 b 789 257 783 242 786 249 b 800 290 793 267 797 279 b 803 297 800 293 801 296 b 810 329 808 307 811 319 b 808 364 808 342 810 351 l 808 375 b 808 404 808 385 806 394 b 808 411 810 407 808 410 b 796 463 806 428 803 446 b 779 497 789 474 788 488 b 778 500 778 499 778 499 b 768 519 778 508 769 513 b 764 524 768 522 765 524 b 756 536 760 526 757 531 b 750 544 754 539 753 542 b 735 561 743 549 742 558 l 735 563 b 707 592 728 574 718 583 b 710 597 708 593 708 596 b 719 625 713 606 717 615 b 722 635 721 628 721 632 b 732 667 725 646 729 656 b 738 685 733 674 738 679 b 746 728 740 699 744 714 b 750 763 749 739 753 750 l 750 767 b 750 793 751 775 750 785 b 749 821 750 803 749 811 l 746 835 b 744 846 746 839 744 843 b 743 853 743 849 743 850 b 726 897 739 868 732 883 b 719 914 724 903 722 908 b 697 951 713 928 706 940 b 686 968 693 957 689 963 b 672 983 682 974 678 979 b 649 1007 665 992 657 1000 b 629 1021 643 1013 636 1018 b 604 1039 621 1025 614 1031 b 571 1056 592 1043 582 1049 b 565 1058 569 1057 567 1057 b 526 1072 553 1064 539 1068 b 496 1081 515 1075 506 1078 b 471 1082 488 1082 479 1082 b 396 1085 444 1086 419 1086 b 300 1063 363 1082 331 1074 b 264 1046 288 1057 275 1051 b 247 1036 258 1043 253 1040 l 231 1026 l 200 1001 b 174 975 190 993 182 985 b 160 957 168 969 164 963 b 146 938 156 950 150 943 b 129 911 140 928 135 919 b 90 776 108 874 90 821 b 93 740 89 764 92 751 b 160 567 97 678 121 617 b 167 560 163 564 164 561 b 153 544 163 554 158 550 b 150 536 151 543 151 539 b 138 515 147 529 142 522 l 135 510 b 119 481 129 500 124 490 b 111 465 117 475 114 471 b 111 461 110 464 110 463 b 104 449 113 456 110 451 b 94 438 99 446 96 442 b 75 393 86 422 81 408 b 76 386 74 390 75 389 b 65 369 71 381 67 375 l 57 349 b 54 338 56 344 54 340 b 50 324 53 332 51 329 b 49 315 50 321 47 318 b 47 300 51 310 50 304 b 46 294 46 299 46 296 b 44 278 47 289 46 283 b 49 224 43 261 42 243 z m 308 261 b 311 278 310 265 308 271 b 317 292 313 282 315 288 b 324 306 319 296 321 301 b 346 347 331 319 336 333 b 361 369 350 356 356 363 b 375 393 365 378 369 386 b 381 397 375 396 376 397 b 383 399 382 397 383 397 b 401 414 390 403 396 408 b 417 428 407 418 411 424 b 424 425 418 426 421 426 b 431 419 426 424 428 421 b 439 422 435 417 438 417 b 440 435 439 426 440 431 l 440 439 b 454 435 444 438 450 436 b 471 426 460 432 465 428 b 494 417 479 422 488 419 l 511 411 b 517 410 513 410 515 410 l 529 401 b 535 396 532 399 532 397 b 543 388 539 393 542 389 b 547 382 544 385 543 382 l 546 382 b 547 381 547 382 547 381 l 549 381 b 553 372 550 378 551 375 b 551 368 553 371 551 369 b 551 363 551 367 553 364 l 551 357 l 547 344 b 544 335 547 342 546 338 b 542 326 543 332 542 329 b 536 318 540 322 539 319 l 535 317 b 525 306 533 311 529 308 b 522 304 524 306 524 304 b 507 292 518 300 513 296 b 492 285 501 289 497 288 b 479 278 488 282 483 279 b 435 264 465 272 450 268 b 368 256 414 260 390 257 l 344 256 b 325 257 338 256 331 257 b 308 261 319 258 314 258 z m 353 786 l 353 788 b 357 790 354 789 353 790 b 361 792 361 789 361 790 b 372 794 363 792 372 794 b 368 800 372 794 372 797 b 369 803 365 803 365 804 b 374 801 372 800 374 801 b 376 804 374 803 375 803 b 379 807 376 806 378 806 l 379 810 b 379 811 378 811 378 811 b 382 813 382 810 383 810 b 385 815 379 818 382 817 b 388 815 388 814 389 814 b 389 817 388 818 388 819 b 393 815 392 815 392 815 b 400 818 394 817 397 817 l 400 821 b 401 822 400 821 400 824 b 404 824 403 819 404 821 b 408 824 407 822 406 828 b 411 825 408 828 410 825 b 414 824 413 825 414 821 b 421 826 415 828 418 825 b 424 826 422 828 422 828 b 426 824 425 826 425 828 b 428 824 426 822 426 824 b 429 828 428 825 428 826 b 432 828 431 828 432 829 b 433 826 433 826 433 825 b 438 828 435 832 436 829 b 440 828 438 826 439 825 b 442 833 440 831 442 832 l 442 828 b 443 828 442 826 442 825 b 444 822 444 829 444 826 b 444 819 443 821 444 821 b 446 822 444 818 444 818 b 447 824 446 824 447 825 b 449 825 447 822 447 824 b 449 824 450 826 450 824 b 450 824 449 822 447 818 l 451 824 l 453 825 b 458 828 456 828 457 828 l 460 828 b 461 826 460 826 463 828 b 464 826 461 825 463 825 b 467 826 465 828 467 828 l 468 826 b 472 825 469 826 471 825 b 474 822 472 824 474 822 b 478 815 475 821 476 819 b 481 810 476 813 476 811 b 488 804 483 810 485 808 b 488 799 489 803 490 800 b 488 797 486 797 488 797 l 488 793 b 489 788 488 790 489 789 b 492 781 492 786 488 783 b 489 775 488 779 493 776 l 490 774 b 490 769 493 772 492 771 b 490 768 489 769 489 768 b 489 761 492 765 486 764 b 486 758 488 760 486 760 b 483 746 485 754 485 750 l 478 735 l 478 733 b 474 725 478 729 476 726 l 474 724 b 475 719 476 721 476 721 b 474 717 474 719 475 717 b 474 710 474 714 476 711 b 472 707 474 710 472 708 l 461 701 b 453 699 461 701 457 699 l 442 699 l 431 707 l 428 707 b 425 711 426 707 426 710 b 421 711 424 713 424 717 b 417 713 421 711 417 713 l 415 714 b 410 718 414 715 413 718 l 406 718 b 400 718 403 718 403 721 l 396 718 b 389 719 394 718 392 719 b 386 721 388 718 386 718 l 383 725 l 381 725 b 376 729 379 726 376 726 b 374 733 375 731 374 731 b 371 733 374 735 371 733 b 365 735 368 733 367 735 l 365 736 b 360 739 364 738 361 738 b 356 742 358 740 358 742 b 354 744 351 742 351 743 b 357 749 357 747 357 747 b 354 758 357 751 356 754 l 350 758 b 356 767 353 760 356 764 l 356 771 b 356 772 356 772 357 772 b 354 775 351 774 351 774 b 354 778 353 776 354 776 b 351 783 354 779 356 781 b 353 786 350 785 351 786 z m 390 819 l 392 819 l 392 818 z "},"9":{"ha":843,"x_min":0,"x_max":0,"o":"m 44 658 b 46 651 46 656 46 654 b 47 625 43 643 50 635 b 53 606 53 618 53 613 b 57 588 54 600 54 593 b 82 540 67 572 72 554 b 85 536 83 539 83 536 b 96 522 90 532 93 528 b 103 508 99 518 101 515 b 108 503 103 506 106 504 b 117 497 111 500 115 500 b 136 479 124 492 131 486 b 142 474 139 478 140 474 b 158 463 150 474 154 467 b 176 451 164 457 169 453 b 182 454 179 453 181 454 b 194 440 182 447 188 440 b 208 428 201 439 206 435 b 217 421 211 424 214 424 b 226 419 219 419 222 417 b 232 419 228 421 231 421 b 253 413 239 415 246 414 b 272 406 260 413 265 408 b 286 403 276 404 279 397 l 288 403 b 301 399 292 401 297 400 b 310 400 304 399 307 399 b 333 401 318 403 325 403 b 350 400 339 401 344 401 b 365 399 356 400 361 403 b 372 400 368 399 371 399 b 383 403 376 403 379 403 b 392 404 386 403 389 403 b 408 406 397 404 403 406 b 426 407 414 407 421 407 b 453 413 435 408 444 411 l 458 413 b 482 417 467 411 475 413 b 496 425 486 421 492 422 b 497 422 497 424 497 424 b 493 415 496 419 496 417 b 492 413 493 414 492 414 b 490 406 496 408 492 408 b 488 399 489 404 486 403 b 493 396 490 397 492 397 l 486 396 b 485 393 485 396 483 394 b 478 389 486 389 482 388 b 474 386 475 389 474 388 b 474 382 472 386 471 385 b 475 379 475 381 475 379 b 471 371 472 376 471 374 b 467 364 472 368 468 367 b 464 360 465 363 460 364 b 461 354 463 357 463 356 b 461 350 461 353 460 351 b 461 339 464 344 463 342 b 457 332 460 336 460 333 b 453 326 456 331 457 326 b 453 324 453 326 451 325 b 453 318 454 321 453 319 b 451 314 451 317 451 315 b 449 307 450 313 450 310 l 443 301 l 438 290 b 435 289 438 290 436 289 b 428 282 431 289 428 286 b 424 271 428 276 426 274 b 422 268 424 269 422 268 b 415 263 421 265 419 261 b 413 261 414 263 414 261 b 403 249 410 257 406 254 b 394 240 401 244 396 244 l 394 239 b 389 236 390 240 392 235 b 388 233 388 236 388 235 b 385 231 388 231 386 231 b 382 228 383 231 382 229 b 375 224 381 225 375 228 b 371 222 374 224 372 224 l 347 207 b 344 206 346 207 344 207 b 336 200 343 203 340 201 b 335 197 338 196 336 197 b 332 194 333 196 333 194 b 329 189 331 193 332 189 b 325 185 326 190 326 186 b 317 185 322 185 319 185 b 314 182 315 185 315 183 b 311 178 314 181 314 181 b 307 176 308 181 308 178 b 304 174 307 175 306 175 b 294 172 301 174 297 172 b 282 167 290 171 286 168 b 282 150 279 165 279 161 b 290 126 285 143 286 135 b 293 119 292 124 292 122 b 304 89 296 110 300 99 b 340 11 314 64 326 35 b 350 -8 343 4 346 -1 b 378 -57 358 -25 368 -40 l 378 -60 l 386 -72 b 396 -69 390 -72 393 -71 b 413 -61 401 -68 407 -64 b 432 -54 419 -58 426 -57 b 458 -37 440 -49 450 -44 b 478 -24 464 -33 471 -28 l 483 -18 b 506 -3 490 -12 499 -7 b 517 6 510 0 514 1 b 543 25 525 13 535 18 b 561 40 549 31 557 33 b 564 43 561 42 563 42 b 576 54 568 46 572 50 l 601 79 b 604 82 603 79 603 81 l 622 107 b 631 117 625 111 628 114 l 658 161 b 668 181 663 168 665 174 b 675 194 671 185 674 189 b 683 211 676 200 678 206 b 693 232 685 218 688 225 b 694 235 693 232 693 233 b 706 258 697 243 703 250 b 715 276 708 264 713 271 b 721 293 717 282 718 288 b 743 339 728 308 736 324 b 767 404 751 360 758 382 l 775 431 b 781 456 778 439 779 447 b 790 507 783 464 790 499 b 793 536 792 517 792 526 b 796 556 793 543 794 550 l 800 576 b 803 614 801 589 801 601 b 804 642 803 624 804 632 b 801 664 804 649 801 656 b 801 696 801 674 803 685 b 799 746 801 713 800 729 b 796 774 797 754 797 764 b 790 800 794 782 792 790 b 792 806 789 801 789 803 b 793 810 793 807 793 808 b 792 833 793 817 793 825 b 789 854 792 840 790 847 l 789 868 b 781 910 786 882 783 896 b 778 931 781 917 779 924 b 782 949 776 936 779 942 b 786 953 782 950 785 951 b 783 957 789 956 788 957 b 769 956 779 957 774 956 b 760 954 767 954 763 954 b 721 949 746 953 733 951 b 688 943 710 947 699 944 l 683 943 b 685 958 683 947 683 953 b 686 1003 686 974 686 989 b 683 1039 685 1015 685 1026 b 679 1063 682 1047 682 1056 b 674 1072 678 1067 675 1069 b 664 1082 672 1079 668 1082 b 653 1086 660 1083 657 1085 b 639 1086 649 1089 643 1092 b 636 1086 638 1085 636 1086 b 615 1089 633 1086 617 1088 b 596 1092 608 1090 603 1092 b 592 1090 594 1092 593 1092 b 581 1088 589 1090 585 1088 b 558 1085 574 1086 567 1089 b 550 1082 556 1083 553 1083 b 528 1076 543 1081 535 1081 b 518 1075 525 1075 522 1074 l 517 1075 b 499 1074 511 1075 504 1074 b 490 1071 496 1072 493 1072 b 469 1065 483 1069 476 1067 b 449 1063 463 1065 456 1063 b 442 1058 446 1063 443 1058 b 424 1050 436 1054 429 1053 b 418 1049 421 1050 419 1050 l 394 1038 b 381 1032 389 1036 385 1035 b 378 1029 379 1032 378 1031 b 368 1025 376 1025 372 1024 b 354 1025 363 1028 358 1026 b 319 1008 343 1019 331 1014 b 317 1003 317 1007 317 1006 b 300 1000 310 1003 304 1001 l 283 992 b 276 988 281 990 279 989 l 268 983 b 263 979 265 982 263 982 b 256 974 263 975 260 974 b 253 971 254 974 253 972 b 244 967 251 968 247 968 b 224 949 236 961 228 957 b 214 940 221 944 217 943 b 207 936 211 939 210 938 b 194 929 203 933 200 929 b 178 921 188 929 183 925 b 163 911 174 918 168 913 b 135 883 150 907 135 897 b 129 874 136 878 133 875 b 115 864 122 874 118 869 b 106 853 113 861 108 857 b 90 831 100 846 94 838 b 89 824 89 828 89 826 b 86 818 90 821 89 819 b 78 804 81 815 76 810 b 67 782 79 793 74 788 b 61 768 63 778 61 774 b 58 758 63 764 61 761 b 51 744 54 754 53 749 b 42 700 47 729 43 715 b 43 689 42 696 43 693 b 44 682 43 686 46 683 b 44 658 40 674 42 665 z m 303 678 l 307 678 b 308 682 307 679 307 681 b 313 688 310 683 311 685 b 319 696 314 690 317 693 b 343 718 326 706 332 713 b 357 726 347 721 353 724 l 382 743 b 401 754 389 747 396 750 b 417 764 407 757 411 761 b 442 775 425 768 433 771 l 461 783 b 481 790 468 786 475 789 b 504 797 489 793 497 794 b 521 804 510 799 515 801 b 521 797 522 801 524 800 l 521 796 l 522 785 b 524 781 522 783 524 782 b 526 767 525 776 526 771 b 515 769 522 768 518 768 b 513 765 514 768 513 767 b 510 758 511 763 511 760 b 504 750 508 756 506 753 b 501 744 504 749 503 746 b 500 738 501 742 500 739 b 494 726 497 733 497 731 b 493 722 494 725 494 724 b 486 713 492 719 489 715 b 481 708 485 711 481 710 b 469 699 478 704 474 701 b 460 692 465 696 461 696 l 458 692 b 451 688 456 689 454 689 b 444 683 450 686 447 685 b 440 682 443 682 442 682 b 436 679 440 681 439 681 b 422 671 432 676 428 674 b 417 669 421 671 418 671 b 389 661 407 667 399 664 l 378 658 b 369 657 375 658 372 658 b 360 657 365 656 363 656 l 358 657 b 346 657 354 654 350 656 b 343 658 344 658 344 657 b 329 661 339 658 333 660 b 319 665 325 663 322 665 b 313 668 317 667 314 667 z "},"*":{"ha":347,"x_min":0,"x_max":0,"o":""},"+":{"ha":347,"x_min":0,"x_max":0,"o":""},"\u0000":{"ha":0,"x_min":0,"x_max":0,"o":""},"\r":{"ha":347,"x_min":0,"x_max":0,"o":""}," ":{"ha":347,"x_min":0,"x_max":0,"o":""},"A":{"ha":953,"x_min":0,"x_max":0,"o":"m 29 92 b 49 76 35 86 40 81 b 54 72 50 75 53 74 b 82 53 63 65 72 58 b 133 22 99 42 117 32 b 156 10 140 18 149 14 b 175 0 163 7 168 4 l 225 -25 b 228 -26 226 -25 226 -25 b 242 -32 232 -29 236 -31 b 247 -26 243 -31 246 -29 b 256 -12 250 -22 253 -17 b 267 3 258 -7 263 -3 b 279 25 271 10 275 18 b 290 51 279 26 290 51 b 308 83 292 53 308 82 b 322 107 313 92 318 100 b 333 126 326 114 332 118 b 335 129 333 128 335 128 l 357 169 b 358 172 357 171 358 171 l 368 199 b 374 208 369 203 372 206 l 381 228 b 383 226 382 226 382 226 b 389 225 385 226 388 228 b 394 221 390 222 393 221 b 397 226 396 221 397 222 b 400 226 399 229 399 229 b 403 224 401 224 401 224 l 411 224 b 414 226 413 224 413 225 b 417 225 415 224 415 224 b 421 226 418 231 419 228 b 424 225 422 224 422 224 b 425 225 424 226 425 228 b 435 222 426 224 433 222 l 436 224 b 438 225 436 224 438 226 b 440 225 439 222 440 222 b 442 225 442 225 442 226 b 446 224 443 224 444 228 b 449 225 446 226 447 225 b 450 222 449 224 450 222 b 458 224 453 225 456 224 l 460 224 b 461 225 460 225 461 225 b 464 221 463 224 464 225 l 465 222 b 467 225 465 222 467 224 l 472 225 b 474 225 472 224 472 224 b 476 225 474 228 475 226 b 481 226 478 225 479 224 l 481 231 b 482 226 482 228 482 226 b 485 225 483 225 483 225 b 489 222 486 228 488 226 b 490 221 489 221 490 221 b 493 222 492 219 492 219 l 493 225 b 499 225 494 224 497 224 b 503 225 500 226 501 225 b 506 225 503 225 504 221 l 506 226 b 508 226 507 226 508 225 b 511 228 510 226 510 226 b 519 233 513 231 517 233 b 522 233 519 232 521 235 b 524 235 524 232 524 233 b 526 236 525 236 525 236 l 528 238 b 532 239 529 238 531 239 l 536 239 b 543 240 538 240 540 240 b 549 240 544 238 547 238 b 554 244 550 243 551 243 l 556 244 b 560 243 557 246 558 246 l 561 243 b 569 244 564 244 567 243 b 575 246 571 246 574 243 l 575 247 b 579 246 576 244 578 247 b 582 247 581 249 582 247 b 583 247 583 246 583 246 b 588 247 585 249 586 244 b 590 246 589 246 589 246 l 601 246 l 603 244 l 603 243 b 606 229 601 238 601 233 b 614 218 610 226 613 222 b 615 214 614 217 615 215 b 617 203 617 210 619 207 b 618 200 617 201 618 200 b 624 181 619 193 621 186 b 631 165 626 176 625 171 b 631 157 626 163 633 160 b 632 156 631 156 632 156 b 635 149 636 154 635 151 b 635 144 633 147 633 146 b 638 136 639 143 635 138 b 638 135 639 136 638 135 l 638 129 l 642 113 b 643 103 642 108 643 106 b 644 94 644 100 644 97 b 646 92 644 93 644 93 b 647 81 647 89 649 85 l 649 79 b 653 76 653 79 653 78 b 654 72 651 75 653 74 b 658 65 654 69 658 68 b 661 60 657 64 660 61 b 663 54 663 57 663 56 b 660 49 663 53 660 51 b 663 46 660 47 661 47 b 665 43 663 44 664 43 b 665 40 665 42 667 42 b 667 35 663 38 665 36 b 668 31 668 33 668 32 b 669 18 669 26 669 22 l 674 1 b 690 -3 674 -3 679 -4 b 715 1 699 -1 706 -1 b 722 3 717 3 719 3 b 754 10 732 4 743 7 b 811 26 774 15 793 21 l 836 35 b 857 42 843 36 850 39 b 911 61 874 47 892 54 b 926 67 917 63 921 64 b 925 74 926 69 926 71 b 921 89 925 79 922 83 b 919 104 921 94 921 100 b 911 128 917 113 914 119 b 904 146 910 133 907 140 b 901 151 904 147 903 150 b 896 172 900 158 897 165 b 893 183 894 176 896 181 b 886 208 890 192 889 200 b 882 228 885 215 886 222 b 881 231 881 228 882 229 b 878 243 881 235 879 239 b 874 257 876 249 875 253 b 871 265 872 260 872 263 b 869 271 871 267 871 268 b 868 274 869 272 869 272 b 858 297 865 282 861 289 b 856 307 857 300 857 304 b 846 328 853 314 849 321 b 839 347 844 335 842 340 b 831 363 836 353 833 357 b 825 374 829 367 828 371 b 819 388 822 378 821 382 b 813 406 815 393 813 400 b 811 408 811 407 811 407 b 804 429 808 415 806 422 b 799 446 803 435 801 440 l 794 458 b 785 501 790 474 788 488 b 774 557 781 519 778 538 b 769 579 772 564 771 572 b 765 601 768 586 767 594 b 760 624 764 608 763 615 b 756 644 758 631 758 638 b 749 668 754 653 751 660 b 746 685 747 674 747 679 b 744 703 746 692 746 697 b 739 736 743 714 740 725 b 735 760 738 743 736 751 b 728 778 732 765 729 772 b 722 807 725 788 725 797 b 713 850 719 822 715 836 b 707 876 710 860 710 868 b 697 900 704 883 701 892 b 699 906 697 901 696 903 b 700 910 700 907 700 908 b 699 922 699 914 699 918 l 699 925 b 708 947 703 932 706 939 b 719 961 710 953 714 957 b 726 964 721 963 724 964 b 725 969 731 965 729 967 b 714 974 722 971 717 972 b 703 978 710 975 706 976 b 682 988 696 982 689 985 b 681 1003 682 993 681 999 b 675 1025 679 1011 678 1018 b 678 1042 674 1029 675 1036 b 682 1047 678 1043 681 1046 b 678 1050 685 1050 683 1050 b 665 1047 674 1050 669 1049 b 654 1046 661 1047 658 1046 b 617 1038 642 1044 629 1040 b 585 1031 606 1035 596 1032 b 569 1026 579 1029 574 1028 b 529 1038 556 1031 543 1035 b 494 1044 518 1040 507 1042 b 471 1047 486 1046 478 1047 l 461 1047 b 450 1043 454 1047 451 1046 b 443 1038 449 1042 446 1039 b 442 1028 442 1035 438 1033 l 442 1026 l 436 1017 b 435 1014 436 1017 435 1015 b 426 1003 432 1011 429 1007 b 426 1000 425 1003 426 1001 l 426 993 b 422 978 425 988 421 983 l 422 976 b 414 971 419 974 417 972 b 407 961 408 968 407 964 b 406 953 407 960 407 956 b 408 944 404 950 403 946 b 410 943 410 944 410 943 l 410 933 b 404 918 407 928 407 922 b 397 906 401 914 400 910 b 397 900 396 904 397 901 b 394 886 397 894 396 890 l 394 883 b 389 865 392 876 390 871 l 386 856 l 386 853 b 385 846 389 849 388 847 b 378 839 379 844 378 842 b 367 814 374 831 371 822 b 369 810 365 813 368 811 b 361 801 365 807 363 806 b 354 792 358 797 357 794 b 351 785 354 789 353 788 l 349 779 b 349 775 349 778 347 778 b 347 769 351 772 350 771 b 346 767 346 768 346 768 b 343 761 347 764 344 763 b 339 743 340 756 338 750 b 336 735 339 739 338 738 b 333 731 335 733 335 732 b 328 722 332 728 332 724 b 318 713 322 719 321 717 b 311 703 317 708 315 704 b 300 690 306 699 301 694 b 303 681 299 688 300 685 b 301 675 304 678 304 675 b 293 668 296 674 294 671 b 290 661 293 665 292 664 b 285 649 289 657 286 653 b 286 646 285 647 285 647 b 285 643 288 643 286 643 b 281 636 281 642 279 639 b 276 625 285 629 281 628 b 272 621 274 625 271 624 b 271 615 274 618 274 617 b 265 611 268 615 267 614 l 257 596 b 257 592 256 594 257 593 b 257 588 257 590 258 588 b 253 581 251 586 251 583 b 251 578 253 579 253 578 b 246 571 249 576 251 571 l 246 569 b 243 564 249 567 244 565 b 239 558 242 563 238 561 b 231 540 239 551 233 546 l 229 539 b 228 532 231 536 229 533 b 221 528 226 531 226 528 b 221 525 219 528 221 526 b 221 519 221 524 222 521 b 217 508 221 515 219 513 b 214 506 215 508 214 507 b 211 497 217 501 214 499 b 207 488 208 494 206 492 l 211 483 l 204 483 b 201 478 203 482 201 481 b 194 471 203 474 199 472 b 189 468 190 471 190 469 b 189 463 188 467 186 465 b 189 458 190 461 190 460 b 185 447 186 456 185 451 b 179 439 185 443 182 442 b 176 431 178 436 172 436 l 176 429 b 172 424 175 428 174 425 b 172 418 172 422 171 421 b 171 404 175 413 174 408 b 168 396 169 401 169 397 b 164 388 167 393 168 389 b 163 383 163 386 163 385 b 163 376 164 379 164 378 b 161 371 163 375 161 374 b 158 361 160 368 160 365 l 147 338 b 146 335 147 336 147 336 b 139 324 140 332 139 328 b 136 308 139 317 138 313 b 133 304 135 307 135 306 b 128 294 133 300 132 296 b 125 292 126 294 126 293 b 117 274 122 286 118 281 b 111 258 117 268 110 265 l 110 258 b 104 251 106 257 108 251 l 104 249 b 101 243 106 246 104 244 b 99 239 100 242 99 240 b 94 231 100 235 93 235 b 89 226 92 228 90 228 l 69 194 b 68 192 68 193 68 193 b 61 181 67 189 64 185 b 61 176 63 178 63 176 b 58 172 60 175 60 174 b 54 157 58 167 57 163 b 51 153 54 156 53 154 b 47 150 50 151 47 151 b 46 146 46 150 46 147 b 44 142 44 144 46 143 b 40 135 40 140 40 138 b 38 131 40 133 39 132 b 31 121 36 128 33 125 b 21 106 26 117 24 111 b 29 92 18 103 21 99 z m 461 418 l 489 472 b 501 494 493 479 497 486 l 513 515 l 514 515 b 515 501 514 511 515 507 b 518 499 515 501 518 500 b 521 496 519 499 521 497 b 522 488 518 493 519 490 b 524 486 524 488 524 488 b 524 476 521 482 528 481 b 526 471 528 475 526 472 b 525 464 526 468 524 465 b 531 446 531 458 529 451 b 532 443 532 444 531 443 b 535 438 533 442 535 440 b 535 435 533 436 535 435 b 529 433 532 433 531 433 b 521 431 526 432 524 432 b 514 428 519 431 517 429 b 510 425 513 428 511 428 b 504 424 508 424 506 424 b 496 421 501 421 499 421 l 494 421 b 486 419 492 421 489 421 l 479 419 b 474 418 478 419 476 418 z "},"B":{"ha":861,"x_min":0,"x_max":0,"o":"m 40 957 l 40 954 b 39 944 40 951 39 949 l 39 942 b 35 928 38 938 36 933 l 36 926 b 39 919 38 924 39 921 b 40 904 39 914 38 910 b 42 899 42 903 42 901 b 46 885 43 894 43 889 b 46 878 47 882 47 881 l 46 876 b 46 860 46 871 46 865 b 47 844 46 856 49 850 b 46 832 46 840 47 836 b 49 826 46 829 47 828 b 51 814 50 822 50 818 l 51 810 b 54 793 53 804 53 799 b 57 781 54 790 56 782 b 58 774 61 779 61 776 b 54 765 54 771 54 768 l 54 740 b 60 738 54 739 57 738 b 53 715 54 732 53 722 l 53 703 b 54 699 53 701 51 700 b 56 692 58 697 57 694 b 56 690 54 692 54 690 b 56 685 57 688 56 686 b 60 667 56 678 54 672 b 60 658 61 664 60 661 l 60 653 b 58 643 60 650 61 646 b 54 632 54 640 54 636 b 51 619 54 628 54 624 b 47 604 49 615 47 610 b 53 597 47 601 49 600 b 54 592 57 596 58 594 b 51 583 50 589 50 586 l 51 563 b 54 560 51 561 53 561 b 54 557 57 560 56 558 b 54 550 51 554 50 551 b 54 539 61 546 58 543 b 54 533 53 538 51 535 b 54 529 57 532 57 531 b 51 522 51 526 51 525 l 51 504 b 53 501 51 504 53 503 b 54 499 54 500 56 499 b 54 490 51 496 51 493 b 56 488 56 489 56 489 b 53 479 53 485 58 482 l 53 478 b 54 472 57 476 56 474 b 51 465 54 469 50 467 b 54 447 57 460 54 453 b 54 444 54 446 53 444 b 56 438 56 443 56 440 b 51 432 54 436 56 433 b 53 429 50 431 51 429 b 56 425 53 428 56 426 b 56 414 57 421 57 417 b 56 410 56 413 54 411 b 57 400 60 407 58 404 b 58 392 57 397 54 394 b 64 390 61 390 63 390 b 58 386 61 389 60 388 b 58 381 57 385 57 383 b 54 371 61 378 58 374 b 51 367 53 369 53 368 b 54 361 51 364 50 363 b 57 358 57 361 57 360 b 58 347 56 354 57 351 b 58 336 61 344 58 340 b 60 329 57 335 53 332 l 60 321 b 63 317 60 319 60 318 b 68 304 67 313 68 308 b 69 296 69 301 69 299 b 71 286 69 293 74 290 b 72 283 69 285 71 283 b 76 272 74 282 76 275 b 79 264 76 269 78 267 l 79 253 b 82 239 81 249 81 243 l 82 235 b 82 222 78 231 79 226 b 88 208 85 218 86 214 l 88 204 b 86 193 89 200 90 197 l 86 190 b 89 171 88 183 86 178 b 92 156 90 165 88 161 b 90 146 88 151 93 149 b 92 144 90 146 90 144 b 92 138 94 142 93 140 b 93 124 92 135 92 125 b 90 118 92 122 90 121 b 92 100 90 113 92 107 l 92 82 l 90 81 b 92 69 92 76 93 72 b 92 67 90 68 90 67 b 94 64 96 65 94 65 b 94 58 93 63 94 61 b 97 53 94 57 99 56 b 100 44 96 50 99 47 l 100 40 l 96 36 b 97 32 96 35 97 33 b 100 26 99 31 99 29 b 100 21 97 24 99 22 l 100 15 b 99 4 100 11 100 8 l 99 -14 b 114 -21 99 -17 104 -19 b 140 -22 122 -22 131 -22 l 147 -22 b 179 -22 157 -24 169 -22 b 226 -18 196 -22 211 -21 b 229 -29 228 -22 228 -25 b 260 -29 239 -29 250 -29 l 282 -29 l 315 -25 b 340 -19 324 -24 332 -21 b 349 -17 343 -18 346 -17 b 378 -11 358 -15 368 -12 b 393 -10 382 -11 388 -11 b 426 -3 404 -6 415 -4 b 453 4 436 0 444 -1 l 457 4 l 475 10 b 493 15 481 11 488 14 l 504 18 l 513 22 b 517 24 514 22 515 22 b 549 39 528 29 538 33 b 563 44 553 42 558 43 l 592 61 b 619 78 600 67 610 72 b 642 94 626 83 633 89 b 657 110 647 99 653 104 b 667 118 660 113 663 115 b 676 126 669 121 672 124 b 678 129 676 128 678 128 b 690 143 682 133 686 138 b 704 157 694 149 700 153 b 708 163 706 158 707 160 b 744 218 722 178 735 199 b 753 238 747 225 750 232 b 794 351 772 274 786 311 b 796 417 799 374 797 396 b 785 467 793 435 790 451 b 724 574 774 504 749 544 b 692 604 714 585 701 594 b 683 611 689 606 686 608 b 699 631 688 618 692 624 b 714 657 701 640 707 649 b 715 661 714 658 715 660 l 732 690 b 743 715 735 699 739 707 b 750 736 746 721 747 729 b 768 813 757 758 765 781 b 769 821 768 815 768 818 l 769 829 b 768 847 769 835 769 840 b 765 865 768 853 767 860 b 761 885 764 872 763 878 b 731 947 754 908 743 931 b 714 968 725 956 719 961 b 697 985 708 974 703 981 b 607 1043 674 1008 638 1031 b 590 1050 601 1046 596 1047 l 572 1056 b 549 1064 564 1057 557 1061 b 524 1074 540 1068 532 1071 b 475 1083 507 1078 492 1081 b 440 1086 463 1085 451 1086 b 411 1085 429 1088 421 1085 b 275 1067 368 1085 317 1082 b 244 1054 264 1064 254 1060 b 236 1054 242 1054 239 1053 b 232 1056 235 1056 233 1056 b 179 1039 214 1050 197 1044 b 164 1033 175 1036 169 1036 b 142 1021 156 1031 149 1025 b 118 1011 133 1017 125 1015 b 94 1000 110 1008 101 1004 b 74 996 88 997 81 996 b 67 999 71 996 68 997 b 64 994 63 1000 61 999 b 67 986 64 992 65 989 b 60 983 64 986 63 985 b 51 981 57 983 54 982 b 42 974 44 978 42 975 b 39 965 42 971 40 968 b 40 957 38 963 33 960 z m 314 426 b 329 431 319 428 324 429 b 347 432 335 431 342 431 b 374 439 356 435 364 436 l 394 447 b 401 450 397 447 399 449 b 426 457 410 453 418 454 b 442 453 432 456 438 454 b 446 457 443 453 444 456 b 451 450 447 453 449 451 b 458 446 454 449 457 447 b 463 444 460 446 461 444 b 467 443 464 444 465 443 b 469 442 468 442 468 440 b 474 442 472 446 474 444 b 476 440 475 440 475 440 b 479 439 478 442 479 440 b 492 436 483 438 486 433 b 497 433 494 438 496 435 b 500 432 499 433 500 432 b 504 426 501 431 504 429 b 508 418 504 421 506 419 b 513 411 510 417 513 415 b 517 401 513 407 514 404 b 524 404 517 401 519 401 b 526 403 526 406 528 406 b 526 396 524 399 525 397 b 529 393 528 396 528 394 b 532 389 531 392 531 390 l 535 389 b 536 389 536 390 536 390 l 535 389 b 536 386 538 389 536 388 b 538 383 543 389 540 386 l 536 383 b 536 385 535 383 536 385 b 536 386 540 385 538 385 l 535 385 l 535 383 b 535 381 536 382 536 381 b 529 376 533 379 533 378 b 532 372 531 375 532 374 b 529 365 532 371 532 368 b 528 364 528 365 526 365 b 526 358 531 360 528 360 b 524 351 525 357 522 356 b 528 349 526 350 528 349 l 522 349 b 521 346 521 349 519 349 b 514 343 522 343 518 343 b 510 343 511 344 511 343 b 511 339 508 343 507 343 b 513 336 513 338 513 336 b 510 332 510 336 510 335 b 508 331 511 331 510 331 l 510 331 b 507 329 508 331 508 331 l 508 328 b 507 319 511 324 508 321 b 504 317 506 318 506 317 b 499 313 501 315 501 311 b 497 310 497 314 497 313 b 496 306 497 307 497 307 b 493 303 494 306 493 304 b 486 299 490 301 489 300 b 479 294 485 296 482 296 l 468 288 b 465 286 468 286 467 286 b 454 282 460 288 457 286 b 443 274 451 278 447 276 b 439 272 442 274 440 272 b 429 269 436 269 433 267 l 426 269 b 408 263 421 267 414 265 b 393 256 404 260 399 261 b 385 256 389 260 388 253 b 382 254 383 256 383 256 b 376 253 381 251 379 251 b 363 249 375 253 363 249 b 357 250 360 250 358 250 b 340 247 351 249 346 249 b 338 267 340 254 339 260 l 333 288 b 329 304 333 293 331 299 b 326 315 329 308 329 313 b 324 329 324 321 324 325 l 324 331 b 319 350 321 338 319 343 b 319 353 321 350 319 351 b 317 374 319 360 318 367 l 317 392 b 314 406 315 396 314 400 z m 317 799 b 335 803 322 801 328 803 b 339 807 336 803 338 806 b 349 811 342 810 344 810 b 351 813 349 811 350 813 b 364 818 356 814 360 817 l 372 821 l 372 822 b 378 824 374 826 376 826 b 385 821 381 819 383 821 b 394 822 389 821 392 821 l 404 822 b 406 828 406 822 406 825 b 422 821 410 824 417 821 l 431 821 b 433 821 432 821 433 819 b 438 822 435 825 436 825 l 439 822 b 443 822 440 824 442 822 b 456 824 447 822 451 819 b 461 824 457 826 458 824 l 464 824 b 469 819 465 822 468 822 b 475 814 471 815 472 814 b 481 810 476 814 479 813 b 488 801 482 806 485 803 b 494 806 489 801 492 803 b 497 807 496 808 497 808 b 499 804 497 807 497 806 b 494 801 499 803 496 801 b 493 797 493 800 489 803 b 492 794 493 796 492 796 b 492 792 490 794 490 793 b 494 788 493 790 493 789 b 493 785 494 786 494 786 l 493 783 b 494 782 493 785 493 783 b 496 781 494 782 496 782 l 496 779 b 493 778 494 779 494 779 b 492 775 493 778 492 776 b 486 769 489 774 488 771 b 471 757 486 768 472 757 b 468 756 469 756 469 756 b 460 751 464 757 461 756 b 453 742 457 747 456 744 b 449 740 451 742 450 742 b 440 738 447 739 444 735 l 439 738 b 425 729 433 735 429 733 b 414 724 421 726 417 728 b 404 725 411 725 407 725 l 383 725 b 344 721 369 725 357 722 b 335 722 340 719 338 719 b 329 724 333 724 331 724 l 317 724 l 317 728 b 317 799 317 751 317 775 z m 524 789 b 522 792 521 788 519 789 b 521 793 522 793 522 793 b 524 790 525 797 525 794 l 524 789 l 525 789 b 525 786 524 786 525 786 b 524 785 524 786 525 785 z m 506 832 l 510 832 b 510 831 511 832 511 831 l 508 831 z m 510 824 b 514 821 511 822 513 821 l 510 821 z m 538 382 b 539 381 540 382 540 382 l 538 381 b 538 382 539 382 539 382 z m 536 379 l 536 378 b 535 379 536 378 535 378 z m 536 386 l 535 388 b 536 386 533 386 535 386 z m 493 782 b 493 783 493 782 494 782 z "},"C":{"ha":933,"x_min":0,"x_max":0,"o":"m 46 419 b 47 414 46 417 49 415 b 50 394 44 407 46 400 l 50 389 b 50 369 49 382 54 376 b 51 368 50 368 51 368 b 54 354 56 364 54 358 b 54 339 54 349 53 343 b 63 319 58 333 60 326 l 67 299 b 68 293 68 297 67 294 b 74 281 71 289 74 285 b 75 265 75 275 76 271 b 78 258 74 264 76 261 b 85 251 79 257 83 254 b 94 228 89 244 92 236 b 97 221 96 225 96 222 b 108 203 104 217 106 210 b 119 183 111 196 113 188 l 126 183 b 125 174 125 181 125 176 b 132 163 125 169 128 165 b 140 143 138 158 140 150 b 144 132 140 139 143 136 b 154 124 147 128 149 124 b 160 119 157 124 158 122 b 178 101 165 113 171 106 b 196 82 186 96 190 89 b 208 71 199 76 200 69 b 211 68 210 71 210 69 b 224 57 215 64 219 60 b 233 51 226 54 231 53 b 261 39 244 50 253 44 b 279 26 267 35 274 31 b 299 17 286 22 293 22 b 307 13 300 14 304 13 b 321 10 313 14 317 11 b 331 6 324 8 328 7 b 374 -8 343 0 360 -6 b 408 -17 386 -12 397 -15 b 414 -19 410 -18 413 -18 b 443 -26 424 -25 433 -26 b 474 -25 454 -24 464 -25 b 507 -29 482 -25 501 -25 b 513 -29 508 -31 511 -29 b 554 -28 526 -29 540 -31 b 585 -25 564 -26 575 -29 l 586 -25 b 604 -25 593 -28 599 -22 b 608 -24 606 -25 607 -24 b 621 -21 613 -19 617 -21 b 629 -21 624 -22 626 -22 b 649 -17 635 -17 643 -21 l 660 -17 b 694 -10 671 -15 683 -12 l 728 -1 l 732 -1 b 753 4 739 3 746 4 b 756 7 754 4 756 6 b 763 11 757 11 760 10 b 769 14 764 11 767 13 b 781 19 774 15 775 19 b 792 25 785 19 789 24 b 801 28 794 26 799 28 b 808 28 804 29 807 28 b 815 32 811 28 814 31 b 821 35 818 32 819 33 b 824 36 822 36 822 38 b 833 40 828 35 831 38 b 842 43 836 42 839 43 b 861 49 849 46 854 47 b 889 58 871 51 879 56 b 896 78 894 61 897 67 b 889 103 894 86 893 94 b 888 110 889 104 888 107 b 878 140 886 119 881 131 b 851 196 871 160 861 178 b 840 218 849 203 844 211 b 831 238 838 225 833 231 l 801 286 b 792 301 799 293 796 297 b 782 299 789 300 785 300 b 758 289 774 296 767 292 b 735 282 751 286 743 285 l 701 269 l 668 254 b 640 246 658 251 649 249 b 625 243 635 244 629 244 b 593 236 614 240 603 238 b 569 233 585 236 576 238 l 565 233 b 549 232 560 233 554 233 l 486 232 b 476 233 483 232 479 233 b 454 236 468 235 461 235 b 419 247 443 239 429 242 b 408 251 415 249 413 250 b 396 257 403 251 399 254 l 394 258 b 378 269 388 260 382 264 b 375 272 378 271 376 271 l 358 289 l 353 297 b 347 304 351 299 350 301 b 319 364 335 324 325 342 b 307 429 313 385 308 407 l 307 443 b 308 457 307 447 307 451 b 314 511 308 472 310 497 b 326 569 317 531 321 551 l 335 590 b 346 611 338 597 342 604 b 365 650 351 624 358 638 l 382 678 b 389 690 385 682 386 686 l 392 696 b 394 701 393 697 394 700 b 410 718 400 710 406 714 b 429 729 415 722 418 725 b 454 738 435 732 444 733 l 468 742 b 468 743 469 738 468 742 l 469 743 b 474 742 471 744 471 744 b 475 739 474 740 475 740 l 479 739 l 483 738 l 489 738 b 494 736 490 736 493 736 b 504 735 497 735 501 735 b 517 732 508 733 513 733 b 554 724 529 728 542 726 b 575 714 561 721 568 717 b 594 704 578 711 590 706 b 600 693 599 701 601 697 b 600 688 600 692 600 690 b 599 686 597 685 597 685 b 608 699 603 692 606 696 b 615 707 611 701 614 706 b 642 736 624 717 633 726 b 664 761 649 744 656 753 l 697 799 b 707 813 700 803 703 808 b 731 850 717 824 725 836 b 744 885 736 861 740 872 b 749 910 746 893 750 901 b 746 924 747 914 746 918 b 736 940 744 931 742 936 b 721 953 731 943 725 949 b 701 961 715 957 710 963 b 697 963 700 960 699 961 b 678 972 690 965 685 969 b 671 976 676 974 674 975 l 646 989 b 642 990 644 990 643 989 b 625 992 636 990 631 990 b 596 999 615 994 606 1000 b 582 1000 590 999 586 1000 b 551 1004 572 1001 561 1004 b 535 1006 544 1003 540 1003 b 506 1010 524 1008 515 1010 l 454 1010 b 433 1008 447 1010 440 1008 b 411 1004 426 1007 418 1006 b 403 1003 408 1004 406 1003 b 399 1000 400 1001 400 1000 b 374 990 390 996 382 993 l 365 988 b 304 960 344 979 325 969 l 300 956 b 283 946 297 950 290 946 b 207 886 263 946 219 900 b 206 878 204 883 206 881 b 183 858 196 872 189 865 l 176 847 b 168 838 174 843 169 840 b 163 826 165 833 164 831 l 156 817 b 153 810 154 814 151 813 b 147 799 154 804 151 801 b 140 783 144 796 142 788 b 126 750 133 774 126 763 b 119 735 125 744 122 740 l 115 726 b 106 710 113 721 111 714 b 93 690 99 704 96 697 b 83 668 90 683 88 675 b 68 640 76 660 71 650 b 71 624 67 635 68 629 b 68 611 72 619 72 615 b 61 596 63 607 61 601 b 57 581 60 590 58 585 b 53 553 56 571 53 561 b 54 547 53 550 53 549 b 54 540 56 544 56 543 b 51 525 50 536 47 529 b 49 501 57 517 53 508 b 47 489 46 497 46 493 b 47 479 50 486 50 483 b 44 465 44 475 44 471 b 43 428 43 453 43 440 b 46 419 43 425 44 422 z "},"D":{"ha":915,"x_min":0,"x_max":0,"o":"m 51 869 l 51 868 l 50 858 l 50 856 b 49 842 49 851 49 847 b 51 836 50 840 51 838 b 54 822 53 832 51 826 b 57 818 56 821 56 819 b 60 806 57 814 58 808 b 61 799 61 803 63 801 l 61 788 b 63 782 61 786 61 785 b 64 769 63 778 64 774 b 64 757 63 765 64 761 b 67 753 63 756 65 754 b 69 742 68 749 68 744 l 69 738 b 74 722 71 733 72 728 l 75 714 b 76 713 75 713 75 713 b 78 706 81 710 81 708 b 74 699 74 703 74 700 b 75 675 74 690 75 682 b 79 672 75 674 78 674 b 75 663 76 669 75 665 b 74 653 75 658 75 656 b 75 647 74 650 75 649 l 75 642 b 75 638 75 640 74 639 b 76 632 79 636 79 635 b 78 631 76 632 76 631 b 78 625 79 628 78 626 b 82 608 78 619 76 614 b 82 601 83 607 82 604 l 82 597 b 81 589 82 594 83 592 b 76 578 76 585 76 582 b 75 567 76 574 78 571 b 69 553 71 563 69 558 b 76 547 71 551 72 549 b 78 542 81 546 81 543 b 74 533 74 539 74 536 b 74 528 75 532 74 529 b 76 514 75 524 75 519 b 78 511 79 513 79 513 b 78 504 75 508 74 506 b 78 494 83 501 81 497 b 76 489 75 493 75 490 b 78 485 79 488 79 486 b 74 464 74 483 74 468 b 75 460 74 463 75 461 b 78 458 76 460 78 458 b 78 450 74 456 74 453 l 78 449 b 75 440 75 446 81 443 l 76 440 b 76 435 79 438 78 436 b 74 429 76 432 72 431 b 76 411 78 424 75 417 b 76 410 76 411 75 410 b 76 404 78 408 78 406 b 72 399 76 401 76 400 b 74 396 71 397 74 396 b 76 392 75 394 76 393 b 76 382 78 389 78 385 b 76 379 76 381 75 379 b 78 371 81 376 79 374 b 79 361 76 368 75 364 l 85 361 b 79 357 82 360 79 358 b 78 353 76 356 76 354 b 75 344 81 350 79 347 b 71 340 72 343 72 342 b 74 335 71 339 69 336 b 76 333 76 335 76 333 b 78 322 75 329 76 326 b 76 313 79 319 78 317 b 78 307 76 311 71 308 l 78 299 b 79 294 78 297 78 296 b 86 283 85 292 85 288 l 86 275 b 86 268 86 274 89 271 b 88 264 86 267 86 265 b 92 254 90 263 92 257 b 93 246 93 251 93 249 b 94 238 94 243 94 240 l 96 224 b 94 221 96 222 96 222 b 94 208 92 217 92 213 b 99 197 97 204 99 201 l 99 193 b 97 182 100 189 101 186 l 97 181 b 99 163 99 174 97 168 b 100 149 100 158 96 153 l 100 147 b 99 140 96 146 101 143 b 100 138 97 139 99 139 b 100 132 101 136 101 135 b 99 129 99 132 99 131 b 100 119 101 126 96 124 l 99 119 b 97 115 99 118 97 117 l 94 90 l 94 82 b 94 68 94 76 94 74 b 96 65 97 67 96 67 l 96 61 b 99 54 96 58 100 57 b 100 49 97 53 100 50 l 100 43 b 96 40 99 42 96 42 b 97 36 96 39 96 38 b 99 33 97 35 97 33 b 99 31 99 32 100 32 b 97 25 96 29 97 28 b 99 21 99 24 99 22 b 94 -6 96 14 94 1 b 110 -12 94 -8 99 -11 b 133 -17 117 -14 125 -15 l 142 -17 b 174 -21 151 -19 163 -19 b 226 -22 192 -21 208 -22 b 228 -28 226 -24 228 -26 b 242 -29 233 -29 238 -29 b 274 -28 253 -31 263 -29 b 307 -28 285 -28 296 -29 b 343 -21 319 -25 331 -22 b 356 -19 347 -21 351 -19 l 356 -17 b 394 -4 368 -14 382 -8 b 407 1 399 -3 403 0 b 447 18 421 7 435 13 b 469 28 454 21 463 24 b 481 33 472 29 476 32 l 514 53 b 546 75 525 60 538 65 b 550 78 547 76 549 76 l 592 111 l 614 132 b 643 167 624 144 635 156 b 654 179 647 171 650 175 b 678 210 663 189 669 199 b 697 236 685 218 690 226 b 711 258 703 243 707 251 b 721 275 715 264 719 268 b 735 293 724 281 728 286 b 751 319 739 303 744 313 l 756 324 b 793 382 768 343 781 363 b 806 406 797 390 801 399 b 861 576 838 460 853 515 l 861 624 l 860 636 b 856 663 858 644 858 654 b 844 710 853 679 849 694 b 835 732 842 717 839 725 l 825 754 b 774 833 813 783 794 810 b 754 860 767 843 760 851 b 732 886 747 869 740 878 b 686 929 718 901 701 915 b 676 936 682 932 681 933 l 664 946 b 640 961 657 951 649 957 b 597 979 626 968 611 974 l 568 990 b 538 1000 557 994 547 997 b 449 1013 507 1007 478 1010 b 400 1014 432 1013 417 1014 b 356 1007 385 1013 369 1010 b 346 1008 351 1007 349 1007 b 339 1010 343 1010 342 1010 b 265 1001 313 1010 290 1008 b 208 988 244 999 228 994 b 175 981 197 985 186 983 b 139 971 163 978 151 975 b 111 967 131 967 121 967 b 101 969 108 967 104 969 b 96 965 97 972 96 969 b 100 951 97 961 99 957 b 103 942 100 949 103 944 b 113 907 104 929 108 918 b 93 903 106 906 100 904 b 69 896 85 900 76 899 l 61 892 b 51 885 54 889 51 888 b 49 878 51 882 50 879 b 51 869 47 875 44 871 z m 336 408 l 338 461 b 339 483 338 468 338 476 l 339 544 b 336 569 339 553 338 561 b 338 585 336 574 338 579 b 340 601 339 590 339 596 l 340 656 b 338 674 340 661 338 667 l 338 701 b 335 738 338 714 336 725 l 338 738 b 353 739 343 738 347 738 b 358 740 354 739 357 739 b 376 742 364 742 369 743 b 392 742 382 742 388 743 b 397 744 394 742 396 744 b 413 747 403 747 408 747 l 417 747 b 436 750 422 749 429 750 l 446 750 b 449 751 447 750 447 750 b 456 751 451 756 454 754 b 464 746 458 747 461 746 b 475 743 467 744 472 744 l 486 740 b 490 744 488 740 488 743 b 496 736 492 740 493 738 b 507 731 499 736 504 733 b 510 729 507 731 508 729 b 513 729 511 729 511 728 b 515 728 515 732 515 731 b 517 728 515 726 517 726 b 519 726 518 728 518 726 l 525 721 b 535 718 528 719 531 718 b 544 710 536 718 544 711 b 550 700 547 707 550 706 b 556 689 550 694 553 692 b 561 679 558 686 561 683 b 567 665 563 674 564 668 b 575 663 568 663 571 663 b 579 660 579 664 581 663 b 581 651 578 656 579 653 b 589 636 582 650 588 638 b 592 636 589 636 590 635 b 593 633 594 636 594 635 b 594 628 592 631 590 628 b 597 621 601 628 600 625 b 599 617 596 619 596 618 b 600 614 600 617 601 615 b 597 610 597 613 597 611 l 597 600 b 600 599 597 599 599 599 b 601 597 600 597 603 597 b 601 593 599 594 599 594 l 603 592 b 600 588 599 590 604 589 b 600 583 604 586 601 585 b 597 581 600 583 596 582 b 599 575 599 579 599 578 b 597 569 599 574 597 572 l 596 569 b 596 564 597 567 597 565 b 590 560 594 564 594 561 b 592 556 592 558 593 557 b 589 547 592 553 592 549 b 588 544 588 546 586 546 b 585 536 590 540 586 538 b 581 528 582 533 579 532 l 585 524 l 578 524 b 574 519 575 522 574 521 b 565 513 575 514 571 513 b 560 510 563 513 561 511 b 560 504 558 508 557 508 l 560 500 b 553 489 556 497 554 493 b 543 479 551 483 547 482 b 539 471 540 476 535 478 l 538 469 b 532 463 536 467 533 465 b 529 457 531 461 529 458 b 506 418 529 450 513 419 b 503 413 504 417 503 414 b 500 404 504 408 501 407 b 497 399 499 403 497 400 b 489 388 494 394 492 392 b 481 376 486 383 483 381 l 468 361 b 465 358 468 360 467 358 b 453 346 458 356 454 351 b 444 331 451 339 449 335 l 440 326 b 429 318 438 322 436 318 b 428 315 428 318 428 317 b 411 300 422 310 415 306 b 397 288 407 294 400 294 l 397 286 b 388 282 392 288 393 282 b 382 276 386 276 385 276 b 378 274 379 276 378 275 b 369 268 376 269 369 272 l 368 268 b 363 267 367 268 364 268 b 349 260 358 264 353 263 b 347 272 349 264 347 268 b 344 283 346 275 346 279 b 342 296 342 288 342 292 l 342 297 b 339 315 339 303 338 310 l 339 318 l 338 339 b 336 354 336 344 338 350 b 336 408 336 372 336 390 z "},"E":{"ha":888,"x_min":0,"x_max":0,"o":"m 49 188 l 53 175 b 63 138 56 163 60 150 b 67 126 64 133 64 128 b 81 97 74 118 76 107 b 100 67 86 86 92 74 l 108 67 b 113 53 110 61 110 57 b 126 36 115 46 119 40 b 156 10 139 29 147 19 b 172 -4 160 3 165 0 b 194 -12 179 -10 186 -14 b 206 -14 197 -11 203 -12 b 249 -24 219 -21 235 -24 b 285 -28 263 -24 274 -26 b 306 -26 292 -28 300 -33 b 310 -26 307 -25 308 -26 b 328 -24 315 -25 322 -25 b 338 -21 332 -24 335 -24 b 361 -11 346 -15 353 -12 b 375 -8 365 -10 371 -8 b 389 -6 379 -7 383 -3 b 394 -3 390 -6 393 -4 b 401 1 396 1 399 1 b 408 4 404 3 406 3 b 422 8 413 6 418 7 b 438 13 428 10 432 11 l 460 18 b 464 18 461 18 463 19 b 485 22 471 17 479 18 b 503 31 490 26 497 28 b 510 32 506 31 508 32 b 528 35 515 33 521 36 b 532 35 529 33 531 35 b 561 42 542 38 551 38 b 583 47 568 44 576 43 l 583 49 b 597 49 589 44 593 51 b 600 51 599 49 600 50 b 610 53 603 54 606 54 b 615 54 611 53 614 53 b 631 57 621 57 626 53 l 632 57 b 639 57 635 57 636 56 l 693 65 l 697 65 b 714 68 703 68 708 69 b 717 69 715 68 717 68 b 722 72 718 74 719 74 b 728 75 724 72 726 74 b 738 79 732 75 733 81 b 749 82 742 78 744 82 b 757 83 751 83 754 83 b 763 82 758 83 761 82 b 769 85 765 82 767 83 b 774 86 771 85 772 86 b 776 88 775 88 776 89 b 786 89 781 85 783 88 b 793 90 789 90 792 90 b 811 92 799 92 806 92 b 838 96 819 93 828 96 b 846 114 843 97 846 103 b 844 139 846 122 846 129 b 843 146 844 140 843 143 b 840 179 844 157 842 168 b 825 238 836 199 831 218 b 819 261 824 246 821 254 b 813 282 817 268 815 275 l 794 336 b 788 353 793 343 790 349 l 778 353 b 754 347 769 351 763 349 b 731 344 747 346 739 346 b 694 336 718 343 707 339 b 667 329 685 335 676 332 b 657 326 663 328 660 326 b 625 319 646 324 636 321 b 608 317 619 318 614 318 b 569 310 596 313 582 311 b 540 303 560 307 550 308 l 536 303 l 474 290 b 469 289 472 290 471 289 l 432 278 b 418 275 426 276 422 276 l 329 249 b 313 243 324 247 317 246 b 310 242 313 242 311 242 b 319 285 313 253 315 267 b 333 354 322 307 328 332 b 339 389 335 365 338 378 b 344 417 340 399 343 407 l 350 417 l 353 415 b 354 417 353 415 354 415 b 357 418 356 421 357 419 b 358 418 358 417 358 418 b 361 418 360 419 360 418 b 371 421 364 418 367 417 b 374 422 371 424 372 422 b 376 421 375 422 376 422 b 382 419 378 421 379 422 b 388 415 383 415 385 415 b 393 413 389 415 392 415 b 400 407 396 408 397 407 b 404 414 401 407 403 408 b 407 414 406 417 406 418 b 411 411 408 410 410 410 b 415 410 413 411 414 410 l 422 410 l 422 413 b 424 414 424 415 424 414 b 428 413 425 410 426 408 b 433 413 431 419 432 415 b 436 411 435 410 436 410 b 439 413 438 414 438 414 b 442 408 440 408 440 410 b 451 407 444 408 449 408 b 453 410 451 407 453 408 b 454 411 453 410 454 413 b 458 411 456 407 457 408 l 460 411 b 464 408 461 408 463 414 l 465 410 b 468 410 465 413 467 411 b 471 407 469 408 469 406 b 481 408 475 411 478 408 l 482 408 b 485 410 483 410 485 411 b 490 406 486 408 488 410 b 492 410 490 407 492 410 b 499 410 494 410 496 411 b 500 410 499 408 500 408 b 506 410 501 414 503 411 b 510 411 507 410 508 407 b 511 417 510 414 511 415 b 513 411 511 414 513 413 b 515 411 514 410 514 408 b 521 407 517 414 519 411 b 522 404 521 404 522 404 b 525 407 524 403 525 401 b 528 408 526 408 526 410 b 533 410 529 407 531 408 b 539 410 535 413 538 410 b 543 410 540 408 542 404 b 547 411 544 411 546 410 b 550 413 549 411 549 411 b 556 418 551 417 554 418 b 561 419 558 419 560 419 b 565 419 563 419 564 422 b 568 421 567 419 567 419 b 571 425 568 424 569 424 l 574 425 b 578 428 575 426 576 428 l 583 428 b 593 429 586 429 589 429 b 601 431 596 426 599 426 b 608 435 603 433 606 435 b 611 436 608 435 610 435 b 617 435 613 436 614 439 b 629 436 622 435 625 435 b 638 439 632 439 635 435 b 642 438 639 435 640 440 b 643 439 643 438 643 438 b 647 439 644 442 646 440 l 649 439 b 654 440 650 442 653 438 l 656 440 b 657 439 656 439 657 439 b 668 439 661 438 664 439 l 678 439 b 679 439 678 439 679 438 b 686 439 681 440 683 440 b 689 442 688 443 688 442 l 690 443 b 694 446 692 443 693 447 b 699 447 696 444 697 447 b 701 447 699 447 700 449 b 704 444 701 447 703 444 b 708 447 707 446 707 447 l 708 449 b 713 449 710 446 711 447 l 732 449 b 733 464 733 449 735 453 b 732 489 733 472 733 481 b 731 496 732 492 731 494 b 728 529 731 507 729 518 b 719 589 725 549 722 568 l 703 690 l 701 692 b 699 707 701 697 700 703 b 696 708 699 708 697 708 b 682 708 692 708 686 708 b 671 706 678 708 675 707 b 663 703 668 704 665 704 b 660 701 663 703 661 701 b 650 699 657 700 654 700 b 644 700 649 699 647 700 b 633 699 642 699 638 699 b 624 697 631 699 626 701 l 617 697 l 610 696 l 601 696 b 590 690 597 694 593 692 l 585 690 b 575 686 582 689 578 688 b 564 683 571 685 568 685 b 557 679 561 682 558 681 b 550 676 554 679 553 679 b 543 674 549 675 546 674 b 533 671 540 671 538 671 l 532 671 b 521 669 529 671 525 669 l 513 669 b 506 667 511 668 508 667 b 485 668 499 667 492 668 l 456 671 b 443 672 451 671 447 672 b 432 674 440 674 436 674 l 421 675 l 410 675 b 396 674 406 675 400 674 b 388 676 393 674 390 675 b 379 678 385 676 382 678 l 379 679 b 385 750 381 703 383 726 b 388 790 385 763 386 776 l 388 794 b 390 796 388 797 389 796 b 401 799 394 794 397 793 b 407 799 403 800 404 799 l 410 799 b 415 796 411 799 414 800 b 422 792 418 792 421 792 b 431 790 425 792 428 793 b 439 785 433 786 436 785 b 444 792 442 785 443 788 b 447 793 444 794 446 796 b 453 789 449 789 451 789 l 465 789 b 468 792 467 789 467 790 b 474 792 471 789 472 788 b 481 792 475 797 478 794 b 483 792 482 789 482 789 b 486 792 485 793 486 793 b 501 788 488 788 497 788 b 504 789 501 788 503 789 b 506 790 504 790 504 792 b 511 792 507 788 508 788 b 518 789 514 789 515 794 b 522 790 519 793 521 790 b 525 788 524 789 525 786 b 538 790 529 792 533 789 l 539 789 b 543 790 540 792 542 792 b 546 786 544 790 544 790 b 549 788 547 785 547 788 b 551 790 549 789 550 790 b 558 792 553 792 556 793 b 560 790 558 790 560 789 b 565 792 561 796 564 793 b 572 793 568 792 569 789 l 572 799 b 575 793 574 796 574 794 b 578 793 575 792 576 792 b 583 789 579 796 582 793 b 586 786 585 786 586 786 b 590 789 588 785 589 785 b 592 792 590 790 592 792 b 599 793 594 790 596 790 b 606 792 600 794 603 793 b 610 793 607 792 608 786 l 615 793 l 618 796 b 625 801 619 800 622 801 b 631 803 626 803 629 803 b 636 803 632 803 635 806 b 639 806 636 803 638 803 b 642 808 639 808 640 808 l 644 808 b 650 811 646 810 649 811 b 657 813 653 811 654 811 b 665 814 660 813 663 814 l 668 814 b 676 814 671 810 674 811 b 683 818 678 817 681 818 b 686 819 685 819 686 819 b 694 818 689 819 692 822 l 696 818 b 707 821 700 819 703 818 b 717 822 710 822 714 818 b 722 821 719 818 721 824 b 724 822 724 821 724 821 b 728 822 725 825 726 824 b 731 822 728 822 729 821 b 736 824 732 825 735 821 l 736 822 b 740 821 738 822 739 821 l 764 821 b 771 821 765 822 768 822 l 772 821 b 774 824 772 825 774 824 l 776 824 b 781 826 778 825 779 829 b 785 829 782 825 783 828 l 788 829 b 790 825 789 828 790 825 b 793 826 792 825 793 826 b 797 829 794 828 794 828 b 800 828 799 826 799 828 b 803 829 801 829 803 829 b 811 828 806 829 808 828 l 821 828 b 825 843 824 828 825 832 b 826 868 826 851 826 858 l 826 875 b 825 908 826 886 826 897 b 822 968 825 928 824 949 b 821 993 821 976 821 985 b 818 1015 819 1000 819 1007 b 814 1071 817 1033 815 1051 l 814 1072 b 811 1088 813 1078 813 1083 b 807 1089 810 1089 808 1089 l 799 1089 b 788 1090 794 1089 792 1090 b 774 1088 783 1090 778 1089 b 761 1085 769 1088 765 1086 b 744 1082 757 1085 749 1083 b 738 1083 742 1082 740 1083 b 722 1082 732 1082 726 1082 b 710 1082 718 1082 714 1085 b 700 1081 706 1082 703 1082 l 686 1081 b 682 1079 685 1081 683 1079 l 681 1079 b 665 1075 675 1078 669 1076 b 658 1074 663 1074 661 1074 b 644 1069 654 1072 650 1071 b 632 1067 640 1069 636 1068 b 622 1063 629 1065 626 1064 b 615 1060 619 1063 617 1063 b 607 1057 613 1057 610 1057 l 606 1057 b 594 1054 601 1054 599 1053 l 593 1054 b 579 1051 588 1053 583 1053 l 568 1051 b 560 1049 565 1050 563 1049 b 533 1050 551 1049 543 1049 b 499 1051 522 1050 511 1050 b 485 1053 494 1051 489 1051 l 457 1053 b 444 1054 453 1053 449 1054 b 428 1051 439 1053 433 1053 b 418 1054 425 1051 422 1053 b 407 1056 414 1054 411 1056 l 406 1056 b 408 1060 406 1057 407 1058 b 404 1065 411 1063 410 1064 b 392 1067 401 1067 396 1067 l 381 1067 b 342 1068 368 1069 356 1069 l 308 1068 b 258 1068 292 1069 275 1068 b 203 1061 240 1068 221 1065 b 196 1067 200 1063 199 1065 b 193 1074 194 1068 194 1071 b 190 1069 192 1076 190 1075 l 190 1060 b 163 1054 181 1057 172 1056 b 139 1046 154 1051 146 1050 l 131 1042 b 121 1031 124 1039 121 1035 b 118 1019 121 1026 119 1024 b 118 1007 115 1015 113 1011 b 119 1003 119 1006 119 1004 l 118 989 b 117 985 117 988 117 986 l 113 965 b 114 963 113 964 114 964 b 117 951 115 958 115 956 b 118 931 117 944 114 938 b 119 922 118 928 118 925 b 121 900 119 915 119 907 b 121 890 122 897 124 893 l 121 889 l 119 872 l 119 864 b 119 842 119 857 121 850 b 118 822 118 836 119 829 b 119 815 117 819 119 817 b 121 796 121 808 121 801 l 121 790 l 122 765 l 122 750 b 124 747 122 749 122 747 b 124 736 128 743 126 740 b 118 725 119 733 118 729 b 115 688 117 713 117 700 b 119 682 115 685 117 683 b 113 667 115 676 114 672 b 110 650 113 661 111 656 l 110 642 l 108 632 b 108 626 108 631 107 628 b 108 617 113 624 111 619 l 108 614 b 108 604 110 611 108 608 b 108 578 107 596 104 588 b 107 565 110 574 107 569 b 106 558 107 564 107 561 b 101 546 104 554 106 549 b 96 529 97 540 96 535 b 92 513 94 524 94 517 b 83 490 86 506 83 499 b 88 479 83 486 83 483 b 88 471 92 476 92 472 b 81 447 82 465 81 454 b 78 428 79 442 79 435 b 79 425 78 428 78 425 b 79 421 82 422 81 422 b 78 410 76 417 74 413 b 75 394 83 403 79 399 b 72 386 72 392 71 389 b 72 379 75 383 75 381 b 68 369 68 376 68 374 b 63 344 65 361 64 353 b 63 339 61 343 63 342 b 64 335 63 338 65 336 b 61 322 60 332 60 328 b 61 319 63 322 63 321 b 57 306 58 315 63 310 b 57 304 56 306 56 306 b 56 293 60 301 57 297 b 51 282 54 290 50 286 b 49 238 53 268 49 254 b 49 232 49 236 47 235 b 49 215 50 226 50 222 b 46 197 49 210 50 204 b 49 188 44 196 47 190 z "},"F":{"ha":863,"x_min":0,"x_max":0,"o":"m 61 8 b 85 1 68 6 76 3 b 92 0 88 1 90 0 b 124 -8 103 -4 114 -6 b 183 -17 144 -11 164 -14 l 208 -21 b 231 -24 215 -22 222 -22 l 286 -28 l 288 -29 b 304 -29 293 -29 299 -31 b 307 -24 304 -28 306 -25 b 308 -8 307 -18 307 -12 b 317 32 313 10 314 13 l 317 58 b 319 79 318 65 318 72 b 322 90 321 83 322 88 b 326 117 322 100 325 108 b 329 136 328 124 331 129 l 329 139 l 333 167 l 333 175 l 335 181 l 335 185 l 333 211 b 335 221 333 214 335 217 l 335 243 b 333 265 333 251 335 258 b 332 282 333 271 333 276 b 331 294 332 286 332 290 b 329 310 329 300 329 304 b 331 311 331 310 331 310 b 329 329 328 317 328 324 l 329 339 b 340 332 331 335 335 332 l 346 332 b 349 332 347 332 347 331 b 351 333 350 336 351 335 b 353 333 353 332 353 332 b 356 333 354 335 356 333 b 365 336 360 332 363 332 b 369 336 367 338 368 336 l 372 336 b 376 333 374 335 375 336 b 383 329 379 329 381 329 b 389 326 385 329 388 329 b 397 321 392 322 394 321 b 400 326 399 321 400 322 b 404 328 401 331 403 331 b 408 324 406 324 407 324 l 419 324 l 419 326 b 421 326 421 328 421 328 b 425 325 422 324 425 322 b 431 325 428 332 429 329 b 433 325 432 324 433 322 b 436 325 435 326 436 328 b 449 321 438 322 446 321 b 450 322 450 321 450 322 b 453 324 451 324 451 325 b 457 324 454 321 456 321 b 463 322 460 321 461 326 b 465 322 464 326 465 324 b 469 321 467 322 468 319 b 479 322 472 325 475 322 b 481 322 479 322 479 321 b 483 322 481 324 482 324 b 486 318 485 322 486 322 b 489 319 488 317 488 318 b 490 322 489 321 490 322 b 496 322 492 324 494 324 b 499 322 497 322 497 321 b 503 324 500 326 501 325 b 508 324 504 322 507 321 l 508 331 b 510 324 510 328 510 325 b 513 324 511 322 513 322 b 518 319 515 326 517 324 l 521 317 b 524 319 521 317 522 315 b 525 322 524 322 524 322 b 531 324 526 321 529 322 b 536 322 532 325 535 324 b 540 324 538 322 539 317 l 544 324 b 546 326 544 324 546 325 b 557 333 549 329 553 333 b 563 333 558 333 560 336 b 564 335 563 332 564 333 b 569 339 565 336 568 339 b 574 342 571 340 572 340 l 579 342 b 586 344 582 343 585 343 b 589 343 588 344 588 344 b 596 344 590 340 593 340 b 601 349 597 347 600 349 l 604 349 b 610 349 606 350 608 351 b 629 353 614 349 626 350 b 635 351 631 349 632 354 l 635 353 b 639 353 636 356 638 354 b 640 353 639 353 640 351 b 646 354 642 356 644 350 l 646 353 b 649 351 647 353 647 351 l 667 351 b 668 351 668 351 668 350 b 675 353 671 353 672 353 b 679 356 675 354 678 356 b 682 357 681 356 681 360 b 686 360 683 356 685 358 l 689 360 b 690 356 689 358 690 357 b 693 357 692 356 692 357 b 696 360 693 358 694 358 b 699 360 697 357 697 358 b 701 360 700 361 700 361 l 707 360 b 717 360 710 358 713 360 b 719 374 718 358 719 364 b 718 399 719 382 719 390 l 718 407 b 717 439 718 417 717 428 b 711 499 715 460 713 479 b 708 525 710 508 710 517 b 707 546 708 532 707 539 l 700 601 l 700 604 b 697 619 700 610 699 614 b 694 621 697 619 696 621 b 679 621 689 621 685 621 b 668 618 675 621 672 619 b 658 615 665 618 663 617 b 646 613 657 614 649 613 b 640 614 644 613 642 614 b 628 613 636 611 632 613 b 618 611 625 613 621 615 l 611 611 l 604 610 l 596 610 b 583 604 592 608 588 606 l 579 604 b 568 600 575 603 572 601 b 558 597 565 599 561 599 l 550 593 b 544 590 549 593 546 593 b 538 588 543 588 540 588 b 528 585 535 585 532 585 l 526 585 b 517 583 524 583 519 583 b 501 581 515 583 503 581 b 481 582 494 581 488 581 b 454 583 472 582 463 583 b 443 586 450 585 446 585 b 432 588 439 586 435 586 l 421 588 b 399 588 414 588 406 588 b 390 590 396 588 393 589 b 382 593 388 590 385 592 b 367 594 376 594 372 594 b 354 597 363 596 358 597 b 347 596 351 597 349 596 b 346 601 346 597 346 600 b 349 618 346 607 347 613 b 351 636 349 625 351 631 b 353 669 353 647 353 658 b 354 693 354 678 354 686 b 354 743 354 710 354 726 l 354 757 l 356 757 b 361 754 357 756 360 757 b 369 750 364 750 367 750 b 378 747 372 750 375 750 b 388 742 381 743 383 742 b 392 749 389 742 390 744 b 396 750 393 751 394 753 b 401 746 397 746 400 744 l 415 746 b 417 747 417 746 417 746 b 419 749 418 750 418 750 b 424 747 421 746 422 744 b 432 747 426 754 429 751 b 435 747 433 746 433 744 b 439 747 436 749 438 750 b 454 743 439 743 451 743 b 457 744 456 743 456 744 b 458 746 457 746 458 747 b 464 746 461 743 463 743 b 465 746 464 747 465 747 b 471 744 468 743 469 749 l 472 744 b 476 744 474 749 475 746 b 481 743 478 744 479 742 b 493 744 485 747 489 744 b 494 744 493 744 494 743 b 499 744 496 746 497 746 b 503 740 500 744 501 744 b 506 742 503 739 504 742 b 508 744 506 743 507 744 b 515 744 510 746 513 746 b 518 744 517 744 517 743 b 524 746 519 749 522 747 b 531 746 526 744 528 743 l 531 753 b 533 747 532 750 532 747 b 538 746 535 744 536 744 b 543 742 539 749 542 746 b 546 739 544 740 546 740 b 550 742 547 739 549 738 b 551 744 550 744 551 744 b 560 746 554 743 557 744 b 567 744 561 747 564 746 b 571 746 568 744 569 739 l 576 746 b 581 747 578 746 579 746 b 594 756 582 754 589 756 b 600 756 596 754 599 758 b 603 757 601 754 601 756 b 607 760 604 760 606 760 b 610 761 607 760 608 760 b 622 764 611 761 622 764 b 632 765 626 764 629 765 b 635 764 633 765 633 765 b 643 764 638 761 640 761 b 653 769 646 768 650 768 l 656 769 b 663 768 658 771 661 772 l 665 768 b 678 771 669 769 674 768 b 688 772 681 772 685 768 l 689 772 b 694 771 690 768 692 774 b 696 772 694 771 696 771 b 700 772 697 775 699 774 b 703 772 700 771 701 771 b 708 772 704 775 707 769 b 713 771 711 771 711 771 l 725 771 b 731 769 726 771 729 769 l 736 769 b 739 769 738 769 738 768 b 746 769 742 771 743 771 b 747 769 746 768 747 768 b 750 772 749 774 749 772 b 753 772 750 771 751 772 b 757 775 754 772 756 776 b 763 776 758 774 760 776 b 765 776 763 776 764 778 b 768 774 767 776 767 774 b 771 775 769 772 769 774 b 775 776 772 775 772 775 b 778 776 776 774 778 775 l 782 776 b 789 775 785 776 788 775 l 801 775 b 806 789 804 775 806 779 b 807 815 807 797 807 806 l 807 822 b 808 854 808 832 808 843 b 806 915 808 875 807 894 l 806 940 b 804 961 804 947 804 954 b 800 1018 803 981 801 999 l 800 1019 b 799 1035 800 1025 799 1031 b 794 1036 797 1036 796 1036 l 783 1036 b 772 1038 781 1036 776 1038 b 757 1036 768 1038 763 1038 b 744 1033 753 1036 749 1035 b 740 1032 743 1033 742 1032 l 725 1032 b 718 1032 724 1032 721 1033 b 701 1032 713 1031 707 1032 b 688 1032 697 1032 692 1035 b 686 1032 688 1031 688 1032 b 676 1031 683 1032 681 1032 l 656 1031 b 639 1025 650 1029 644 1026 l 633 1025 b 618 1021 628 1024 622 1022 b 604 1018 614 1021 608 1019 b 593 1015 600 1018 597 1017 b 585 1013 590 1014 588 1014 b 576 1010 582 1010 579 1010 l 575 1010 b 563 1007 571 1007 567 1006 l 560 1007 b 546 1006 556 1006 551 1006 b 525 1003 540 1004 531 1003 b 497 1004 515 1003 507 1003 b 460 1006 485 1004 472 1006 b 444 1008 454 1007 449 1007 l 429 1008 b 400 1011 425 1010 406 1011 b 383 1010 394 1010 389 1010 b 372 1011 379 1010 376 1010 b 361 1014 368 1013 364 1014 b 339 1015 353 1015 346 1015 b 322 1017 333 1017 328 1017 b 310 1015 318 1017 314 1015 b 290 1018 303 1015 297 1017 l 260 1018 b 243 1019 254 1018 249 1019 l 226 1015 b 224 1018 225 1015 224 1015 b 221 1021 222 1019 221 1019 b 206 1022 215 1021 211 1022 b 193 1022 201 1024 197 1022 b 185 1024 190 1022 188 1025 b 157 1024 175 1024 167 1024 b 143 1025 153 1024 147 1025 b 132 1031 139 1024 136 1028 b 129 1036 131 1032 131 1035 b 126 1033 128 1039 128 1039 l 126 1010 b 125 971 125 997 125 985 l 119 971 b 96 965 111 969 103 968 l 88 961 b 78 954 81 958 78 957 b 75 946 78 951 76 949 b 76 938 74 943 71 940 b 76 936 78 938 76 936 l 75 926 l 75 924 l 71 911 b 72 908 71 910 72 910 b 75 901 74 906 75 904 b 78 888 76 897 74 892 b 79 882 79 886 79 885 b 82 868 81 878 81 874 b 83 861 83 867 85 864 b 82 850 82 857 82 853 b 83 844 82 847 83 846 b 85 831 83 840 85 835 b 83 817 83 826 85 822 b 86 813 82 815 85 814 b 89 800 88 808 88 804 l 89 797 l 92 781 b 94 769 92 778 92 774 b 94 763 99 767 97 764 b 90 754 90 760 90 757 l 90 729 b 96 726 90 728 93 728 b 89 706 90 722 89 713 l 89 694 b 89 690 89 693 88 692 b 90 685 93 689 93 686 l 90 682 b 92 676 93 681 92 678 b 94 660 90 671 89 665 b 94 651 96 657 94 654 l 94 647 b 92 638 93 644 94 640 b 88 628 88 635 88 631 b 85 615 88 624 88 619 b 79 601 81 611 79 607 b 85 594 79 599 81 597 b 86 589 89 593 89 592 b 82 582 82 586 82 585 l 82 561 b 83 560 82 561 82 560 b 85 557 86 558 86 558 b 83 550 81 554 81 551 b 83 540 90 546 86 543 b 82 535 81 538 79 536 b 82 531 85 533 85 532 b 79 524 79 528 79 526 b 76 508 79 518 78 514 b 79 504 76 507 78 506 b 81 501 79 503 81 503 b 79 493 76 499 76 496 b 81 492 81 493 81 492 b 78 483 78 489 82 486 b 78 476 82 481 79 479 b 75 471 76 475 74 474 b 75 453 79 465 75 460 l 75 451 b 76 446 76 450 76 447 b 71 440 75 443 75 442 b 72 438 69 439 71 438 b 75 433 72 436 75 435 b 74 422 75 429 76 425 b 74 419 74 421 72 419 b 74 410 78 415 75 414 b 74 401 72 407 71 404 b 79 400 76 400 78 400 b 74 397 78 399 75 399 b 72 392 72 396 71 394 b 68 383 75 389 72 386 b 65 379 65 382 65 381 b 67 374 64 378 63 376 b 69 371 69 374 69 372 b 69 361 68 368 68 364 b 68 351 71 357 68 354 b 68 344 67 349 61 347 l 68 343 b 68 336 68 340 67 339 b 69 332 68 335 68 333 b 74 319 74 328 74 324 b 74 311 74 317 75 314 b 74 303 74 308 76 306 b 74 299 72 301 72 300 b 76 293 76 297 76 296 l 76 289 b 78 281 78 286 78 283 l 78 257 b 76 254 78 256 78 254 b 75 242 72 250 72 246 b 78 228 78 236 78 232 l 78 224 b 75 213 78 219 79 217 b 75 211 74 213 75 211 b 74 192 74 204 72 199 b 74 178 75 188 69 183 l 74 176 b 71 169 69 175 74 171 b 71 167 69 168 71 168 b 71 161 74 164 72 163 b 69 157 69 160 69 158 b 69 149 72 154 67 151 b 65 143 68 146 67 144 l 60 110 b 58 107 58 108 58 108 b 57 97 60 104 58 100 b 57 94 56 96 56 96 b 58 92 60 93 60 92 b 58 88 57 90 58 89 b 60 81 58 85 61 82 b 60 74 57 78 60 75 b 58 68 60 71 60 69 b 54 65 58 67 56 67 b 57 57 54 64 57 57 l 57 56 b 56 50 53 54 54 51 b 54 44 56 49 56 47 b 51 35 54 42 51 39 l 47 18 b 61 8 46 15 50 11 z m 82 524 l 82 525 l 83 525 z "},"G":{"ha":997,"x_min":0,"x_max":0,"o":"m 57 375 b 67 324 64 358 63 340 b 68 318 67 322 67 319 b 74 301 71 313 72 308 b 74 285 74 296 76 290 b 78 276 72 282 75 279 b 83 267 79 272 82 269 b 96 236 89 257 93 247 b 100 228 97 233 97 229 b 113 206 107 222 110 214 b 128 182 115 196 119 188 l 133 182 b 135 171 135 178 133 174 b 144 157 136 165 139 161 b 158 133 151 151 156 142 b 165 121 160 128 163 125 b 179 111 169 115 172 111 b 188 107 182 111 185 108 b 200 94 190 103 194 99 b 214 86 204 92 210 89 b 240 67 224 81 232 72 b 260 56 246 61 250 53 b 263 54 261 56 263 54 b 282 44 269 50 276 47 b 294 42 286 43 290 42 b 353 28 307 42 339 32 b 375 22 360 25 368 26 b 385 22 378 21 382 21 b 399 22 390 24 394 24 b 411 21 403 22 407 22 l 435 21 b 458 19 443 21 451 19 l 493 21 b 500 19 494 21 497 19 b 529 21 510 17 521 17 b 560 28 540 24 550 25 b 571 29 564 28 567 28 b 596 31 579 31 588 33 b 603 32 599 31 600 32 b 625 36 610 33 618 35 b 647 43 633 38 640 40 b 665 47 653 44 660 46 b 682 56 671 49 676 51 l 685 56 b 706 61 692 54 697 61 b 710 65 707 61 708 64 b 724 71 714 69 718 71 b 733 75 726 72 731 72 b 756 88 740 81 750 81 l 757 88 b 769 93 761 89 765 90 l 810 119 b 831 138 817 125 824 131 l 847 153 b 853 157 849 154 851 156 b 874 182 858 167 865 175 b 876 188 875 183 876 185 b 881 196 875 192 878 193 b 886 207 882 199 883 203 b 894 224 889 213 889 219 b 901 243 899 229 900 236 b 908 256 904 247 906 251 b 915 264 910 258 914 261 b 919 276 918 268 918 272 b 921 285 919 279 919 282 l 921 290 b 925 297 924 292 925 294 l 928 297 l 929 299 l 929 306 b 932 311 931 307 932 308 l 932 321 b 931 324 932 322 931 322 b 936 347 933 331 935 339 b 940 369 939 354 939 361 l 942 390 b 936 407 943 397 940 403 l 936 411 b 933 436 936 418 935 431 b 932 446 933 439 933 443 b 931 453 932 449 932 451 b 929 461 929 457 928 460 l 929 463 b 928 474 926 467 926 471 l 928 489 b 928 508 928 496 928 501 l 932 532 l 946 640 l 822 653 l 819 653 l 785 656 b 771 657 779 656 775 657 b 758 658 767 658 763 658 l 744 658 b 733 658 740 658 738 660 b 719 657 728 658 724 657 b 710 658 715 657 713 657 b 700 661 707 658 703 660 l 682 661 b 668 663 678 661 672 663 b 658 660 665 661 661 660 l 618 660 b 604 658 613 658 608 660 b 590 654 600 658 596 656 b 586 658 590 654 589 654 b 574 660 582 660 578 660 b 556 660 568 660 561 660 b 544 657 553 660 549 657 b 533 657 542 656 538 657 l 522 657 b 513 663 519 656 517 658 l 510 668 b 508 664 508 669 508 669 b 510 651 508 660 508 656 l 510 640 b 514 601 511 628 513 615 l 518 568 b 524 518 519 551 521 535 b 525 503 524 513 525 508 b 532 458 528 488 529 472 b 539 424 535 447 536 435 b 543 400 540 415 542 407 b 546 392 544 397 544 394 b 550 382 547 385 549 382 b 554 379 551 382 553 381 b 560 381 557 378 558 375 l 565 381 l 567 379 b 574 376 569 378 571 378 l 575 378 b 578 381 576 378 576 379 b 585 382 581 381 583 379 b 588 385 586 383 588 383 b 594 388 590 385 593 385 b 599 388 596 389 597 390 l 606 388 b 608 389 606 388 607 388 b 615 390 610 389 613 390 b 622 389 618 389 619 390 b 625 392 624 389 624 390 b 631 394 626 393 629 393 l 632 394 l 642 397 b 647 400 643 399 644 399 b 650 401 647 404 649 404 b 656 397 653 397 654 397 l 668 397 b 669 403 668 397 668 400 b 675 397 671 400 674 397 l 676 397 b 671 379 674 394 671 383 l 669 374 b 668 364 669 369 669 368 l 671 364 b 668 356 669 361 669 358 b 665 350 667 353 667 351 b 663 343 665 347 664 344 b 661 339 663 342 663 340 b 650 326 658 335 654 331 b 643 322 649 325 644 325 l 639 318 b 633 315 638 317 635 317 b 622 310 629 314 626 311 b 613 307 619 308 617 308 b 603 301 610 306 607 304 l 600 301 b 585 296 596 300 590 297 b 569 292 579 294 575 293 l 558 290 b 551 289 557 290 554 289 l 547 288 b 513 281 536 286 525 282 b 500 279 508 281 504 281 l 468 278 l 443 278 b 424 279 436 278 429 278 b 410 279 418 279 414 281 b 396 283 404 279 400 281 l 394 283 b 378 289 388 283 382 286 b 375 290 378 290 376 290 l 368 296 b 360 301 365 297 363 300 b 340 325 356 306 342 321 b 324 368 332 338 326 353 b 318 400 321 379 319 390 l 318 417 b 319 425 318 419 319 422 l 319 435 b 324 476 321 451 322 464 b 328 513 325 489 326 500 b 333 547 329 524 331 536 b 340 578 335 558 338 568 b 347 614 342 590 344 603 b 357 635 350 622 354 629 b 368 656 361 642 365 649 b 389 689 375 667 382 679 b 407 708 394 696 401 701 b 421 724 413 713 415 719 l 433 732 b 447 739 438 735 442 738 b 493 757 460 747 475 753 b 508 760 497 758 503 760 b 524 763 513 761 518 763 b 557 769 535 765 546 767 b 565 767 560 769 563 769 b 600 763 567 765 596 763 b 629 760 610 761 619 761 b 647 756 636 758 642 757 l 661 756 b 674 753 665 754 669 754 b 697 744 682 751 690 747 b 708 740 701 743 706 742 b 724 731 714 739 721 736 b 726 724 725 729 726 726 b 725 718 728 724 726 721 b 728 719 724 715 725 715 b 736 729 731 722 733 726 b 743 739 739 733 742 736 b 768 768 751 747 760 758 b 789 794 775 778 782 786 b 821 833 800 807 811 821 b 829 847 824 838 826 843 b 851 886 840 858 846 872 b 863 921 857 897 860 908 b 865 947 865 929 868 939 b 863 961 865 951 863 956 b 849 978 861 968 856 975 l 832 990 b 810 1000 825 996 818 1001 b 804 1001 807 999 806 1000 b 782 1011 796 1004 789 1007 l 774 1014 b 743 1026 764 1018 753 1022 l 738 1026 b 721 1028 732 1026 726 1026 b 686 1032 708 1029 699 1033 l 672 1032 b 640 1033 661 1033 650 1035 b 624 1035 633 1032 629 1032 l 622 1035 b 594 1036 613 1035 604 1036 l 583 1036 b 550 1035 572 1036 561 1035 b 517 1035 539 1036 528 1033 b 506 1031 513 1035 510 1032 b 475 1025 496 1028 486 1026 b 467 1022 472 1024 469 1024 b 425 1011 453 1019 439 1015 l 401 1003 b 397 1000 400 1003 397 1001 b 381 993 393 994 386 993 b 358 989 372 994 365 992 b 297 957 338 981 315 969 b 294 949 294 956 294 953 b 267 936 283 947 275 942 b 242 918 258 931 250 924 b 231 907 238 914 233 911 l 218 896 b 211 888 215 893 213 890 b 201 874 211 881 207 876 l 197 869 b 188 857 196 864 192 861 b 164 817 178 844 168 832 b 153 799 161 810 157 804 l 147 788 b 135 768 143 781 140 774 b 119 744 126 761 122 753 b 107 718 115 735 113 725 b 90 685 99 708 93 697 b 92 667 89 679 89 674 b 89 654 94 663 93 657 b 81 636 83 649 82 642 b 78 619 81 631 79 625 b 72 590 75 610 74 600 b 74 585 72 588 72 586 b 74 578 75 582 75 581 b 71 563 69 574 68 567 b 68 539 75 553 72 546 b 65 526 65 535 64 531 b 65 517 68 524 68 519 b 61 504 63 513 61 508 b 58 469 60 492 58 481 b 60 461 57 467 58 464 b 61 457 60 460 61 458 b 57 450 58 454 57 451 b 58 446 57 449 58 447 b 60 440 58 446 58 443 b 60 435 60 439 61 436 b 57 411 57 428 63 418 l 57 408 b 58 392 61 403 60 397 b 57 375 58 386 56 381 z "},"H":{"ha":969,"x_min":0,"x_max":0,"o":"m 54 903 b 56 890 54 899 51 894 b 57 886 57 889 57 888 b 60 872 57 881 57 876 b 60 867 61 871 63 868 l 60 865 b 60 851 60 861 60 856 b 60 838 60 846 61 842 b 58 825 60 833 60 829 b 61 821 58 824 61 822 b 64 810 63 818 63 814 l 64 807 b 67 792 64 801 65 796 l 67 782 l 68 781 b 69 775 72 779 72 776 b 65 767 65 772 65 769 b 64 744 64 760 65 751 b 69 742 64 743 67 743 b 63 722 64 738 63 728 l 63 711 b 63 708 63 710 61 708 b 64 701 67 706 67 704 l 64 700 b 65 694 67 699 65 697 b 68 679 64 689 63 683 b 68 671 69 676 68 674 l 68 667 b 65 658 67 664 68 661 b 61 649 61 656 61 653 b 58 638 61 644 61 642 b 54 625 56 633 53 629 b 60 618 54 622 56 619 b 61 613 64 617 64 615 b 57 606 57 611 57 608 b 57 599 58 603 57 601 l 57 588 b 60 585 57 586 58 586 b 60 582 61 585 61 583 b 60 576 57 581 56 578 b 60 567 65 572 63 569 b 58 561 57 564 57 563 b 60 557 61 560 61 558 b 56 551 56 556 57 553 l 56 536 b 57 532 56 535 56 533 b 58 531 57 532 60 531 b 58 522 54 528 56 525 b 58 521 60 522 60 521 b 57 513 56 518 61 515 b 57 507 61 510 58 508 b 56 501 57 504 54 503 b 57 485 60 496 57 490 b 57 482 57 483 56 483 b 57 476 58 481 58 479 b 54 471 57 475 57 474 b 54 468 53 471 54 469 b 57 465 56 467 57 467 b 58 454 58 461 60 458 b 57 451 57 454 56 453 b 58 443 61 449 60 446 b 60 435 57 440 56 438 b 65 433 63 435 64 435 b 60 431 63 433 61 432 b 58 426 57 429 57 428 b 56 418 63 424 60 419 b 53 414 53 417 53 415 b 56 408 51 411 50 410 b 58 396 56 403 57 400 b 58 388 61 393 58 390 b 58 381 57 385 53 382 b 60 379 60 381 60 379 b 60 372 60 376 58 375 b 61 369 60 371 60 369 b 67 358 65 365 67 363 b 68 350 68 356 68 353 b 68 342 68 347 71 344 b 69 339 68 342 68 340 b 74 333 74 338 74 336 l 74 329 b 76 321 75 326 76 324 l 76 313 b 79 299 78 308 78 304 b 78 296 79 299 79 297 b 78 285 75 293 75 289 b 83 272 82 281 82 276 l 83 268 b 82 258 85 265 86 263 l 82 257 b 85 239 83 250 82 244 b 86 226 86 235 82 231 l 86 225 b 85 217 82 222 88 219 b 86 215 85 217 85 215 b 86 210 89 214 88 213 b 86 207 86 208 85 207 b 88 197 89 203 83 200 l 86 197 b 85 193 86 196 85 194 l 85 168 b 83 161 85 165 85 164 l 83 158 b 85 147 85 156 85 151 b 86 143 88 146 88 144 b 88 140 86 143 88 142 b 90 133 88 138 92 136 b 92 128 88 132 90 129 l 92 122 b 88 119 90 122 89 121 b 89 115 88 118 89 117 l 92 113 l 92 111 b 90 106 89 108 90 107 b 92 101 92 104 92 103 b 90 92 92 97 90 94 l 90 75 b 104 69 89 72 94 69 b 129 67 113 68 121 67 b 138 67 132 68 135 67 b 169 67 147 65 158 67 b 231 69 190 67 210 68 b 256 71 239 69 247 69 b 276 72 263 71 269 71 b 332 78 296 74 314 76 l 335 78 b 350 79 340 78 346 78 b 351 86 351 82 351 83 l 351 99 b 351 135 351 111 351 122 b 349 151 350 140 350 146 b 347 157 349 153 347 156 b 346 176 346 164 346 169 b 347 186 346 179 347 183 b 346 208 344 193 346 201 b 346 226 346 214 349 221 b 346 228 344 226 346 228 l 346 240 b 344 253 344 244 344 249 l 344 268 b 339 290 342 276 340 283 l 339 299 l 335 319 b 332 338 333 325 333 331 b 329 353 331 342 329 347 b 325 363 328 356 328 360 b 322 376 324 367 322 371 b 319 393 319 382 319 388 l 319 394 b 328 393 322 394 325 393 b 331 399 329 393 329 396 b 336 392 332 394 333 393 b 343 390 339 392 340 390 l 350 390 b 351 390 350 390 351 389 b 356 392 353 394 354 393 b 357 392 356 390 357 390 b 360 392 358 393 360 392 b 371 393 364 390 367 389 b 375 394 372 396 374 394 b 383 390 378 394 382 393 b 390 386 386 386 388 386 b 397 383 392 386 394 386 b 406 378 400 379 403 378 b 410 383 407 378 408 379 b 413 385 411 388 413 388 b 418 381 414 381 417 381 l 429 381 b 431 382 431 381 431 381 b 433 383 432 385 432 385 b 438 382 435 379 436 378 b 443 382 439 389 442 385 b 447 381 444 379 446 379 b 449 382 447 383 449 383 b 463 376 450 376 457 376 b 465 378 464 376 464 378 b 467 379 465 379 467 381 b 472 379 468 376 469 376 l 472 381 b 478 378 475 378 476 382 b 482 378 479 382 481 379 b 486 376 483 378 485 375 b 496 378 489 381 493 378 b 497 376 497 378 497 376 b 501 378 499 379 500 379 b 506 374 503 378 504 378 b 507 375 506 372 506 374 b 510 378 507 375 508 378 b 515 378 511 378 514 379 b 518 378 517 378 517 376 b 524 379 519 382 521 379 b 529 379 525 378 526 376 l 529 385 b 532 379 531 383 531 381 b 535 379 532 378 533 378 b 540 375 536 382 539 379 b 543 372 540 372 542 372 b 546 375 543 371 544 371 b 547 376 546 376 547 378 b 554 378 550 375 551 376 b 560 378 556 381 558 378 b 564 379 561 376 563 372 l 569 379 b 578 388 574 386 576 386 l 583 388 b 589 389 585 388 588 392 b 590 390 589 388 590 388 b 594 393 592 393 593 393 b 597 394 594 393 596 393 b 608 397 599 394 607 397 l 617 399 l 618 399 b 625 397 621 396 624 396 b 628 386 626 396 628 388 b 628 378 626 383 631 381 b 629 375 626 378 628 376 b 632 371 632 374 632 372 b 633 367 632 369 632 368 b 635 358 633 364 635 361 l 635 350 b 638 338 636 346 636 342 b 636 335 638 336 638 336 b 636 324 633 331 633 328 b 640 313 639 319 640 317 b 642 308 640 311 640 310 b 640 299 642 306 643 303 b 640 297 639 299 639 297 b 642 281 640 292 639 286 b 643 268 643 276 639 272 l 643 267 b 642 260 639 265 644 263 b 643 258 640 260 642 258 b 643 253 646 256 644 254 b 643 250 642 251 642 250 b 643 242 646 247 640 244 l 643 240 b 640 236 642 239 640 238 l 640 214 b 639 207 640 211 640 208 l 639 204 b 639 194 640 201 640 199 l 639 193 b 642 190 643 192 642 192 l 642 186 b 644 181 642 185 646 183 b 646 175 643 179 646 176 b 646 171 646 174 647 172 b 643 167 646 169 643 168 b 644 164 642 165 643 165 b 646 161 644 163 644 161 b 646 158 646 160 647 160 b 646 154 643 157 644 156 l 646 150 b 644 140 646 146 644 143 b 643 125 643 135 644 131 b 683 117 643 119 678 117 l 690 117 b 724 115 701 115 713 115 b 783 117 744 115 764 115 b 810 118 792 117 801 117 b 831 119 817 118 824 118 b 886 124 849 121 868 122 l 889 124 b 904 125 894 124 899 124 b 906 131 904 126 906 128 l 906 143 b 907 157 906 147 907 151 b 906 176 907 164 907 169 b 904 193 906 182 904 188 b 903 199 903 194 903 196 b 901 217 901 204 901 210 b 903 225 901 219 903 222 b 903 247 901 232 901 240 b 901 264 903 253 906 258 l 903 265 l 903 278 b 901 289 901 281 901 285 l 901 303 b 897 325 900 311 899 318 b 896 332 897 328 897 331 b 893 351 896 339 894 346 b 890 368 893 357 892 363 b 888 383 890 374 889 378 b 885 393 886 386 886 390 b 882 404 882 397 882 401 l 882 406 b 879 421 879 411 879 417 l 879 424 b 878 442 879 431 878 436 l 878 457 b 878 504 878 472 878 489 b 881 551 879 519 879 535 b 883 571 881 557 882 564 l 883 589 b 886 625 886 599 886 614 b 885 647 886 632 885 639 b 888 661 885 651 886 656 b 890 675 888 665 889 671 b 892 703 890 685 892 693 b 894 722 893 710 894 715 b 893 739 894 728 892 733 b 894 764 893 747 894 756 b 897 822 896 782 897 803 b 894 843 896 829 894 836 b 896 847 893 844 894 846 l 899 850 b 901 868 900 857 901 863 l 901 886 b 901 914 901 896 901 904 b 903 931 901 919 903 925 b 904 949 904 936 904 943 b 911 961 904 953 907 957 b 917 965 911 963 914 964 b 914 968 919 967 918 968 b 900 969 910 969 904 969 l 889 969 b 850 972 876 971 864 971 l 817 972 b 767 972 800 974 783 972 l 751 972 b 706 971 735 972 721 971 b 671 967 694 969 682 968 b 647 964 663 967 654 965 b 638 961 644 963 642 961 b 629 956 632 960 629 957 b 625 949 628 953 626 950 b 626 942 624 946 619 943 l 626 939 b 625 932 625 936 625 933 b 624 929 624 931 624 929 b 619 918 622 925 621 921 b 624 910 619 917 624 910 b 624 897 624 906 621 901 b 625 893 625 896 625 894 b 628 881 626 889 626 885 b 628 875 629 879 631 876 l 628 874 b 626 864 628 871 628 868 b 628 860 626 863 628 861 b 628 847 628 856 629 851 b 626 836 626 843 628 840 b 629 832 626 835 628 833 b 631 821 631 828 631 825 l 631 818 b 633 803 632 813 632 808 l 633 794 b 635 793 633 794 635 794 b 636 788 639 792 639 789 b 632 781 632 785 632 783 b 631 758 631 774 632 767 b 636 757 631 758 633 757 b 629 738 631 751 629 744 b 628 733 628 736 629 735 l 628 728 b 629 725 628 726 626 725 b 629 719 633 722 632 721 b 631 717 629 718 629 718 b 631 713 632 715 631 714 b 633 697 629 707 628 701 b 633 690 635 694 633 692 l 633 686 b 631 678 632 683 633 681 b 626 668 626 675 626 672 b 625 663 625 667 625 665 b 615 660 622 661 618 660 b 610 658 614 658 611 658 b 599 654 606 657 603 656 b 588 651 594 654 592 653 b 572 644 583 651 575 647 b 565 643 569 643 568 642 l 564 643 b 554 640 561 639 558 639 l 553 639 b 542 638 549 639 546 638 l 532 638 b 525 635 531 636 528 635 b 503 638 518 636 510 636 b 472 640 493 638 482 639 b 460 642 468 640 464 642 b 449 643 457 643 453 643 l 438 644 b 413 644 429 644 421 644 b 404 647 410 644 407 646 b 394 650 400 647 397 650 b 378 653 389 651 383 651 b 365 656 374 654 369 654 b 354 654 361 656 358 654 b 339 657 349 654 344 656 b 325 658 335 657 329 658 l 325 661 b 326 690 326 671 326 681 b 328 711 328 697 328 704 b 328 754 328 725 328 740 b 329 793 329 767 328 781 l 329 817 b 326 839 329 824 328 831 b 328 843 325 840 325 842 l 331 846 b 333 865 332 853 332 860 b 333 883 333 872 332 878 b 335 894 333 888 335 892 b 332 913 333 901 332 907 b 333 931 332 919 333 925 b 333 950 333 938 335 943 b 346 968 333 957 340 965 b 343 971 349 969 349 971 b 329 972 339 971 335 972 b 319 972 326 972 322 971 b 281 974 306 974 293 974 l 247 974 b 196 972 231 974 213 974 l 181 972 b 136 969 165 972 150 971 b 101 965 124 968 113 967 b 76 961 93 964 83 963 l 68 957 b 58 951 61 956 58 954 b 56 944 58 949 57 947 b 56 936 53 942 50 939 b 54 926 56 932 56 929 l 54 924 l 50 911 b 54 903 51 908 53 906 z "},"I":{"ha":424,"x_min":0,"x_max":0,"o":"m 44 890 b 44 889 46 890 44 890 l 44 882 b 43 879 43 881 43 879 b 42 867 42 875 42 871 b 44 861 43 864 44 863 b 47 849 46 857 43 853 b 49 844 49 847 49 846 b 53 833 50 840 50 836 b 53 828 54 831 56 829 l 53 813 b 56 801 54 808 56 806 b 54 790 54 797 56 793 b 57 786 54 788 56 788 b 60 775 58 782 58 779 l 60 772 l 65 750 b 67 749 65 750 65 749 b 67 743 71 747 69 744 b 64 736 63 740 64 739 b 64 715 63 729 64 722 b 69 713 64 714 67 714 b 64 704 65 710 64 707 b 63 694 64 700 64 697 b 64 689 63 693 64 690 l 64 685 b 64 681 64 683 63 682 b 65 675 68 679 68 678 l 65 674 b 67 669 68 672 67 671 b 69 654 67 664 65 658 b 71 647 72 653 71 650 l 71 643 b 68 636 71 640 72 638 b 65 626 64 632 65 629 b 63 615 65 622 65 619 b 58 603 60 611 57 607 b 64 597 58 601 60 599 b 65 593 68 596 69 594 b 63 585 61 590 61 588 l 63 568 b 65 567 63 567 64 567 b 67 564 68 565 67 565 b 65 557 63 561 63 560 b 65 549 72 554 69 551 b 65 543 64 547 63 544 b 65 540 68 543 68 542 b 63 535 63 538 63 536 l 63 519 b 64 517 63 519 64 518 b 65 514 65 517 67 515 b 67 507 63 513 63 510 l 67 506 b 64 499 64 503 69 501 b 65 497 64 499 64 497 b 65 492 69 496 67 494 b 64 488 65 490 63 489 b 65 471 68 482 65 476 l 65 469 b 67 464 68 468 68 467 b 63 458 67 463 67 461 b 64 456 61 458 64 457 b 67 453 65 456 67 454 b 68 443 68 450 69 446 b 68 440 67 442 67 442 b 69 432 72 438 69 435 b 69 425 68 429 67 426 b 76 424 72 424 75 424 b 71 421 74 422 71 422 b 69 415 68 419 68 418 b 67 408 74 414 71 410 b 64 404 64 407 64 406 b 67 400 63 401 63 400 b 69 397 68 399 69 399 b 71 388 68 394 69 390 b 71 379 72 385 71 382 b 72 372 69 376 65 374 l 72 365 b 74 361 72 364 72 363 b 81 351 79 358 81 356 b 82 344 82 349 82 347 b 83 336 82 342 86 339 b 85 333 82 336 83 335 b 89 325 86 332 89 328 b 92 317 90 322 90 319 b 93 308 92 314 92 311 l 94 296 b 94 293 96 294 94 294 b 94 282 92 289 92 285 b 100 271 99 278 100 275 b 101 267 101 269 101 268 b 100 257 103 264 104 261 l 100 256 b 103 239 101 250 101 244 b 106 226 106 235 101 231 b 106 225 107 226 107 225 b 106 218 103 222 108 221 b 107 215 104 217 106 217 b 107 211 110 214 108 213 b 108 199 107 208 107 200 b 107 194 107 197 107 196 l 107 171 l 108 164 b 107 161 108 163 107 161 b 110 150 110 158 110 154 b 111 147 113 149 113 149 b 113 143 111 146 113 144 b 115 138 113 142 117 140 b 118 132 114 136 117 133 l 118 128 b 115 124 117 126 115 125 b 117 119 114 122 115 121 b 118 117 117 119 118 118 l 119 115 b 118 110 115 114 118 113 b 119 106 119 108 119 107 l 119 81 b 136 76 119 78 125 76 l 161 76 b 200 79 164 79 196 79 b 260 88 221 82 240 85 l 285 92 b 307 94 293 92 300 93 l 361 104 b 379 108 365 104 375 107 b 381 114 379 110 381 113 b 379 126 379 118 379 122 b 379 139 378 131 379 135 b 376 158 378 146 376 151 b 372 174 375 163 374 168 b 371 178 372 175 371 176 b 368 196 369 185 368 190 b 368 204 368 199 369 201 b 367 225 367 211 367 218 b 365 242 365 231 368 236 b 365 243 364 242 365 243 l 363 267 l 363 272 b 361 278 363 275 361 276 l 361 281 l 356 301 b 354 308 354 303 356 306 l 346 343 b 342 357 344 349 343 353 b 339 367 342 361 340 364 b 336 379 336 371 335 375 b 332 394 332 385 332 390 l 332 397 l 329 415 b 328 429 329 419 329 425 b 325 440 328 433 326 438 l 325 476 l 326 524 l 326 581 b 326 597 326 586 328 592 b 325 619 326 606 325 613 b 326 633 325 624 325 629 b 328 649 326 638 328 643 l 328 676 b 329 696 329 682 329 689 b 326 713 329 701 326 707 b 326 738 326 721 328 729 b 325 775 326 750 326 763 l 325 797 l 321 818 b 322 824 319 819 319 821 b 324 826 324 824 324 825 b 325 844 325 832 325 839 b 325 874 325 854 325 864 l 321 890 l 321 926 b 325 942 319 932 322 936 b 331 946 326 943 329 944 b 328 949 333 947 332 949 b 314 947 324 949 318 949 l 303 947 b 182 936 264 947 221 943 b 165 935 176 936 171 935 b 121 928 150 933 136 931 b 88 921 110 925 99 924 b 64 914 79 918 69 917 b 46 904 60 914 46 908 b 43 897 46 903 44 900 b 44 890 42 896 39 893 z "},"J":{"ha":663,"x_min":0,"x_max":0,"o":"m 28 69 l 35 63 b 51 53 40 60 46 57 b 69 40 58 49 64 43 b 100 24 79 33 90 29 b 128 13 110 19 118 17 b 138 10 131 11 135 11 b 169 -4 147 4 158 0 b 186 -11 175 -6 181 -10 b 229 -24 201 -15 215 -21 b 247 -29 235 -25 240 -28 b 265 -32 253 -31 258 -32 b 269 -32 267 -31 268 -32 b 297 -35 279 -33 289 -35 b 325 -36 307 -36 315 -36 l 340 -35 l 351 -35 b 358 -33 354 -33 357 -33 b 407 -21 375 -31 392 -26 b 426 -15 414 -19 421 -18 b 449 -7 433 -12 440 -10 b 469 4 456 -3 463 1 b 489 15 476 8 482 13 b 507 29 494 19 501 25 b 535 56 517 38 526 46 b 553 76 542 63 547 69 b 571 103 558 86 564 94 b 572 106 571 104 572 106 b 590 143 578 119 583 131 b 592 149 592 144 592 147 b 606 192 599 164 603 178 b 613 222 608 201 611 213 b 614 246 613 231 613 239 b 618 313 617 271 617 292 b 617 388 618 340 617 363 b 615 417 615 397 617 407 l 615 444 l 613 474 b 611 500 613 482 613 490 b 606 532 610 510 607 521 l 606 575 b 601 615 604 589 603 601 b 600 646 601 625 601 636 b 594 669 599 654 596 661 b 590 706 593 682 593 694 b 583 761 589 724 586 743 b 579 792 582 771 581 782 b 571 822 576 801 574 811 b 572 829 571 824 569 826 b 574 833 574 831 574 832 b 572 860 574 842 572 851 l 568 885 b 567 900 567 890 568 894 b 561 925 565 908 563 917 b 558 949 560 932 560 940 b 554 975 557 957 557 967 b 558 994 554 981 556 988 b 563 1001 558 997 561 999 b 558 1006 565 1003 564 1006 b 546 1004 556 1006 550 1004 b 535 1003 542 1004 539 1003 b 496 999 522 1003 510 1000 b 464 994 486 997 475 994 l 414 986 b 399 982 408 985 403 983 b 354 971 383 981 368 975 b 321 961 343 968 332 964 b 299 951 313 958 304 956 b 281 926 288 946 281 939 b 283 915 279 922 276 918 l 283 897 b 282 881 283 892 283 886 b 283 878 282 881 283 879 b 288 869 285 875 288 872 b 292 853 289 864 288 858 b 294 846 293 851 293 849 b 300 829 296 840 297 835 b 301 821 301 826 303 824 l 301 819 b 303 806 301 815 303 810 b 304 799 303 803 304 801 b 308 782 306 793 308 788 b 313 760 308 776 308 764 b 317 744 315 754 315 750 l 326 708 b 328 706 326 707 328 707 b 331 697 333 704 332 700 b 328 688 326 694 326 690 b 332 657 329 676 331 667 b 338 654 332 654 335 654 b 333 640 335 649 333 644 b 335 626 333 636 333 631 l 335 619 l 336 613 b 338 608 336 611 335 608 b 339 600 342 606 342 603 b 340 597 339 600 339 599 b 340 590 342 596 340 593 b 347 569 342 583 342 576 b 349 560 349 567 349 564 l 349 554 b 347 543 349 550 350 547 b 344 529 344 538 344 533 b 344 515 346 525 347 519 b 342 497 342 508 340 503 b 349 489 342 493 343 492 b 350 482 353 488 353 485 b 347 472 346 479 347 475 b 349 464 349 469 347 467 b 350 447 349 458 349 453 b 353 446 350 447 350 446 b 353 442 354 444 354 443 b 353 433 350 439 350 435 b 354 421 360 429 357 425 b 354 414 353 418 351 417 b 356 408 357 413 357 411 b 353 401 351 407 353 404 l 353 381 b 354 376 353 379 354 378 b 357 374 356 376 357 375 b 357 364 353 371 354 367 b 357 361 358 364 358 363 b 356 351 356 358 361 356 l 356 350 b 357 343 360 349 358 346 b 356 336 357 340 354 339 b 357 315 360 329 357 322 l 357 314 b 358 307 360 311 360 310 b 354 301 358 306 358 303 b 356 299 353 301 354 300 b 358 294 356 297 358 296 b 358 286 360 292 360 289 b 358 283 358 285 357 283 b 358 276 363 281 360 279 b 358 271 357 275 356 272 b 364 269 361 269 363 269 b 358 268 361 268 360 268 b 357 265 356 267 356 267 b 353 263 360 263 357 263 b 349 261 350 263 350 261 b 351 258 349 261 347 261 b 354 257 353 258 354 258 b 354 256 351 257 353 257 b 354 254 356 254 354 254 b 353 254 347 257 351 254 b 354 254 353 254 354 254 l 361 249 b 360 247 360 249 363 246 b 361 246 360 247 360 247 b 361 243 363 244 363 243 l 361 242 b 360 239 361 242 361 240 b 357 238 360 239 358 238 b 353 233 357 236 354 235 l 351 233 b 346 232 349 236 347 236 b 338 225 344 229 342 228 b 331 226 335 225 333 222 l 329 226 b 318 225 325 225 322 226 b 308 224 315 224 313 228 b 303 226 307 228 306 222 b 301 226 303 228 303 226 b 297 226 300 224 299 225 b 294 228 297 228 296 228 b 288 228 292 225 290 231 b 283 232 286 231 285 232 b 269 238 279 233 275 235 b 263 240 268 239 265 239 b 257 244 261 242 258 243 b 246 250 256 244 247 249 b 243 250 244 250 244 251 b 239 250 240 247 240 249 b 235 251 239 250 236 250 b 228 251 233 251 229 249 b 221 254 226 254 224 253 b 217 257 219 254 218 256 b 214 261 215 258 215 261 b 210 263 214 263 211 263 l 206 263 b 193 269 206 267 196 269 b 183 278 190 272 188 275 b 167 289 178 282 172 286 b 151 282 164 292 158 290 b 136 263 146 276 140 269 b 132 256 135 260 133 258 b 113 229 124 249 118 239 b 82 178 101 213 92 194 b 69 156 78 169 74 163 b 60 136 67 149 63 142 l 35 85 b 28 69 31 79 29 74 z "},"K":{"ha":939,"x_min":0,"x_max":0,"o":"m 42 950 l 42 939 b 40 936 42 939 40 938 b 38 924 40 932 39 928 l 39 922 b 43 915 40 919 42 918 b 44 903 43 911 42 907 b 47 897 46 901 47 900 b 51 885 49 893 49 889 b 51 879 53 883 54 881 l 51 867 b 53 863 51 865 53 864 b 54 849 54 858 56 854 b 54 836 54 844 56 840 b 57 832 54 835 56 833 b 60 821 60 829 60 825 b 61 818 60 819 60 818 l 65 793 l 67 792 b 68 785 71 789 71 788 b 64 776 64 782 64 779 b 65 754 64 769 65 761 b 71 751 65 753 68 751 b 65 742 67 747 65 744 l 65 719 b 67 717 65 718 64 717 b 68 710 71 714 69 713 b 68 708 67 710 67 708 b 68 703 69 707 68 704 b 72 686 68 697 67 692 b 72 679 74 685 72 682 l 72 675 b 71 665 72 672 74 668 b 67 656 67 663 67 658 b 65 644 67 651 67 649 b 60 631 61 640 60 635 b 67 624 60 628 63 626 b 68 618 69 622 71 621 b 64 611 64 617 64 614 l 64 592 b 67 590 64 592 65 590 b 68 588 69 589 68 589 b 67 581 64 585 63 582 b 67 571 74 578 71 574 b 67 565 65 568 64 567 b 67 561 68 564 69 563 b 63 539 63 560 63 543 b 64 536 63 539 64 538 b 67 533 65 535 67 535 b 67 526 63 531 63 529 l 67 524 b 64 515 64 521 69 518 b 65 510 68 514 65 511 b 63 504 64 507 61 506 b 64 486 67 499 64 492 l 64 485 b 65 479 65 483 65 481 b 61 474 64 476 65 475 b 61 471 60 472 61 471 b 65 467 63 469 65 468 b 65 457 65 463 67 460 b 64 453 64 456 63 454 b 65 444 69 450 67 447 b 67 436 64 442 63 439 b 72 435 68 435 71 435 b 67 432 69 433 67 433 b 65 426 64 431 64 428 b 61 418 68 424 65 421 b 58 414 58 417 60 415 b 61 410 57 413 57 411 l 64 407 b 64 396 63 403 63 400 b 63 386 67 393 64 390 b 64 381 63 385 58 382 b 64 379 65 379 64 379 l 64 372 b 65 368 64 371 64 369 b 72 357 71 364 71 361 l 72 349 b 72 340 72 346 75 343 b 74 336 71 339 72 338 b 76 332 76 335 76 333 b 78 328 76 331 76 329 b 79 318 78 325 79 321 l 79 310 l 81 296 b 79 293 81 294 81 293 b 79 281 76 289 76 285 b 83 268 82 276 83 272 l 83 264 b 82 254 83 261 86 257 b 82 251 81 253 82 253 b 82 233 82 246 81 240 b 83 219 83 229 79 225 b 81 211 79 217 85 214 b 82 208 81 210 82 210 b 82 203 85 207 83 206 b 82 200 81 203 81 201 b 82 190 85 196 79 194 l 81 190 b 79 186 81 189 79 188 l 75 153 l 75 151 b 74 140 76 147 75 144 b 75 139 74 140 74 139 b 76 135 78 138 76 136 l 76 131 b 79 125 76 129 81 126 b 79 118 76 124 79 121 b 79 114 79 117 81 115 b 75 110 79 113 76 111 b 76 106 75 108 76 107 b 78 101 76 106 78 104 b 76 96 75 100 76 97 b 76 90 78 94 78 92 b 75 81 76 88 75 85 b 72 65 74 75 74 71 b 86 57 72 61 76 58 b 111 51 94 54 103 53 l 118 51 b 151 46 129 49 140 47 b 211 43 171 44 192 43 b 236 42 219 42 228 42 b 258 40 244 40 251 40 l 317 40 b 332 40 322 39 326 40 b 335 47 333 43 333 44 l 335 61 l 339 78 l 339 100 b 338 119 339 107 338 113 l 338 146 b 339 157 338 150 340 153 b 340 182 339 165 340 174 b 342 201 342 189 344 194 l 342 203 b 343 217 342 208 343 213 l 343 247 l 340 272 l 340 281 l 338 303 b 335 324 336 310 336 317 b 332 340 335 329 333 335 b 331 351 332 343 332 347 b 328 365 328 356 328 360 l 328 367 b 325 385 325 372 325 378 l 325 389 b 328 392 326 390 328 390 b 336 397 331 393 333 394 b 350 411 340 403 346 407 b 361 421 354 414 360 415 b 364 422 363 422 363 422 b 371 429 367 425 369 426 l 375 433 b 385 425 376 429 378 426 b 389 418 385 425 389 419 b 392 411 390 415 393 414 b 392 401 389 407 390 404 b 396 393 394 400 396 397 b 397 382 394 389 394 385 b 406 381 399 381 400 379 b 408 378 408 382 410 381 b 408 371 406 374 407 372 b 411 367 410 369 411 368 b 417 358 414 364 415 361 l 419 358 b 421 357 422 360 422 358 b 424 353 419 354 419 351 b 428 346 431 354 429 350 b 431 342 428 343 428 342 b 432 340 432 343 433 342 b 432 335 431 336 432 336 b 439 324 435 331 436 326 b 442 322 439 322 440 322 b 444 321 442 321 444 322 b 447 315 442 317 443 315 l 449 315 b 450 308 447 311 453 313 l 451 308 b 454 304 454 308 454 306 b 454 300 454 303 453 300 b 464 289 461 299 461 293 l 464 288 b 468 285 467 288 468 286 b 467 278 468 282 469 282 b 469 276 467 276 468 276 l 474 276 b 478 269 475 274 478 272 b 479 267 478 268 478 267 b 485 263 485 268 483 264 b 489 257 485 260 485 257 b 494 260 492 258 493 258 b 490 254 493 257 492 256 b 493 250 490 251 490 250 b 494 243 497 250 496 246 b 493 238 492 240 493 239 b 497 236 493 236 493 235 b 501 236 500 238 501 236 b 507 231 501 233 504 231 b 511 222 510 229 510 225 b 515 219 511 221 508 217 l 515 218 b 518 214 517 217 517 215 b 522 213 519 213 521 213 b 532 208 528 213 531 211 b 538 204 533 207 536 206 b 542 199 538 201 542 201 b 544 197 540 197 542 197 b 549 196 547 197 549 196 b 551 193 550 194 551 194 b 558 189 554 192 556 190 b 563 183 560 188 561 185 l 571 175 b 572 172 571 175 572 174 b 578 165 571 168 574 165 b 588 160 582 164 585 163 l 590 157 b 596 149 593 156 596 154 b 614 129 599 146 611 131 l 615 129 b 618 122 614 125 619 126 l 619 122 b 624 119 622 122 624 121 b 625 117 622 118 624 117 b 631 111 628 117 626 111 l 629 110 b 631 107 631 108 631 107 b 639 96 633 103 636 99 b 643 89 640 93 642 92 l 647 85 b 649 82 647 83 647 83 b 656 75 651 81 653 79 b 658 75 658 76 658 75 b 661 72 658 74 661 74 b 667 69 663 71 667 72 b 671 67 667 68 669 68 b 674 64 672 67 674 65 b 674 60 674 63 672 60 b 676 57 674 58 675 58 l 679 57 b 683 51 679 53 682 53 b 686 50 685 51 686 50 l 690 42 l 700 32 b 714 38 701 29 706 31 b 733 53 721 42 728 47 b 739 57 736 54 738 56 b 764 79 749 64 756 72 b 808 121 779 93 793 107 l 826 139 b 840 154 831 143 836 149 l 879 194 b 882 196 881 194 881 196 b 892 207 886 200 889 203 b 890 211 892 208 892 210 l 883 218 b 878 228 881 221 881 225 b 867 239 874 232 869 235 b 856 247 863 242 860 244 b 853 249 854 247 853 249 b 843 260 849 253 846 256 b 839 265 840 261 840 264 b 826 279 833 269 831 275 b 818 289 824 282 824 288 l 818 290 l 803 310 b 797 314 801 310 800 311 l 783 325 l 768 340 b 757 350 764 343 761 347 b 747 357 754 353 750 354 b 740 363 744 358 743 361 b 732 368 736 364 733 365 l 732 369 b 722 378 726 371 724 375 l 721 379 b 703 401 714 386 708 393 b 696 408 700 403 697 406 l 658 468 b 650 482 656 472 653 478 b 643 496 649 488 646 492 l 633 510 b 626 522 631 514 629 518 b 614 538 622 528 618 532 b 608 549 613 540 611 544 b 604 560 607 551 606 557 l 592 581 b 583 596 589 586 586 592 b 574 607 581 600 576 603 b 553 640 567 617 558 629 l 574 661 b 586 672 578 665 582 668 b 597 689 590 678 593 683 b 607 697 600 692 604 694 b 618 706 611 700 615 703 b 650 738 628 714 642 728 b 658 750 653 740 656 746 b 674 767 663 756 669 760 b 696 793 682 775 689 783 b 710 808 701 799 706 803 b 719 825 713 814 715 819 b 724 828 719 826 721 828 l 726 828 l 739 840 b 749 853 743 844 746 849 b 756 860 751 856 754 857 b 764 874 758 864 760 869 b 774 886 767 878 771 882 b 785 899 778 890 782 894 b 797 906 786 903 792 904 l 804 906 b 803 910 807 904 807 906 b 793 917 800 911 796 914 b 783 924 789 919 786 921 b 753 947 774 932 764 939 b 725 967 743 953 735 960 b 685 996 713 976 699 986 b 671 1004 679 999 675 1001 b 603 1046 649 1019 626 1033 b 581 1057 596 1050 588 1054 b 572 1060 578 1058 575 1058 b 561 1061 567 1063 563 1063 b 556 1058 561 1060 558 1060 b 553 1053 553 1058 549 1058 l 553 1051 l 547 1047 b 544 1046 546 1047 546 1046 b 536 1040 542 1044 539 1043 l 536 1039 b 535 1033 536 1038 536 1035 b 531 1025 533 1031 531 1029 b 529 1021 531 1022 529 1022 b 522 1007 528 1018 525 1007 l 522 1006 l 517 1000 b 514 997 515 999 515 997 b 508 988 513 993 511 990 b 501 982 506 986 504 983 b 501 976 500 981 501 978 b 497 968 501 974 499 971 l 496 967 b 490 956 494 963 492 958 l 486 950 l 486 947 b 483 943 489 943 488 943 b 476 942 479 944 478 943 b 465 928 472 936 469 932 b 468 922 464 926 467 925 b 458 919 464 922 460 922 b 453 915 457 918 454 917 b 450 911 451 914 450 913 l 446 908 b 446 906 446 908 444 907 b 443 901 447 903 446 901 b 440 897 443 899 440 897 b 433 885 436 894 433 892 b 431 881 433 883 432 882 l 428 878 b 422 875 426 876 425 874 b 413 871 417 875 415 874 b 406 867 411 869 410 867 b 394 863 400 867 397 865 b 396 854 393 861 393 858 b 394 850 397 851 397 849 b 388 849 389 851 388 850 l 383 844 b 378 838 382 843 379 840 b 378 835 376 838 376 836 b 376 833 379 833 378 832 b 372 829 374 833 371 833 b 368 824 376 824 372 824 b 364 821 365 824 364 824 b 363 819 365 819 365 818 b 357 818 360 819 358 818 b 347 810 354 815 351 813 l 347 806 b 347 804 347 806 349 804 b 342 799 343 804 342 803 b 336 796 339 799 342 793 l 336 794 b 333 790 338 790 335 792 b 329 789 332 790 329 792 b 328 786 329 789 328 788 b 326 822 328 799 326 810 b 325 847 325 831 326 839 b 319 871 324 854 321 863 b 321 876 319 872 319 874 b 324 879 322 878 324 878 b 324 900 324 886 325 893 b 322 933 324 903 322 932 b 318 953 321 939 319 946 l 318 972 b 317 993 318 979 317 986 b 321 1008 315 997 318 1003 b 326 1014 322 1010 324 1013 b 322 1017 329 1015 328 1017 l 310 1017 b 299 1015 306 1015 301 1015 b 260 1013 286 1015 274 1014 l 226 1008 b 176 1003 210 1007 193 1004 b 161 1000 171 1001 167 1000 b 117 992 146 999 131 994 l 83 983 b 60 976 75 982 65 979 b 50 972 57 975 54 974 b 42 965 44 969 42 968 b 39 958 42 963 40 960 b 42 950 38 956 35 951 z "},"L":{"ha":683,"x_min":0,"x_max":0,"o":"m 32 951 l 32 938 b 31 932 32 936 32 933 b 29 915 31 926 29 921 b 31 913 29 915 31 914 b 33 904 32 910 33 907 b 38 886 35 897 33 892 b 39 878 39 883 39 881 b 44 861 40 872 40 867 b 44 851 46 857 47 856 l 44 850 b 47 829 44 847 46 832 b 50 811 47 824 50 817 b 50 793 49 804 50 799 b 53 788 50 790 53 789 b 57 771 56 782 56 776 l 65 733 b 67 731 65 732 65 732 b 68 722 71 729 71 725 b 65 711 64 718 65 715 b 68 679 65 701 68 690 b 74 676 68 678 71 678 b 69 663 71 672 69 667 l 69 643 l 71 636 b 71 631 71 635 69 632 b 74 624 76 629 75 626 b 74 621 72 624 74 622 b 75 615 76 619 75 617 b 79 594 75 608 74 600 b 81 585 81 592 79 588 b 79 579 81 583 81 581 b 78 568 79 575 81 571 b 74 554 74 564 74 560 b 72 540 74 550 75 546 b 68 524 69 535 67 529 b 74 515 68 519 69 517 b 75 508 78 513 78 510 b 71 497 71 504 71 501 b 71 489 72 494 71 492 l 71 474 b 74 471 71 472 72 471 b 75 467 76 469 75 468 b 74 458 71 464 69 461 b 74 446 81 454 76 450 b 72 439 71 443 71 442 b 74 433 75 438 75 435 b 69 426 69 431 69 428 b 69 400 69 418 69 408 b 71 397 71 400 72 399 b 71 388 67 394 68 390 b 71 385 71 386 72 385 b 68 374 68 381 74 376 l 68 372 b 69 365 72 371 69 368 b 67 358 68 363 65 360 b 67 335 69 350 67 343 b 67 332 67 333 65 333 b 67 325 68 329 68 328 b 63 317 67 322 67 319 b 64 313 61 317 63 314 b 67 308 64 311 67 310 b 65 294 67 303 67 299 b 65 290 65 293 64 292 b 65 279 69 286 67 282 b 65 267 64 275 63 271 b 71 265 68 265 69 265 b 65 260 69 263 67 261 b 65 251 64 257 63 254 b 60 236 67 246 64 240 b 57 226 58 232 58 229 b 61 217 57 222 56 219 b 63 210 63 215 64 213 b 67 186 63 203 64 194 b 69 172 68 181 69 176 b 71 158 69 168 69 163 b 78 138 72 151 69 143 b 79 133 78 138 79 135 b 88 111 82 126 85 119 b 97 99 90 107 93 103 l 113 83 b 128 65 117 78 122 71 b 153 42 136 57 144 50 b 181 24 163 35 174 32 b 194 19 185 21 190 19 b 211 14 200 19 206 17 b 226 11 217 13 222 11 b 253 7 235 8 244 7 b 276 4 261 6 268 4 b 306 4 288 3 297 4 l 311 4 b 332 4 319 0 326 1 b 349 10 338 7 343 8 l 354 10 b 368 10 360 11 364 14 b 372 10 369 8 371 10 b 396 13 381 11 389 10 b 415 15 403 14 408 11 l 417 15 b 428 14 419 11 424 17 b 431 15 428 14 429 14 b 438 17 432 18 435 18 b 443 15 439 15 440 15 b 454 17 446 19 451 14 b 461 15 458 17 460 15 l 510 15 b 524 17 515 17 519 18 b 526 17 525 15 526 15 b 531 19 528 21 529 19 l 536 19 b 544 24 539 21 542 25 b 554 25 547 21 550 25 l 560 25 b 565 22 561 25 564 22 b 571 24 567 22 569 22 b 575 25 572 24 574 25 b 578 26 575 26 576 26 b 585 25 579 22 582 25 b 592 26 586 26 589 26 b 626 26 603 26 615 26 b 636 42 632 26 635 31 b 638 67 638 50 638 57 l 638 74 b 638 107 639 85 638 96 b 632 167 638 126 635 147 b 629 192 632 175 631 183 b 626 213 629 199 628 206 l 618 268 l 618 271 b 614 286 617 276 617 282 b 586 286 604 286 596 286 b 567 288 581 286 574 288 b 536 285 557 286 547 285 b 513 281 529 283 521 282 b 506 279 510 281 507 279 b 478 276 496 278 488 278 b 464 278 474 276 469 278 b 432 275 454 275 443 275 b 408 274 424 275 415 278 l 388 274 l 360 271 l 349 271 l 322 265 l 326 314 l 331 385 b 333 415 332 396 333 406 b 335 443 335 425 335 433 l 336 474 l 336 500 b 335 535 336 513 335 524 b 336 557 335 542 335 549 b 338 579 336 564 338 572 b 336 624 338 594 338 608 l 336 656 b 332 682 335 665 332 674 b 324 775 329 713 326 744 b 321 807 322 786 322 796 b 314 838 319 817 317 828 b 315 844 314 839 314 842 b 317 849 317 846 317 847 b 317 875 317 857 318 867 b 314 900 317 883 315 892 b 314 917 314 906 315 911 b 310 940 313 925 310 932 b 308 965 308 949 310 957 b 307 992 308 974 308 983 b 313 1011 307 999 308 1004 b 317 1017 313 1013 315 1015 b 314 1021 319 1019 319 1021 l 290 1021 b 251 1019 276 1022 264 1021 b 218 1018 240 1019 229 1018 b 167 1014 201 1017 185 1015 b 151 1011 163 1013 157 1013 b 107 1004 136 1011 122 1007 l 74 996 b 50 988 65 993 56 992 b 40 983 46 986 44 985 b 32 974 35 981 32 976 b 29 963 32 969 31 967 b 32 951 28 960 25 956 z "},"M":{"ha":1022,"x_min":0,"x_max":0,"o":"m 39 929 l 39 919 b 35 904 39 917 36 907 l 36 903 b 40 897 38 901 39 899 b 43 885 40 893 39 889 b 44 881 44 883 44 882 b 49 868 46 876 46 872 b 49 863 50 867 51 864 l 49 861 l 50 851 l 50 847 b 53 835 51 843 53 839 b 51 822 51 831 53 826 b 54 818 51 821 54 819 b 58 808 57 815 57 811 l 58 804 l 64 782 b 65 781 64 781 64 781 b 67 774 69 779 69 776 b 63 767 63 772 63 769 b 64 744 63 760 64 751 b 69 743 64 743 67 743 b 64 733 65 739 64 736 b 64 724 65 729 64 726 l 64 713 b 65 710 64 711 64 710 b 67 704 69 708 69 706 l 67 701 b 68 697 69 700 68 699 b 72 682 68 692 67 686 b 72 675 74 679 72 676 l 72 671 b 71 663 72 668 74 665 b 67 651 67 658 67 656 b 65 642 67 649 68 644 b 61 628 61 638 60 633 b 67 622 61 626 63 624 b 68 618 71 621 72 619 b 65 610 64 615 64 613 l 65 592 b 68 590 65 592 67 590 b 69 588 71 590 71 589 b 68 582 65 586 65 583 b 69 572 75 579 72 575 b 68 567 67 571 65 568 b 69 564 71 565 71 565 b 67 558 65 561 67 560 b 65 543 65 553 65 547 b 67 539 65 542 67 540 b 69 538 68 539 69 538 b 69 531 65 535 67 532 b 69 528 69 529 71 529 b 68 521 67 525 72 524 b 68 519 67 521 68 519 b 68 514 72 518 69 517 b 67 508 68 513 65 511 b 68 493 71 504 68 499 l 68 490 b 69 486 71 489 71 488 b 65 481 68 483 69 482 b 67 478 64 479 65 478 b 69 474 67 476 69 475 b 69 464 71 471 71 468 b 69 461 69 463 68 463 b 71 453 74 458 72 456 b 72 444 71 450 68 447 l 78 444 b 72 442 75 443 74 442 b 72 436 71 439 69 438 b 68 428 75 433 72 431 b 65 424 65 426 65 425 b 68 419 64 422 64 421 b 71 417 69 419 71 418 b 72 408 69 414 69 411 b 71 399 74 404 72 401 b 72 392 71 396 65 394 l 72 385 b 74 381 72 383 72 382 b 82 363 81 378 82 369 b 82 356 82 360 85 358 b 83 351 81 354 82 353 b 89 335 86 350 89 339 b 90 326 90 332 90 329 l 92 314 l 92 311 b 92 300 88 307 88 303 b 96 288 94 296 94 292 l 96 283 b 94 274 97 281 99 278 l 94 272 b 96 256 96 267 94 261 b 97 242 97 251 94 246 l 99 242 b 96 233 94 239 100 236 l 97 232 b 97 226 100 231 99 229 b 97 224 97 225 96 225 b 99 215 100 221 94 218 l 97 214 b 96 210 97 213 96 211 b 94 194 94 206 94 200 l 94 186 l 93 179 l 93 176 b 93 167 94 174 94 171 b 93 165 92 167 92 165 b 96 163 97 164 96 164 b 96 158 94 161 96 160 b 99 153 96 157 100 156 b 100 147 97 151 99 149 l 100 142 b 96 139 99 140 96 140 b 97 135 96 138 96 136 b 99 131 97 135 99 133 b 99 125 96 129 97 126 l 99 121 b 96 111 99 118 97 114 l 96 96 b 110 89 94 93 100 90 b 135 86 118 88 126 86 b 142 85 138 86 140 86 b 175 83 153 83 164 83 b 235 82 196 82 215 82 l 282 82 l 338 85 l 340 85 b 356 86 346 85 351 85 b 357 92 357 88 357 89 b 358 106 358 96 357 101 b 360 119 358 110 360 115 l 360 142 b 357 160 358 147 358 153 b 356 165 357 161 357 164 l 356 185 b 357 194 356 188 357 192 b 357 218 356 203 357 210 b 357 236 357 224 360 229 l 357 276 b 356 279 356 276 357 278 b 353 301 354 286 354 294 b 351 311 351 304 351 308 l 349 331 b 346 350 347 338 346 343 b 342 365 344 354 343 360 b 339 375 340 368 340 372 b 336 388 336 379 336 383 l 336 389 b 333 406 333 394 332 400 l 333 408 l 331 428 l 331 443 b 328 456 329 447 328 451 l 328 494 l 329 544 l 329 560 l 331 560 b 336 556 332 557 333 556 b 340 551 339 556 339 553 b 343 549 340 550 338 546 b 347 546 344 547 346 547 b 350 546 347 546 349 544 b 358 544 354 547 357 546 b 363 542 360 544 363 543 l 364 542 l 378 528 b 446 464 397 504 422 483 b 465 446 453 458 458 453 b 481 432 471 442 476 438 l 526 394 b 538 385 529 392 533 388 b 549 394 540 388 546 393 b 567 413 554 400 561 407 b 572 424 568 417 571 419 b 575 428 574 425 574 426 b 583 438 578 431 581 435 b 589 443 585 440 588 440 b 600 456 592 447 596 451 b 608 465 603 458 608 460 l 610 465 l 628 486 b 638 503 632 493 635 499 b 640 508 639 506 640 507 l 649 521 b 656 533 651 525 653 529 b 661 543 657 536 658 540 b 668 560 661 546 665 558 b 675 571 669 565 672 568 b 676 574 675 572 675 572 l 682 582 b 683 581 683 582 683 581 b 685 578 683 579 686 578 b 685 569 682 575 682 572 b 685 568 686 569 686 568 b 683 560 682 565 688 563 b 683 554 688 557 685 556 b 682 547 683 551 681 550 b 683 531 686 542 683 536 b 683 529 683 531 682 529 b 683 522 685 526 685 525 b 679 517 683 521 683 519 b 681 514 678 517 681 515 b 683 511 682 513 683 513 b 683 500 685 507 685 504 b 683 497 683 499 682 497 b 685 489 688 494 686 492 b 686 479 683 486 682 482 l 692 479 b 686 475 689 478 686 476 b 685 471 683 474 683 472 b 682 463 688 468 686 464 b 678 457 679 460 679 458 b 681 453 678 456 676 454 b 683 450 683 451 683 451 b 685 440 682 447 683 443 b 683 431 688 436 685 433 b 685 424 683 428 679 425 b 686 415 685 419 685 418 b 688 411 686 414 686 413 b 693 400 692 408 693 404 b 694 392 694 397 694 394 b 694 383 694 389 697 386 b 697 381 694 382 694 381 b 700 375 700 378 700 376 l 700 371 b 703 361 701 368 703 365 b 704 353 703 358 703 356 l 706 339 l 706 336 b 706 324 701 332 703 328 b 711 311 708 319 710 315 l 711 307 b 710 296 713 304 714 300 l 710 294 b 713 276 711 288 710 282 b 714 263 714 271 711 267 b 715 261 715 263 715 261 b 714 253 711 258 717 256 b 715 251 713 253 714 251 b 715 246 718 250 717 247 b 715 242 714 244 714 243 b 717 232 718 239 713 236 l 715 232 b 714 228 715 231 714 229 l 714 192 b 715 179 715 188 715 185 b 718 176 719 178 718 178 b 718 172 717 175 718 174 b 721 165 718 169 724 168 b 724 158 719 164 722 161 l 724 154 b 721 150 724 153 721 151 b 722 146 719 149 721 147 b 724 143 722 146 724 144 l 725 142 b 724 136 721 139 722 138 b 725 131 725 135 725 133 b 725 104 725 122 725 113 b 740 97 725 100 729 99 l 765 97 b 772 99 768 99 769 99 b 806 99 783 97 794 99 b 865 106 825 100 846 103 b 890 108 874 107 882 108 b 911 111 897 110 904 111 l 967 121 l 969 121 b 985 124 975 121 979 122 b 986 129 985 125 986 128 b 985 143 985 133 985 139 b 985 157 985 147 986 153 b 982 178 985 164 983 171 b 979 194 982 183 981 189 b 978 200 979 196 978 199 b 975 219 976 207 976 213 b 976 229 975 222 976 225 b 975 251 974 236 975 244 b 974 268 975 257 976 263 l 974 283 l 972 296 l 972 303 l 971 308 l 971 311 l 967 333 b 965 342 965 336 965 339 l 961 363 b 958 381 961 368 960 374 b 956 396 957 385 956 390 b 951 406 954 399 954 403 b 949 418 950 410 949 414 b 949 419 949 419 950 419 b 946 436 946 425 946 431 l 946 439 b 943 474 946 446 944 468 b 942 486 943 478 942 482 b 943 525 942 500 942 513 l 944 576 b 947 597 946 583 946 590 l 947 617 l 949 638 l 949 657 b 949 696 949 669 949 683 b 951 711 950 701 951 706 b 953 742 953 721 953 732 b 954 764 954 749 954 757 b 954 808 954 779 954 793 l 954 874 b 950 897 953 882 951 889 b 951 903 950 899 950 900 b 954 906 953 903 954 904 l 954 910 l 957 910 b 964 910 958 911 961 911 b 963 914 967 910 967 911 b 956 918 960 915 958 917 l 956 944 b 956 957 954 949 956 953 b 953 976 956 964 953 969 l 953 1015 b 958 1031 953 1019 956 1025 b 964 1035 958 1032 961 1033 b 960 1038 967 1036 965 1038 b 947 1038 957 1039 951 1038 l 936 1038 b 897 1036 924 1038 911 1038 b 864 1035 886 1036 875 1035 l 814 1031 b 799 1029 808 1031 803 1029 b 757 1024 783 1028 771 1026 l 749 1028 b 726 1038 740 1031 733 1035 b 717 1040 724 1038 721 1039 b 707 1040 711 1042 708 1042 b 701 1039 707 1039 704 1039 b 700 1033 700 1038 696 1038 l 696 1029 b 688 1024 692 1026 689 1025 l 688 1017 b 685 1010 686 1014 683 1013 l 685 1007 b 678 1001 681 1006 678 1003 b 675 994 678 999 676 997 b 675 988 674 992 671 989 b 669 978 675 986 671 978 b 664 972 668 976 667 974 b 665 968 664 971 665 969 b 661 960 665 965 664 964 b 658 950 660 956 660 953 b 656 944 657 947 656 946 l 656 943 b 654 939 658 939 657 939 b 647 938 650 940 649 939 l 639 925 b 642 921 638 925 640 924 b 633 919 638 921 635 921 b 628 914 632 917 629 917 b 626 911 628 914 626 913 l 624 908 b 622 907 624 908 622 908 b 622 903 625 903 624 903 b 619 899 622 900 619 900 b 615 889 617 896 614 894 b 613 885 615 886 614 886 l 610 882 b 606 879 608 882 608 879 b 597 876 600 881 599 879 b 592 872 596 875 594 872 b 582 869 586 872 583 871 b 583 861 581 868 581 865 b 582 858 586 858 586 857 b 576 857 578 860 576 858 l 574 854 b 568 847 571 851 569 850 b 569 844 568 847 568 846 b 568 843 571 843 569 843 b 565 840 565 844 563 843 b 561 835 568 835 565 835 b 558 833 558 836 557 835 b 557 831 560 831 560 829 b 551 829 554 832 553 831 l 544 822 b 544 819 543 822 544 821 b 544 817 544 819 546 817 b 540 814 540 818 540 817 b 540 813 542 813 542 813 b 535 810 538 813 540 808 b 533 806 538 806 535 807 b 529 804 532 806 529 807 b 522 794 529 799 525 799 l 521 794 b 519 790 522 792 521 792 b 514 790 518 790 518 789 b 514 789 513 792 514 789 l 514 785 b 510 779 514 782 513 781 b 508 778 508 779 507 779 b 506 774 510 774 507 774 b 501 768 503 772 500 772 l 506 764 b 500 767 503 765 501 765 b 497 764 497 767 497 765 b 496 761 497 763 497 761 b 486 772 492 765 489 769 l 467 796 b 453 814 465 797 454 813 l 444 824 b 438 832 442 826 440 829 b 426 842 433 835 429 838 b 421 849 425 843 422 846 l 417 857 b 406 871 413 863 408 867 b 397 882 403 875 400 879 b 388 889 394 885 390 886 b 378 901 383 892 381 897 b 360 918 371 907 365 913 b 349 929 356 922 353 926 b 336 936 344 932 340 933 b 335 940 335 938 335 938 b 335 943 336 942 336 943 b 328 953 333 947 331 950 b 314 967 324 957 318 963 b 313 974 314 969 314 971 b 318 989 313 978 315 983 b 324 993 318 990 321 992 b 319 996 325 996 325 996 l 307 996 b 283 993 301 996 288 994 b 281 1001 282 996 282 999 b 283 1007 281 1003 282 1006 b 279 1007 283 1010 282 1010 b 271 996 276 1003 274 1000 b 268 992 269 994 268 993 b 257 990 264 992 261 992 b 224 988 246 989 235 988 b 174 981 207 986 190 983 b 158 978 168 979 164 979 b 114 969 143 976 128 972 l 81 961 b 57 954 72 960 63 957 b 47 950 54 953 51 951 b 39 943 42 949 39 946 b 36 936 39 940 38 939 b 39 929 35 933 32 931 z "},"N":{"ha":958,"x_min":0,"x_max":0,"o":"m 35 918 l 35 917 l 33 908 l 33 906 b 31 894 32 903 32 899 l 32 893 b 35 888 33 892 35 889 b 38 875 36 883 33 879 b 39 871 39 874 39 872 b 43 860 40 867 40 863 b 44 853 44 857 46 856 b 44 843 44 849 43 846 l 44 839 b 46 826 46 835 47 831 b 46 815 46 822 47 818 b 49 811 46 813 47 813 b 51 800 50 807 51 804 l 51 797 l 57 775 b 58 774 57 774 57 774 b 60 767 63 771 63 769 b 56 760 56 764 56 763 b 57 739 56 753 57 746 b 61 736 57 738 60 738 b 57 726 58 733 57 729 b 56 717 57 724 57 721 b 57 713 56 715 56 714 l 57 707 b 57 704 57 706 56 704 b 58 699 61 703 61 700 l 58 696 b 60 692 61 694 60 693 b 63 676 60 686 58 681 b 64 669 65 675 64 672 l 64 665 b 63 657 64 663 65 660 b 58 647 58 654 58 651 b 56 638 58 644 58 640 b 51 625 53 633 51 629 b 58 618 51 622 53 621 b 60 614 61 617 63 615 b 56 607 56 611 56 608 l 56 589 b 58 588 56 589 57 588 b 60 585 61 586 61 586 b 58 578 57 582 56 581 b 60 569 65 575 63 572 b 58 564 57 568 56 567 b 60 561 61 564 61 563 b 56 556 56 558 56 557 l 56 540 b 57 538 56 539 57 539 b 58 535 58 536 60 536 b 60 528 56 532 56 531 l 60 526 b 57 518 57 524 63 521 b 58 513 61 517 60 515 b 56 507 58 511 54 510 b 58 492 60 503 57 497 b 58 490 58 492 57 490 b 58 485 60 488 60 486 b 56 479 58 483 58 481 b 56 476 54 479 56 478 b 60 474 57 475 58 475 b 60 464 60 469 61 467 b 60 461 58 463 58 461 b 60 453 64 458 61 456 b 61 444 60 450 58 447 l 67 444 b 61 440 65 443 63 442 b 61 436 60 439 60 438 b 57 429 64 433 61 431 b 54 425 54 426 54 426 b 57 419 53 422 53 421 b 60 418 58 419 60 418 b 61 408 58 414 58 411 b 60 399 63 406 61 403 b 61 393 60 397 54 394 l 61 386 b 63 382 61 385 61 383 b 71 364 69 379 71 371 b 71 357 69 363 74 360 b 72 354 69 356 71 354 b 75 349 75 353 75 350 b 76 344 75 347 75 346 b 79 329 76 343 79 331 l 81 317 b 79 314 81 315 81 314 b 79 303 76 310 76 306 b 85 292 83 299 83 294 l 85 288 b 83 278 86 283 88 281 b 83 275 82 276 83 276 b 85 258 83 269 82 264 b 86 246 86 254 82 250 b 85 238 82 243 88 240 l 86 236 b 86 232 89 235 88 233 b 86 228 85 231 85 229 b 86 219 89 225 83 222 b 83 215 85 218 83 217 l 83 200 b 82 192 83 197 83 194 l 82 185 b 82 183 82 185 81 183 b 81 174 83 179 82 176 b 82 172 81 172 81 172 b 83 168 85 171 85 169 b 85 165 83 168 85 167 b 86 160 85 163 89 161 b 88 153 85 157 88 156 b 88 149 89 151 89 150 b 85 146 88 147 85 147 b 85 142 83 144 85 143 l 88 139 l 88 138 b 86 132 83 136 85 135 b 88 128 88 131 88 129 b 83 104 85 121 83 111 b 99 97 83 101 88 99 b 124 94 106 96 114 94 b 131 93 125 94 128 94 b 164 90 142 92 153 92 b 224 89 183 89 203 89 l 249 89 b 271 90 256 89 263 89 l 326 92 l 329 92 b 344 93 335 92 339 92 b 346 99 344 94 346 97 l 346 113 b 349 126 346 117 349 122 b 347 147 349 133 349 140 b 346 165 347 154 346 160 b 344 171 346 167 344 169 l 344 190 b 346 200 344 193 346 196 b 346 222 344 207 344 215 b 346 240 346 228 349 233 b 346 242 344 240 346 242 l 346 254 l 344 267 l 346 274 l 344 279 l 344 282 b 340 304 343 289 342 297 l 340 313 l 336 332 b 333 350 336 339 335 344 b 331 365 333 356 332 360 b 328 376 329 368 329 372 b 325 388 325 379 325 383 l 325 389 b 322 406 322 394 321 400 l 322 408 l 319 428 l 319 442 b 317 454 318 446 317 450 b 318 483 317 464 318 474 b 328 471 321 479 324 475 b 331 469 328 469 329 469 b 333 468 332 469 333 469 b 339 463 332 464 335 463 b 340 461 339 463 340 463 b 343 454 339 457 346 458 b 349 450 349 454 347 451 b 350 444 349 447 349 444 b 364 431 357 442 358 436 b 368 426 367 431 368 429 b 369 419 369 425 371 424 b 371 418 368 418 371 418 l 376 418 b 383 410 379 415 382 414 b 385 407 383 408 383 407 b 392 401 390 408 390 404 b 397 396 393 399 393 396 b 403 399 400 397 401 399 b 400 393 401 397 400 394 b 403 389 400 390 401 389 b 406 381 407 389 407 385 b 407 375 406 378 406 376 b 413 374 407 374 407 371 b 415 372 414 374 415 374 b 424 367 417 369 419 368 b 429 358 426 365 428 361 b 433 354 429 357 428 351 l 435 354 b 439 349 436 351 438 350 b 443 347 440 349 442 347 b 456 343 449 349 453 346 b 461 338 457 342 460 340 b 467 332 463 336 467 336 b 471 331 467 331 468 331 b 476 329 474 332 475 331 b 479 326 476 328 478 328 l 488 322 b 493 315 489 319 492 318 l 504 307 b 506 304 504 307 506 306 b 514 296 506 300 508 296 b 525 290 518 296 522 293 b 529 288 526 290 528 289 b 535 279 532 286 535 285 l 536 278 b 550 267 540 274 543 269 b 561 257 554 264 554 258 b 565 251 560 253 565 254 b 571 247 571 251 571 249 b 574 243 571 244 572 244 b 581 238 578 243 576 238 b 582 233 581 236 581 233 b 593 221 586 229 589 225 l 604 208 b 614 199 608 206 611 203 b 618 199 617 201 617 200 b 621 196 618 197 619 197 b 626 193 622 194 626 196 b 632 190 626 190 631 192 l 636 186 b 636 182 636 185 635 183 b 639 179 636 181 638 181 l 643 179 b 647 174 643 175 646 174 b 651 171 650 174 650 172 b 654 167 653 169 653 168 l 654 150 b 669 144 654 147 660 144 l 694 144 b 701 146 697 144 700 146 b 735 147 713 144 724 146 b 794 153 756 149 775 150 b 819 156 803 154 811 156 b 842 160 828 157 835 158 l 897 168 l 899 168 b 914 171 904 168 910 169 b 915 176 915 172 915 174 b 915 201 915 185 915 193 b 913 219 914 207 914 214 b 908 235 911 225 910 229 b 907 240 908 236 907 238 b 906 257 907 246 906 251 b 906 265 906 260 907 263 b 904 286 904 272 904 279 b 904 303 904 292 907 297 b 904 304 903 303 904 304 l 903 315 l 903 326 l 901 333 l 901 340 b 896 361 900 347 897 354 l 896 369 l 892 388 b 889 404 890 393 889 399 b 885 418 888 408 886 413 b 882 428 883 421 883 424 b 879 439 879 431 878 435 b 875 454 875 444 875 450 b 875 457 876 456 875 457 l 874 475 b 872 489 874 479 874 485 b 871 500 872 493 871 497 b 872 536 871 513 871 524 l 874 582 b 876 619 874 593 874 608 l 876 656 b 876 690 876 667 876 679 b 879 706 878 696 879 700 b 882 753 882 719 882 738 b 879 769 882 758 879 764 b 881 793 879 778 881 786 l 881 832 b 881 853 881 839 882 846 b 876 874 881 860 878 867 b 879 879 876 875 876 878 b 881 882 881 879 881 881 b 883 900 882 888 882 894 b 883 929 883 910 883 919 l 879 946 b 881 964 879 951 881 957 l 881 982 b 885 996 879 986 882 992 b 890 1000 886 997 889 999 b 888 1003 893 1001 893 1003 l 864 1003 b 825 1001 851 1003 838 1001 b 792 999 814 1000 803 1000 b 742 994 775 999 758 996 b 725 993 736 994 731 993 b 681 988 710 992 696 990 b 646 982 669 986 658 983 b 622 976 639 979 629 978 l 614 972 b 601 960 607 971 604 965 b 603 953 600 958 597 956 b 604 951 604 953 604 953 l 603 944 b 601 942 603 943 601 942 b 599 931 600 938 600 935 l 600 929 b 603 924 600 928 601 925 b 604 913 603 919 601 915 b 606 907 606 911 606 910 b 610 896 607 904 607 900 b 610 890 611 894 613 893 l 610 876 b 611 864 611 872 613 868 b 610 853 610 861 611 857 b 613 850 610 851 613 851 b 615 839 614 846 614 843 l 615 836 l 619 814 b 621 813 619 814 619 813 b 621 807 625 811 624 808 b 618 800 618 804 618 803 b 618 779 617 793 618 786 b 622 776 618 778 619 778 b 617 768 619 774 617 771 l 617 758 b 617 754 615 757 617 756 l 615 749 b 617 746 617 747 615 746 b 618 740 621 744 621 742 l 618 739 b 618 733 619 738 618 735 b 622 719 618 729 617 724 b 622 713 624 717 622 714 l 622 708 b 619 700 621 706 622 703 b 615 692 615 697 615 694 b 613 682 615 688 615 685 b 608 669 610 678 608 674 b 614 663 608 667 610 665 b 615 658 618 661 619 660 b 613 651 611 656 611 653 b 611 644 613 649 611 647 b 614 632 611 642 611 638 b 615 629 617 632 617 631 b 614 624 613 628 611 625 b 614 615 621 621 618 618 b 614 610 613 613 611 611 b 614 606 615 608 617 607 b 610 586 610 604 610 590 b 613 583 610 585 611 585 b 614 581 613 582 614 582 b 614 574 610 579 610 576 l 614 572 b 611 565 611 569 617 567 l 611 564 b 613 560 615 563 614 561 b 610 554 611 557 608 556 b 613 544 613 551 613 547 l 594 563 b 561 599 582 575 572 586 l 519 653 b 508 668 517 658 513 663 l 496 683 b 486 697 493 688 489 693 b 471 714 481 703 475 708 b 463 725 467 717 465 721 b 456 739 460 729 458 735 b 439 761 450 746 444 754 b 426 778 435 767 432 774 b 415 790 424 783 418 786 b 401 811 410 797 406 804 b 378 842 393 821 385 832 b 364 860 374 847 369 854 b 349 874 360 864 354 869 b 347 879 347 875 347 876 b 347 883 349 881 349 882 b 339 899 344 889 342 894 b 328 913 335 904 331 908 b 322 922 325 917 325 919 b 311 933 319 926 314 931 l 311 940 b 310 958 311 946 311 953 b 314 974 308 964 311 968 b 319 978 315 975 318 976 b 317 981 322 979 321 981 l 303 981 b 293 979 300 981 296 979 l 288 979 b 290 986 288 981 289 983 b 285 986 292 989 290 989 b 275 979 282 985 278 982 b 272 978 274 979 274 979 b 254 976 267 978 260 978 b 221 974 243 975 232 974 b 171 967 204 972 188 969 b 154 965 165 967 160 965 b 111 957 139 963 125 960 b 76 950 99 954 88 953 b 53 943 68 947 60 946 l 44 939 b 35 932 38 938 35 935 b 32 925 36 931 33 928 b 35 918 31 924 28 921 z "},"O":{"ha":1001,"x_min":0,"x_max":0,"o":"m 49 497 b 49 474 50 490 49 482 b 50 460 50 469 50 465 b 50 432 50 451 51 440 b 51 397 47 421 49 408 b 57 360 53 385 57 372 b 68 313 58 343 61 328 b 83 293 71 304 76 299 b 93 276 89 289 93 285 b 103 251 93 267 97 258 l 115 231 b 143 194 124 218 133 206 b 150 190 144 193 147 192 b 157 183 154 189 156 188 b 175 165 160 175 167 168 b 203 142 189 161 196 151 b 219 129 207 135 213 131 b 232 121 225 128 229 125 b 315 79 239 108 296 79 b 325 78 318 78 322 79 b 351 69 332 71 342 69 b 357 69 353 71 356 69 b 385 61 367 64 376 68 l 388 61 b 407 58 394 64 400 60 b 426 54 414 57 419 54 b 485 56 446 57 465 54 b 492 56 488 56 489 54 b 510 57 497 57 504 58 b 529 56 517 57 522 58 b 539 57 532 54 536 57 b 551 63 543 58 547 63 b 585 69 563 65 574 68 b 594 72 588 71 592 69 b 621 81 603 79 611 79 b 649 92 631 83 640 85 b 650 97 649 94 649 96 b 661 96 654 97 657 96 b 676 103 667 97 672 99 b 703 111 683 108 693 111 b 717 115 708 111 713 113 b 729 125 722 117 728 118 b 736 132 731 128 733 131 b 789 169 749 138 778 160 b 806 183 796 174 804 174 b 808 186 806 185 807 186 b 825 201 814 192 819 196 b 833 213 828 204 831 208 b 842 228 835 218 839 224 b 853 243 846 233 850 239 b 869 265 860 250 864 258 b 886 288 876 272 878 282 b 890 299 889 290 890 294 b 897 314 892 304 894 308 b 903 326 900 318 901 322 l 915 353 b 926 381 918 363 922 371 b 939 424 931 394 935 410 b 942 432 939 426 940 429 b 950 471 949 444 951 457 l 950 490 b 953 524 951 500 953 514 b 954 556 953 535 951 546 b 956 564 956 558 956 561 b 949 621 954 583 954 601 b 946 643 947 628 947 635 b 939 664 944 650 943 657 l 939 667 b 933 692 940 675 933 683 b 931 697 933 694 932 696 b 925 714 926 703 925 708 b 921 726 924 718 924 722 b 908 753 915 733 915 744 l 908 754 b 904 768 907 760 906 764 b 876 814 896 785 886 800 b 861 838 872 822 867 829 l 847 857 b 842 863 846 858 844 861 b 821 886 835 869 826 878 b 815 890 819 888 817 890 b 782 915 815 890 783 913 b 764 926 778 919 769 922 b 753 935 761 929 757 932 b 746 944 750 938 749 942 b 735 950 743 947 739 949 l 726 954 b 721 957 724 954 721 956 b 707 965 718 963 713 964 b 693 972 701 967 697 969 b 665 988 685 978 675 983 b 643 997 658 992 650 994 l 639 1000 b 621 1015 633 1004 628 1010 b 592 1029 613 1021 604 1031 b 585 1032 589 1029 586 1032 b 551 1047 574 1038 563 1043 l 539 1051 b 493 1065 524 1057 508 1061 b 485 1065 490 1065 488 1064 b 458 1064 476 1065 467 1064 l 433 1064 b 408 1061 425 1064 417 1064 b 386 1057 401 1060 393 1058 b 358 1050 378 1056 368 1053 l 351 1047 b 329 1039 347 1047 333 1042 b 324 1036 328 1039 325 1038 b 297 1024 315 1031 307 1025 b 294 1021 297 1022 296 1022 b 258 997 282 1014 269 1006 b 244 986 253 994 249 989 b 210 950 232 974 219 961 b 181 918 199 940 190 929 b 174 906 176 915 176 910 l 165 889 b 156 872 161 883 158 878 l 150 864 b 131 821 143 850 136 836 b 119 797 126 814 122 806 b 118 792 119 796 118 793 b 113 775 119 785 117 779 b 100 756 106 769 103 763 b 78 694 92 736 85 715 b 81 686 78 690 79 689 b 68 660 75 678 71 669 b 60 633 65 651 63 642 b 57 617 58 628 58 622 l 53 600 b 51 590 53 597 50 593 b 50 572 56 583 54 578 l 50 567 b 49 550 51 560 49 556 b 49 497 46 532 44 515 z m 308 510 b 314 547 310 522 311 535 b 319 581 315 558 315 569 b 386 740 335 640 357 688 b 394 756 389 746 392 750 b 404 769 397 760 400 765 b 414 774 406 771 411 774 b 429 783 421 778 426 782 l 438 783 b 454 786 443 785 449 786 b 468 781 460 785 464 783 b 474 778 469 781 471 778 b 479 775 475 776 478 776 b 482 771 481 774 482 772 b 483 764 483 768 483 765 b 481 757 483 763 482 760 b 485 757 479 754 481 754 b 494 765 489 760 492 763 l 503 774 b 533 797 514 781 524 789 b 546 807 538 800 542 804 b 540 776 544 797 543 788 l 540 775 b 538 758 539 769 538 764 l 546 754 b 565 747 551 751 558 750 b 583 735 571 743 576 739 b 610 717 592 729 601 724 b 621 710 614 715 617 713 b 631 701 624 707 628 704 b 638 696 633 700 636 699 b 656 675 644 689 651 682 b 660 668 657 672 658 669 b 664 661 661 665 663 664 b 672 647 667 657 669 653 b 678 633 674 643 676 638 b 686 610 682 625 681 617 l 686 606 b 690 589 689 600 689 594 b 693 571 692 582 692 576 l 693 547 b 693 514 694 536 694 525 b 690 501 693 510 692 506 b 683 471 689 492 688 481 l 679 458 b 674 446 678 454 676 450 b 669 435 672 442 671 439 b 664 425 668 432 667 428 b 656 410 661 419 658 415 b 643 393 653 403 649 397 l 642 392 b 633 381 640 388 638 383 b 622 372 631 378 626 375 b 619 369 621 371 621 369 b 606 358 615 365 611 363 b 592 350 601 356 597 353 b 581 343 589 347 585 346 b 560 332 576 342 563 335 b 550 328 557 331 553 329 b 486 315 529 321 508 317 b 407 324 458 314 431 317 b 382 336 397 328 389 332 b 361 349 374 340 368 344 b 343 367 356 354 349 360 b 329 388 339 374 335 381 b 308 461 315 413 308 432 b 308 510 307 476 307 493 z "},"P":{"ha":957,"x_min":0,"x_max":0,"o":"m 39 982 b 39 979 40 981 39 981 l 39 971 b 38 967 39 969 38 968 b 36 953 36 963 36 958 b 39 946 38 950 39 949 b 40 933 40 942 38 938 b 43 928 42 931 42 929 b 46 914 44 922 44 918 b 47 907 47 911 49 910 l 46 896 b 47 890 46 893 47 892 b 49 876 47 886 50 882 b 47 864 47 872 49 868 b 50 858 47 863 50 861 b 53 847 53 856 53 851 l 53 843 l 57 828 l 57 818 b 58 817 57 817 58 817 b 60 810 64 814 63 811 b 56 801 56 807 56 804 b 56 778 56 793 57 785 b 61 775 56 776 58 775 b 56 764 58 771 56 768 b 54 753 56 761 56 757 l 54 742 b 56 739 54 740 54 739 b 57 732 60 736 58 735 b 57 731 56 732 56 731 b 57 725 58 728 57 726 b 60 707 57 718 56 713 b 61 700 63 706 61 703 l 61 694 b 54 675 58 689 54 681 b 51 664 54 672 54 668 b 46 650 49 660 46 654 b 53 643 47 647 49 644 b 54 638 56 642 57 639 b 50 629 50 635 50 632 l 50 610 b 51 607 50 608 50 608 b 53 604 54 607 54 606 b 51 597 50 603 49 600 b 51 588 58 594 56 590 b 51 582 50 586 49 583 b 51 578 53 581 53 579 b 47 572 49 576 49 574 b 46 556 47 567 47 561 b 49 551 46 554 47 553 b 50 549 49 551 50 550 b 50 542 46 547 46 544 l 50 539 b 47 531 47 536 53 533 b 49 524 51 528 49 526 b 46 518 47 522 44 521 b 46 500 49 513 46 507 l 46 499 b 47 493 47 496 49 494 b 43 488 46 490 47 489 b 43 483 42 486 43 485 b 46 479 44 482 46 481 b 46 469 47 476 47 472 b 46 465 46 468 44 467 b 47 457 50 463 47 460 b 47 449 46 454 43 451 b 53 447 50 447 51 447 b 47 443 50 446 47 444 b 46 439 44 442 44 440 b 42 429 49 435 46 432 b 39 425 39 428 39 426 b 42 421 38 424 36 422 b 43 418 43 419 44 418 b 44 407 42 414 43 411 b 43 397 46 403 43 400 b 43 390 42 394 38 393 b 43 389 44 390 43 389 l 43 382 b 44 378 43 381 43 379 b 51 357 50 374 51 364 b 50 349 50 354 54 351 b 51 344 50 347 50 346 b 57 326 54 343 57 331 l 57 317 l 58 303 b 57 300 58 301 57 300 b 56 288 53 296 53 292 b 60 274 58 282 60 278 l 60 269 b 58 258 60 265 63 263 b 57 257 57 258 57 257 b 58 238 58 250 56 244 b 58 224 60 233 56 229 l 58 222 b 57 214 54 221 60 217 b 57 213 56 214 57 213 b 57 207 60 210 58 208 b 57 203 56 206 56 204 b 57 193 58 200 53 197 l 56 193 b 54 189 56 192 54 190 l 50 163 l 50 154 b 49 140 50 149 50 144 b 50 136 51 139 50 138 l 50 132 b 51 125 50 131 54 128 b 53 118 50 124 53 121 l 53 114 b 49 110 51 113 49 111 b 50 106 49 108 49 107 b 51 103 50 104 50 104 l 51 100 b 50 94 47 99 49 97 l 50 90 b 47 79 49 86 47 83 b 44 64 46 75 46 69 b 58 54 44 60 49 57 b 83 50 67 53 75 50 b 90 49 86 50 89 49 b 124 43 101 46 113 44 b 183 39 143 40 163 40 b 208 38 192 38 200 38 b 229 36 215 36 222 36 l 286 35 l 304 35 b 306 42 304 38 306 39 b 307 57 307 47 307 51 b 311 72 308 63 310 67 l 311 115 b 311 122 311 118 310 121 l 311 143 b 314 154 313 147 314 151 b 315 181 313 164 314 172 b 317 200 315 186 319 193 l 317 203 l 318 217 l 318 231 l 319 238 l 319 247 l 317 272 l 317 282 l 315 304 b 314 319 314 310 314 314 b 321 318 317 318 318 318 b 358 321 333 318 346 319 b 389 325 368 322 379 324 b 399 328 392 325 394 326 l 431 331 b 449 332 438 332 443 331 b 488 338 461 335 475 336 b 518 343 499 339 508 339 l 522 343 b 543 349 529 344 536 346 b 565 353 550 350 558 351 l 576 356 b 586 358 581 357 583 358 b 592 360 588 360 590 360 b 631 375 604 365 617 369 b 679 396 647 381 664 388 b 710 413 689 401 700 406 b 736 428 718 417 726 422 b 753 440 742 432 749 435 b 774 456 760 447 767 451 b 776 457 775 456 775 456 b 803 479 783 465 793 472 b 808 483 806 481 807 482 b 824 497 814 488 818 493 l 853 526 b 864 542 856 532 860 536 b 918 663 889 579 908 618 b 922 731 922 685 924 707 b 907 800 919 754 915 778 l 894 829 b 844 896 883 851 861 879 l 835 904 b 825 913 832 907 828 910 b 806 928 818 917 811 922 b 769 949 793 935 781 943 b 725 968 754 957 739 961 b 697 979 715 971 707 975 b 644 997 682 988 663 994 l 581 1013 b 401 1028 522 1021 461 1028 b 365 1026 389 1028 376 1026 b 357 1028 363 1025 360 1025 b 351 1031 356 1029 354 1031 b 324 1032 343 1031 333 1032 b 326 1033 325 1033 325 1033 b 322 1038 329 1036 328 1038 l 310 1038 b 299 1038 306 1038 301 1036 b 260 1036 286 1038 274 1036 b 226 1033 249 1035 238 1033 b 176 1029 210 1033 193 1031 l 172 1029 b 160 1033 168 1031 164 1031 b 153 1038 157 1033 156 1036 b 149 1035 150 1040 149 1040 b 147 1026 147 1032 147 1029 b 117 1021 138 1025 126 1024 b 82 1014 104 1019 93 1017 b 58 1008 74 1013 65 1011 b 49 1004 56 1007 53 1006 b 40 997 43 1003 40 1000 b 38 990 40 994 39 992 b 39 982 36 988 33 983 z m 319 579 b 313 581 317 583 315 582 l 313 586 l 314 608 b 314 654 314 624 314 639 b 315 671 314 660 314 665 b 321 744 321 693 321 721 b 318 760 321 750 319 754 l 319 760 b 321 760 319 758 319 760 l 336 758 b 342 760 338 758 340 758 b 361 760 349 760 354 761 b 378 758 367 758 372 760 b 385 761 381 757 383 760 b 401 763 390 763 396 763 l 406 763 b 428 764 413 763 421 764 l 440 764 b 443 765 440 764 442 765 b 451 765 446 769 449 768 b 461 761 454 761 458 761 b 493 758 472 760 482 760 b 497 763 494 757 496 760 b 510 756 501 758 504 756 b 522 753 514 754 518 753 b 529 751 525 751 526 751 l 536 750 b 540 750 538 750 539 749 b 549 750 544 754 546 753 b 551 750 549 749 550 749 b 558 749 553 751 556 749 b 578 747 564 747 571 744 b 588 746 582 749 585 747 b 592 744 589 746 590 746 b 601 740 594 743 599 743 b 611 732 604 735 607 733 b 621 726 614 731 619 731 b 632 717 624 721 628 718 b 639 721 633 717 636 717 b 644 719 642 724 644 724 b 649 714 644 715 646 714 b 653 711 650 713 651 711 b 658 707 656 710 657 708 l 660 707 l 660 708 l 661 708 b 663 708 663 710 663 710 l 663 707 l 661 707 l 661 706 l 663 706 l 663 704 b 665 706 664 704 664 706 l 664 706 b 667 704 669 710 668 707 b 667 703 665 701 665 701 b 668 703 669 704 669 704 b 665 700 667 701 665 701 l 664 700 b 661 701 663 700 663 700 b 660 700 660 701 658 701 b 656 700 661 697 658 699 b 651 701 653 701 653 701 b 651 697 650 701 649 701 b 653 694 653 696 653 694 b 643 686 651 694 644 688 b 639 683 642 686 638 689 l 639 682 b 633 679 638 681 635 681 b 619 661 633 674 626 661 b 611 657 617 660 615 656 b 608 654 610 657 608 656 b 606 649 608 650 607 650 b 601 646 604 649 603 647 b 593 640 599 644 596 642 b 583 636 589 639 586 638 b 568 629 578 633 574 631 b 564 628 567 628 565 628 b 550 624 558 629 554 628 b 538 615 546 619 542 617 b 532 614 535 614 533 614 b 519 611 528 611 524 608 l 515 611 b 493 604 508 608 501 608 b 476 599 488 601 482 604 l 475 599 b 464 599 471 601 468 596 l 463 597 b 456 594 460 593 458 594 b 450 594 453 596 451 596 b 439 592 446 592 442 596 b 438 593 438 592 438 593 b 432 593 435 593 433 594 l 410 592 b 397 590 406 592 401 590 l 385 590 b 371 589 381 589 375 588 b 368 589 369 590 369 589 b 360 585 367 586 363 585 b 351 582 357 585 354 581 b 342 581 349 583 344 581 b 336 581 340 579 338 579 b 331 583 335 581 332 583 b 326 582 329 583 328 583 b 319 579 325 582 321 581 z m 663 701 l 664 703 b 665 704 664 703 667 704 l 663 704 b 663 701 661 704 660 704 z "},"Q":{"ha":1106,"x_min":0,"x_max":0,"o":"m 42 438 b 40 414 44 429 43 422 l 40 406 b 42 383 43 399 42 390 b 56 313 42 360 44 335 b 68 282 61 304 64 292 b 76 264 71 275 74 269 b 104 208 82 246 94 225 b 118 190 108 203 113 196 b 150 157 128 179 140 168 b 169 136 156 149 163 142 b 193 119 176 131 185 125 b 219 113 201 115 210 111 b 239 104 226 113 233 110 b 264 89 246 96 254 93 b 289 82 272 88 281 83 l 313 75 b 335 71 319 74 328 72 b 343 72 338 71 342 71 b 353 71 347 74 350 74 b 379 68 361 67 372 65 b 399 71 386 71 393 72 b 415 68 404 71 410 69 b 433 68 422 67 428 65 b 449 69 439 71 443 71 b 468 69 456 67 463 68 b 521 78 488 71 504 74 b 532 82 525 78 529 81 b 539 85 535 83 538 86 b 563 92 549 83 556 86 b 568 94 564 93 567 94 b 593 100 578 93 585 101 b 611 107 599 106 606 106 l 614 107 l 614 106 b 617 103 614 104 611 100 l 618 103 b 621 99 618 101 619 100 b 624 99 621 99 621 97 b 632 96 629 99 631 97 l 636 92 b 639 88 636 90 640 90 b 642 86 639 86 640 86 b 646 86 644 88 644 86 b 649 83 646 85 647 85 b 653 81 650 83 651 82 l 663 69 b 668 61 663 64 664 63 b 676 58 672 61 674 60 b 678 56 676 57 678 57 b 681 50 681 56 683 54 l 682 49 b 690 40 685 46 686 43 b 696 35 693 39 692 35 l 697 35 b 699 29 694 31 700 32 l 700 29 b 704 25 703 29 703 28 b 708 21 707 25 704 19 l 707 19 b 708 17 707 18 707 17 b 714 8 710 14 711 11 b 717 3 715 6 715 4 l 719 -1 l 719 -3 b 724 -8 722 -3 724 -6 l 725 -8 b 728 -8 728 -7 728 -7 b 731 -10 728 -10 729 -10 b 735 -11 731 -11 735 -10 b 739 -14 735 -14 738 -14 b 739 -21 739 -17 739 -18 b 742 -22 739 -21 740 -21 l 746 -22 b 747 -26 743 -25 746 -25 b 751 -33 750 -29 751 -32 b 758 -42 754 -36 756 -39 b 772 -36 760 -44 764 -42 b 792 -21 779 -32 786 -26 b 799 -17 794 -19 796 -18 b 824 4 807 -11 815 -3 b 869 43 840 17 854 29 b 889 60 876 49 882 54 b 906 74 894 64 900 69 l 946 111 b 949 113 947 111 947 113 l 960 124 b 958 126 960 124 960 126 b 954 132 957 129 956 131 b 950 140 951 135 951 138 l 942 149 b 933 154 939 150 936 153 b 931 156 932 156 931 156 b 924 164 928 158 925 161 b 921 169 922 165 922 168 b 913 179 917 172 914 176 b 906 188 910 182 911 186 l 906 189 l 896 199 l 894 203 b 890 206 893 203 893 204 b 881 214 888 208 883 211 l 867 225 b 864 228 867 226 865 226 b 867 232 865 229 867 231 b 872 239 867 235 869 238 b 897 258 882 243 890 251 b 922 278 904 267 914 272 b 939 293 929 282 938 283 b 942 296 939 294 940 296 b 957 311 947 301 953 306 b 965 322 960 315 964 318 b 986 357 969 335 978 346 b 1003 381 992 364 997 372 b 1019 404 1010 388 1011 397 b 1024 415 1022 407 1024 413 b 1029 432 1024 422 1026 426 b 1036 447 1032 438 1033 442 b 1046 476 1039 457 1043 467 b 1067 557 1057 503 1063 529 b 1068 568 1067 561 1068 564 b 1074 592 1071 575 1072 583 b 1072 615 1074 599 1074 607 b 1068 639 1069 622 1068 631 b 1064 663 1067 646 1065 654 l 1060 679 b 1054 699 1058 686 1057 692 b 1051 718 1053 706 1051 711 b 1049 728 1051 722 1049 725 b 1017 789 1039 750 1031 771 b 1003 810 1011 796 1007 803 b 985 829 997 817 992 824 l 983 831 b 960 857 982 833 964 857 b 946 871 953 860 950 865 b 936 879 943 874 939 878 b 911 897 926 883 921 894 b 910 900 911 897 911 899 b 899 910 906 903 903 907 b 851 939 883 921 867 929 b 825 951 842 943 833 947 b 803 961 817 954 810 958 b 796 964 800 963 797 964 b 765 975 785 967 775 969 b 760 975 763 975 760 976 b 749 976 756 972 753 975 b 738 979 746 978 742 978 b 718 981 731 981 725 978 b 699 983 713 983 706 982 b 686 986 694 983 690 985 b 676 992 682 988 679 990 l 656 992 b 651 992 654 992 651 990 b 636 994 646 996 642 994 b 624 996 632 994 628 994 b 596 1000 614 997 606 999 l 567 1004 b 557 1026 564 1011 561 1019 b 536 1053 553 1036 549 1046 b 518 1061 531 1056 524 1058 b 481 1065 508 1067 494 1068 b 443 1057 468 1061 456 1060 b 422 1050 436 1054 429 1053 b 406 1038 415 1047 410 1043 b 397 1032 404 1035 400 1033 b 365 1011 386 1025 375 1018 l 356 1003 b 318 971 342 992 331 983 b 307 954 314 964 311 958 b 285 925 300 944 290 938 l 276 913 b 256 883 269 903 261 893 b 244 868 253 878 250 872 l 243 867 b 225 843 238 860 231 851 b 218 833 222 840 221 836 b 197 801 211 822 206 811 b 178 774 190 793 185 782 b 172 761 175 769 175 765 b 158 733 168 751 163 743 l 154 725 b 135 686 147 713 140 699 l 124 664 b 122 658 122 661 122 660 b 115 643 124 651 119 646 b 101 625 108 638 106 632 b 74 563 93 607 83 585 b 76 553 72 558 75 557 b 60 524 69 544 64 535 l 56 508 b 50 490 53 503 51 496 b 42 450 47 478 44 464 b 42 438 42 446 39 440 z m 306 411 b 308 436 306 418 306 426 b 325 481 311 450 318 464 l 344 519 b 365 560 350 533 357 547 b 392 606 374 575 383 590 l 415 650 b 424 658 418 653 419 656 b 429 663 426 658 428 660 l 457 697 b 482 729 465 707 474 719 b 500 749 488 736 494 742 l 513 765 b 525 781 517 771 521 776 l 529 785 l 531 763 b 533 744 531 756 532 750 b 549 742 539 744 543 743 b 581 739 560 742 569 740 b 611 733 590 738 601 735 b 654 728 626 732 640 729 b 686 721 665 725 676 724 b 726 708 699 721 715 714 b 739 700 731 707 735 703 b 767 682 750 696 758 689 b 783 667 774 676 776 669 b 785 664 785 665 785 665 b 789 658 786 663 789 660 b 793 653 790 657 793 654 b 797 647 794 651 796 650 b 800 643 797 646 799 644 b 801 638 801 640 801 639 b 804 633 803 636 803 635 l 804 631 b 811 611 807 625 810 619 l 811 603 b 808 578 811 594 810 586 b 800 553 806 569 804 561 b 792 531 797 546 794 539 b 783 515 789 526 785 521 b 771 499 781 508 776 504 l 769 497 b 749 475 765 488 757 481 l 744 471 b 724 453 738 465 731 460 b 717 464 721 457 719 461 b 711 476 715 468 714 474 b 701 488 708 481 704 483 b 701 490 700 488 700 489 b 703 493 703 492 703 493 l 699 506 b 693 515 697 508 694 511 b 692 522 692 517 693 519 b 683 531 689 525 685 526 b 679 540 682 533 681 538 b 674 551 678 544 676 549 b 675 563 672 554 674 558 b 679 567 675 564 678 565 b 675 567 681 569 679 569 b 664 561 671 565 668 564 b 621 536 649 554 635 544 l 592 519 b 549 494 578 511 563 503 b 535 486 543 492 539 489 b 468 442 513 472 489 457 b 449 428 461 436 454 432 l 442 421 b 436 413 438 417 435 414 b 435 407 436 411 436 410 b 438 404 435 406 432 403 b 439 403 439 404 439 403 l 440 397 l 440 388 l 442 388 b 446 385 443 386 446 386 b 451 379 449 383 447 379 b 454 378 453 379 453 378 b 460 372 456 375 457 372 b 463 368 463 371 464 371 b 465 363 464 367 464 364 b 467 360 465 361 467 361 b 471 353 468 358 471 356 b 474 346 472 351 474 349 b 478 344 474 344 476 346 b 483 340 481 344 481 342 l 483 339 l 479 339 b 408 329 463 333 426 329 b 328 350 385 329 349 338 b 321 356 325 353 322 354 l 315 363 b 308 374 313 365 311 371 b 304 392 306 381 304 383 b 306 411 303 396 304 403 z "},"R":{"ha":957,"x_min":0,"x_max":0,"o":"m 31 419 b 32 417 32 418 32 417 b 33 407 31 413 32 410 b 32 396 35 403 33 400 b 33 390 32 394 26 392 b 33 389 35 390 33 389 l 33 382 b 36 378 33 381 35 379 b 43 358 42 375 43 364 b 43 350 43 356 46 353 b 44 347 42 350 43 347 b 50 329 47 346 50 332 b 53 306 51 326 53 308 l 53 303 b 53 292 49 299 49 294 b 57 279 56 288 56 283 l 57 275 b 56 264 58 271 60 268 l 56 263 b 58 244 57 256 56 250 b 60 231 60 240 56 235 l 60 229 b 58 222 56 228 61 225 b 60 219 58 221 58 221 b 60 214 63 218 61 217 b 60 211 58 213 58 211 b 60 201 63 207 57 204 b 58 197 58 200 58 199 b 57 181 57 192 58 186 l 57 164 b 57 161 57 163 56 163 b 56 151 58 158 58 154 b 57 150 56 150 56 150 b 60 146 61 149 60 147 b 60 142 58 144 60 143 b 63 136 60 140 64 139 b 64 129 61 133 64 132 l 64 125 b 60 121 64 124 61 122 b 61 117 60 119 61 118 b 64 113 63 117 63 115 b 64 107 61 110 63 108 l 64 103 b 61 76 64 96 63 83 b 101 67 61 69 96 67 l 108 67 b 142 65 119 65 131 65 b 201 68 163 65 182 67 b 228 69 210 68 219 68 b 249 71 235 69 242 71 b 304 76 268 72 286 74 l 307 76 b 322 78 313 76 318 76 b 324 83 324 79 324 82 l 324 97 b 324 135 324 110 324 122 b 321 151 322 140 322 146 b 319 157 321 154 319 156 l 319 178 b 319 188 319 181 321 183 b 319 211 318 196 319 203 b 319 229 319 217 322 222 b 318 243 319 235 319 239 l 318 272 b 314 294 317 279 314 288 b 313 304 313 297 313 301 b 310 324 311 311 310 318 b 307 343 308 331 307 336 b 303 358 306 349 304 353 b 300 369 301 363 301 365 b 297 382 297 374 297 378 l 299 379 b 307 364 301 372 303 368 b 315 365 310 364 313 364 b 335 371 322 367 329 369 b 356 376 342 374 350 374 b 386 389 367 381 376 385 b 410 400 394 392 401 396 b 417 404 413 401 414 403 b 425 406 419 404 421 406 l 436 394 l 438 394 b 440 392 442 396 442 394 b 440 386 438 389 439 388 b 447 374 442 382 444 378 b 453 375 447 374 450 375 b 451 367 450 372 450 369 b 454 361 453 365 453 363 b 456 358 454 360 456 360 l 457 356 b 458 354 458 354 457 353 b 463 351 463 356 464 354 l 463 350 b 465 347 465 350 464 349 b 474 340 467 344 468 342 b 476 338 475 340 475 339 b 478 335 476 336 476 336 b 478 329 478 333 481 332 b 478 321 476 325 478 322 b 481 314 479 319 481 317 b 481 304 479 310 479 306 b 488 303 482 303 483 301 b 492 301 492 304 493 304 b 490 294 489 297 489 296 b 493 292 492 294 492 292 b 497 285 494 289 496 286 l 500 285 b 501 283 501 285 501 285 b 503 279 500 281 500 278 b 507 274 510 281 508 278 b 508 271 506 272 506 271 b 510 268 510 271 511 271 b 510 264 508 265 508 265 b 514 254 511 261 513 257 b 517 253 514 254 515 254 b 519 253 518 253 519 254 b 522 249 517 249 518 249 b 522 247 522 249 524 249 b 524 242 521 244 526 246 l 525 242 b 526 239 528 243 526 240 b 528 235 528 238 525 235 b 536 224 533 233 533 228 b 539 221 538 224 539 224 b 538 215 539 219 540 219 l 539 215 b 543 214 540 214 543 215 b 549 207 544 213 547 211 b 553 203 553 207 553 204 b 557 197 553 200 553 197 b 561 200 558 199 561 200 b 558 196 560 199 558 197 b 560 192 557 193 558 192 b 560 185 564 192 563 189 b 560 181 558 183 560 182 b 564 181 560 179 560 178 b 567 179 565 181 567 181 b 572 175 567 176 569 175 b 575 168 575 174 575 171 b 579 165 575 167 572 163 b 582 161 581 164 581 163 b 586 160 583 160 583 160 b 594 157 590 161 593 160 b 599 153 596 156 599 154 b 603 149 600 151 604 151 b 606 147 603 147 604 147 b 610 146 608 149 610 147 b 613 144 611 146 613 144 b 618 140 615 143 617 142 b 624 136 619 139 621 138 l 631 129 l 631 128 b 636 121 631 124 632 121 b 646 117 642 121 643 118 b 649 115 647 117 647 115 b 653 108 650 114 654 113 b 663 97 657 104 658 100 b 671 92 667 96 665 92 b 675 86 669 88 675 89 b 676 86 674 85 675 85 b 679 83 679 86 679 85 b 681 81 679 82 679 81 b 686 76 685 81 682 75 l 686 72 b 694 63 689 68 692 65 b 699 57 696 61 697 60 l 703 53 b 710 46 707 51 708 49 l 711 46 b 714 46 714 47 714 47 b 717 44 714 44 715 44 b 721 43 718 43 721 44 b 726 40 721 40 725 42 l 729 38 b 728 33 729 36 728 35 b 732 32 729 32 731 32 l 736 32 b 739 28 735 28 736 28 b 742 26 740 28 740 28 b 746 19 743 24 744 22 l 754 11 b 768 19 757 10 761 11 b 786 38 774 25 781 31 b 790 43 788 39 789 42 b 813 68 799 50 806 60 l 850 114 b 865 135 856 121 861 128 b 879 151 869 140 875 146 l 913 196 b 924 210 918 201 921 206 b 922 213 924 211 924 213 b 917 218 921 215 918 215 b 913 224 915 219 914 222 b 903 231 910 226 907 228 l 894 235 b 892 236 894 235 893 235 b 885 243 889 238 886 240 b 881 247 883 244 883 246 b 872 256 876 249 875 253 b 865 263 869 258 869 263 l 865 264 l 850 279 b 838 288 844 283 842 285 b 833 290 836 289 835 290 l 824 299 b 815 306 821 300 818 303 l 807 310 b 800 314 804 311 804 313 b 794 318 797 314 796 315 l 793 318 b 785 326 789 319 788 322 l 776 335 b 764 347 772 339 768 343 l 751 368 b 736 396 746 378 742 386 b 731 408 733 400 732 404 b 724 419 728 413 726 415 l 717 431 b 711 442 715 435 714 439 b 701 454 708 446 704 450 l 697 463 b 694 474 696 467 696 471 b 685 490 692 479 688 485 b 678 504 682 496 681 500 l 669 513 l 660 531 b 678 544 667 535 672 539 b 692 556 683 547 688 550 b 708 569 697 561 703 565 l 711 569 b 735 590 717 578 725 583 b 753 606 736 590 751 604 l 768 621 b 792 647 775 628 783 638 b 810 675 797 656 803 665 b 832 729 818 690 826 708 b 839 793 838 749 840 772 b 818 871 838 822 828 849 b 719 981 796 913 760 956 b 686 1003 708 989 697 996 l 669 1011 b 654 1019 664 1014 660 1017 b 633 1026 647 1022 640 1025 b 614 1033 626 1029 619 1031 b 588 1043 604 1036 596 1040 b 511 1064 561 1051 539 1060 b 475 1069 500 1067 488 1068 b 446 1071 465 1071 456 1069 b 424 1072 439 1071 431 1071 b 401 1074 417 1072 410 1072 b 299 1067 375 1074 324 1072 b 264 1058 286 1065 275 1061 b 256 1060 261 1058 258 1057 b 250 1061 253 1061 251 1061 b 189 1050 229 1058 210 1056 b 169 1046 182 1049 176 1049 b 142 1035 160 1043 151 1038 b 113 1026 132 1032 122 1031 b 82 1015 103 1024 92 1019 b 57 1011 74 1013 65 1011 b 49 1014 54 1011 51 1013 b 44 1008 44 1015 43 1014 b 49 996 44 1004 47 1000 b 53 986 50 993 51 989 l 53 985 b 47 983 51 985 49 983 b 38 976 42 982 38 979 b 35 969 38 975 36 972 b 35 963 33 967 29 964 b 36 960 36 961 36 961 b 35 951 35 957 35 954 b 33 949 33 950 33 950 l 29 936 l 31 935 b 33 928 32 932 32 931 b 35 915 33 924 31 919 b 36 910 36 913 35 911 b 39 896 36 906 36 900 b 39 890 39 894 40 892 b 38 878 38 886 38 882 l 38 874 b 39 860 39 869 40 865 b 38 847 38 856 39 851 b 40 843 36 846 39 844 b 42 832 42 839 42 835 l 42 828 b 44 813 43 824 43 818 l 44 803 l 46 801 b 47 796 50 800 50 797 b 43 788 43 793 43 790 b 42 764 42 779 43 772 b 47 761 42 763 44 763 b 40 742 42 757 40 747 l 40 731 b 40 726 40 729 39 728 b 42 721 44 725 44 722 l 42 718 b 42 713 43 717 42 715 b 44 697 42 708 40 703 b 46 689 47 694 46 692 b 44 685 46 688 46 686 b 43 676 44 682 46 679 b 39 665 39 672 39 669 b 36 654 38 663 39 658 b 31 642 32 650 31 646 b 36 635 31 639 32 636 b 38 629 40 633 42 631 b 33 621 33 626 33 624 b 33 615 35 619 33 617 l 33 603 b 36 600 33 601 35 601 b 36 597 39 600 38 599 b 36 590 33 596 32 593 b 36 581 42 588 39 585 b 35 576 33 579 33 578 b 36 572 38 574 38 574 b 32 565 32 569 32 568 b 31 550 32 561 32 556 b 33 546 31 549 32 547 l 35 544 b 35 536 31 542 31 539 l 35 535 b 32 526 32 532 38 529 l 32 525 b 33 519 36 524 33 522 b 31 514 32 518 29 515 b 32 497 35 508 32 503 l 32 494 b 33 489 33 493 33 492 b 29 483 32 488 33 485 b 29 481 28 483 29 482 b 33 476 31 479 33 478 b 33 467 33 474 35 469 b 32 464 32 465 32 464 b 33 454 38 460 35 457 b 35 446 33 451 31 449 b 40 444 38 446 39 444 b 35 442 38 443 36 443 b 35 436 33 440 32 439 b 31 428 38 433 35 431 b 26 424 28 426 28 425 b 31 419 26 422 25 421 z m 297 644 b 300 660 297 650 299 654 b 303 676 300 665 301 671 b 304 706 303 686 304 696 b 304 746 304 719 304 732 b 306 772 304 754 306 763 b 307 796 307 781 307 788 b 321 797 311 796 315 797 b 325 800 322 797 324 800 b 338 804 329 803 333 803 l 342 804 l 358 810 l 369 811 b 371 813 369 811 371 811 b 378 813 372 817 375 815 b 386 810 381 810 383 810 l 413 810 b 415 814 414 810 414 811 b 438 807 422 810 429 807 b 443 806 439 806 440 807 l 449 806 b 453 806 450 806 451 804 b 458 806 454 810 457 808 l 461 806 b 467 806 463 808 464 806 b 475 804 469 806 472 804 b 483 806 478 804 481 804 b 490 806 486 807 489 806 b 494 804 492 806 494 804 b 503 800 497 803 501 804 b 511 793 506 794 508 794 b 521 789 515 793 518 792 b 531 779 524 783 526 781 b 538 783 532 779 535 781 b 542 783 540 786 542 788 b 546 776 542 778 544 778 b 550 775 547 776 549 775 b 554 774 551 774 553 774 b 550 771 553 772 551 771 b 539 763 549 771 539 764 b 535 757 538 758 536 757 l 531 753 b 521 746 528 750 525 749 b 511 740 518 743 515 742 l 497 731 b 493 729 496 729 494 729 b 479 722 488 729 482 728 b 468 711 476 717 472 714 b 463 708 467 710 465 710 b 451 704 460 706 457 703 b 449 703 450 704 449 703 b 428 692 442 699 435 697 b 413 683 424 688 417 689 l 413 682 b 401 679 407 685 407 678 b 400 678 401 681 400 679 b 394 675 399 674 397 674 b 379 668 393 675 379 668 l 372 668 l 353 660 b 342 657 349 658 346 657 l 333 653 l 331 653 b 318 649 326 650 322 649 b 315 646 317 649 315 647 b 313 643 315 643 314 643 b 308 640 311 643 310 642 b 301 636 306 640 306 635 b 299 635 300 636 299 636 b 297 644 297 638 297 642 z m 585 750 l 586 750 l 588 751 b 586 749 588 750 588 750 b 585 750 586 749 583 749 z m 588 747 b 589 749 589 749 589 749 b 588 747 588 747 592 750 z "}}}
